  0
SECTION
  2
HEADER
  9
$ACADVER
  1
AC1032
  9
$ACADMAINTVER
 90
        4
  9
$DWGCODEPAGE
  3
ANSI_1252
  9
$LASTSAVEDBY
  1
grey
  9
$REQUIREDVERSIONS
160
                 0
  9
$INSBASE
 10
0.0
 20
0.0
 30
0.0
  9
$EXTMIN
 10
-65.20000000000005
 20
-70.69999999999997
 30
0.0
  9
$EXTMAX
 10
1229.02073922821
 20
690.8993346742108
 30
0.0
  9
$LIMMIN
 10
0.0
 20
0.0
  9
$LIMMAX
 10
12.0
 20
9.0
  9
$ORTHOMODE
 70
     0
  9
$REGENMODE
 70
     1
  9
$FILLMODE
 70
     1
  9
$QTEXTMODE
 70
     0
  9
$MIRRTEXT
 70
     1
  9
$LTSCALE
 40
1.0
  9
$ATTMODE
 70
     1
  9
$TEXTSIZE
 40
2.5
  9
$TRACEWID
 40
0.05
  9
$TEXTSTYLE
  7
STANDARD
  9
$CLAYER
  8
pcb
  9
$CELTYPE
  6
BYBLOCK
  9
$CECOLOR
 62
   256
  9
$CELTSCALE
 40
1.0
  9
$DISPSILH
 70
     0
  9
$DIMSCALE
 40
1.0
  9
$DIMASZ
 40
0.18
  9
$DIMEXO
 40
0.0625
  9
$DIMDLI
 40
0.38
  9
$DIMRND
 40
0.0
  9
$DIMDLE
 40
0.0
  9
$DIMEXE
 40
0.18
  9
$DIMTP
 40
0.0
  9
$DIMTM
 40
0.0
  9
$DIMTXT
 40
0.18
  9
$DIMCEN
 40
0.09
  9
$DIMTSZ
 40
0.0
  9
$DIMTOL
 70
     0
  9
$DIMLIM
 70
     0
  9
$DIMTIH
 70
     1
  9
$DIMTOH
 70
     1
  9
$DIMSE1
 70
     0
  9
$DIMSE2
 70
     0
  9
$DIMTAD
 70
     0
  9
$DIMZIN
 70
     0
  9
$DIMBLK
  1

  9
$DIMASO
 70
     1
  9
$DIMSHO
 70
     1
  9
$DIMPOST
  1

  9
$DIMAPOST
  1

  9
$DIMALT
 70
     0
  9
$DIMALTD
 70
     2
  9
$DIMALTF
 40
25.4
  9
$DIMLFAC
 40
1.0
  9
$DIMTOFL
 70
     0
  9
$DIMTVP
 40
0.0
  9
$DIMTIX
 70
     0
  9
$DIMSOXD
 70
     0
  9
$DIMSAH
 70
     0
  9
$DIMBLK1
  1

  9
$DIMBLK2
  1

  9
$DIMSTYLE
  2
STANDARD
  9
$DIMCLRD
 70
     0
  9
$DIMCLRE
 70
     0
  9
$DIMCLRT
 70
     0
  9
$DIMTFAC
 40
1.0
  9
$DIMGAP
 40
0.09
  9
$DIMJUST
 70
     0
  9
$DIMSD1
 70
     0
  9
$DIMSD2
 70
     0
  9
$DIMTOLJ
 70
     1
  9
$DIMTZIN
 70
     0
  9
$DIMALTZ
 70
     0
  9
$DIMALTTZ
 70
     0
  9
$DIMUPT
 70
     0
  9
$DIMDEC
 70
     4
  9
$DIMTDEC
 70
     4
  9
$DIMALTU
 70
     2
  9
$DIMALTTD
 70
     2
  9
$DIMTXSTY
  7
STANDARD
  9
$DIMAUNIT
 70
     0
  9
$DIMADEC
 70
     0
  9
$DIMALTRND
 40
0.0
  9
$DIMAZIN
 70
     0
  9
$DIMDSEP
 70
    46
  9
$DIMATFIT
 70
     3
  9
$DIMFRAC
 70
     0
  9
$DIMLDRBLK
  1

  9
$DIMLUNIT
 70
     2
  9
$DIMLWD
 70
    -2
  9
$DIMLWE
 70
    -2
  9
$DIMTMOVE
 70
     2
  9
$DIMFXL
 40
1.0
  9
$DIMFXLON
 70
     0
  9
$DIMJOGANG
 40
0.7853981633974483
  9
$DIMTFILL
 70
     0
  9
$DIMTFILLCLR
 70
     0
  9
$DIMARCSYM
 70
     0
  9
$DIMLTYPE
  6

  9
$DIMLTEX1
  6

  9
$DIMLTEX2
  6

  9
$DIMTXTDIRECTION
 70
     0
  9
$LUNITS
 70
     2
  9
$LUPREC
 70
     4
  9
$SKETCHINC
 40
0.1
  9
$FILLETRAD
 40
1.5
  9
$AUNITS
 70
     0
  9
$AUPREC
 70
     0
  9
$MENU
  1
.
  9
$ELEVATION
 40
0.0
  9
$PELEVATION
 40
0.0
  9
$THICKNESS
 40
0.0
  9
$LIMCHECK
 70
     0
  9
$CHAMFERA
 40
0.0
  9
$CHAMFERB
 40
0.0
  9
$CHAMFERC
 40
0.0
  9
$CHAMFERD
 40
0.0
  9
$SKPOLY
 70
     0
  9
$TDCREATE
 40
0.0
  9
$TDUCREATE
 40
0.0
  9
$TDUPDATE
 40
2458909.380862755
  9
$TDUUPDATE
 40
2458909.380862755
  9
$TDINDWG
 40
0.0000001505
  9
$TDUSRTIMER
 40
0.0362512963
  9
$USRTIMER
 70
     1
  9
$ANGBASE
 50
0.0
  9
$ANGDIR
 70
     0
  9
$PDMODE
 70
     0
  9
$PDSIZE
 40
0.0
  9
$PLINEWID
 40
0.0
  9
$SPLFRAME
 70
     0
  9
$SPLINETYPE
 70
     6
  9
$SPLINESEGS
 70
     8
  9
$HANDSEED
  5
10839
  9
$SURFTAB1
 70
     6
  9
$SURFTAB2
 70
     6
  9
$SURFTYPE
 70
     6
  9
$SURFU
 70
     6
  9
$SURFV
 70
     6
  9
$UCSBASE
  2

  9
$UCSNAME
  2

  9
$UCSORG
 10
0.0
 20
0.0
 30
0.0
  9
$UCSXDIR
 10
1.0
 20
0.0
 30
0.0
  9
$UCSYDIR
 10
0.0
 20
1.0
 30
0.0
  9
$UCSORTHOREF
  2

  9
$UCSORTHOVIEW
 70
     0
  9
$UCSORGTOP
 10
0.0
 20
0.0
 30
0.0
  9
$UCSORGBOTTOM
 10
0.0
 20
0.0
 30
0.0
  9
$UCSORGLEFT
 10
0.0
 20
0.0
 30
0.0
  9
$UCSORGRIGHT
 10
0.0
 20
0.0
 30
0.0
  9
$UCSORGFRONT
 10
0.0
 20
0.0
 30
0.0
  9
$UCSORGBACK
 10
0.0
 20
0.0
 30
0.0
  9
$PUCSBASE
  2

  9
$PUCSNAME
  2

  9
$PUCSORG
 10
0.0
 20
0.0
 30
0.0
  9
$PUCSXDIR
 10
1.0
 20
0.0
 30
0.0
  9
$PUCSYDIR
 10
0.0
 20
1.0
 30
0.0
  9
$PUCSORTHOREF
  2

  9
$PUCSORTHOVIEW
 70
     0
  9
$PUCSORGTOP
 10
0.0
 20
0.0
 30
0.0
  9
$PUCSORGBOTTOM
 10
0.0
 20
0.0
 30
0.0
  9
$PUCSORGLEFT
 10
0.0
 20
0.0
 30
0.0
  9
$PUCSORGRIGHT
 10
0.0
 20
0.0
 30
0.0
  9
$PUCSORGFRONT
 10
0.0
 20
0.0
 30
0.0
  9
$PUCSORGBACK
 10
0.0
 20
0.0
 30
0.0
  9
$USERI1
 70
     0
  9
$USERI2
 70
     0
  9
$USERI3
 70
     0
  9
$USERI4
 70
     0
  9
$USERI5
 70
     0
  9
$USERR1
 40
0.0
  9
$USERR2
 40
0.0
  9
$USERR3
 40
0.0
  9
$USERR4
 40
0.0
  9
$USERR5
 40
0.0
  9
$WORLDVIEW
 70
     1
  9
$SHADEDGE
 70
     3
  9
$SHADEDIF
 70
    70
  9
$TILEMODE
 70
     1
  9
$MAXACTVP
 70
    64
  9
$PINSBASE
 10
0.0
 20
0.0
 30
0.0
  9
$PLIMCHECK
 70
     0
  9
$PEXTMIN
 10
0.0
 20
0.0
 30
0.0
  9
$PEXTMAX
 10
50.0
 20
50.0
 30
50.0
  9
$PLIMMIN
 10
0.0
 20
0.0
  9
$PLIMMAX
 10
0.0
 20
0.0
  9
$UNITMODE
 70
     0
  9
$VISRETAIN
 70
     1
  9
$PLINEGEN
 70
     0
  9
$PSLTSCALE
 70
     1
  9
$TREEDEPTH
 70
  3020
  9
$CMLSTYLE
  2
Standard
  9
$CMLJUST
 70
     0
  9
$CMLSCALE
 40
1.0
  9
$PROXYGRAPHICS
 70
     1
  9
$MEASUREMENT
 70
     0
  9
$CELWEIGHT
370
    -1
  9
$ENDCAPS
280
     0
  9
$JOINSTYLE
280
     0
  9
$LWDISPLAY
290
     0
  9
$INSUNITS
 70
     0
  9
$HYPERLINKBASE
  1

  9
$STYLESHEET
  1

  9
$XEDIT
290
     1
  9
$CEPSNTYPE
380
     0
  9
$PSTYLEMODE
290
     1
  9
$FINGERPRINTGUID
  2
{66313073-6173-3572-7676-7632323136b8}
  9
$VERSIONGUID
  2
{FAEB1C32-E019-11D5-929B-00C0DF256EC4}
  9
$EXTNAMES
290
     1
  9
$PSVPSCALE
 40
0.0
  9
$OLESTARTUP
290
     0
  9
$SORTENTS
280
   127
  9
$INDEXCTL
280
     0
  9
$HIDETEXT
280
     1
  9
$XCLIPFRAME
280
     2
  9
$HALOGAP
280
     0
  9
$OBSCOLOR
 70
   257
  9
$OBSLTYPE
280
     0
  9
$INTERSECTIONDISPLAY
280
     0
  9
$INTERSECTIONCOLOR
 70
   257
  9
$DIMASSOC
280
     2
  9
$PROJECTNAME
  1

  9
$CAMERADISPLAY
290
     0
  9
$LENSLENGTH
 40
50.0
  9
$CAMERAHEIGHT
 40
0.0
  9
$STEPSPERSEC
 40
2.0
  9
$STEPSIZE
 40
6.0
  9
$3DDWFPREC
 40
2.0
  9
$PSOLWIDTH
 40
0.25
  9
$PSOLHEIGHT
 40
4.0
  9
$LOFTANG1
 40
1.570796326794897
  9
$LOFTANG2
 40
1.570796326794897
  9
$LOFTMAG1
 40
0.0
  9
$LOFTMAG2
 40
0.0
  9
$LOFTPARAM
 70
     7
  9
$LOFTNORMALS
280
     1
  9
$LATITUDE
 40
37.795
  9
$LONGITUDE
 40
-122.394
  9
$NORTHDIRECTION
 40
0.0
  9
$TIMEZONE
 70
 -8000
  9
$LIGHTGLYPHDISPLAY
280
     1
  9
$TILEMODELIGHTSYNCH
280
     1
  9
$SOLIDHIST
280
     0
  9
$SHOWHIST
280
     1
  9
$DWFFRAME
280
     2
  9
$DGNFRAME
280
     2
  9
$REALWORLDSCALE
290
     1
  9
$INTERFERECOLOR
 62
   256
  9
$CSHADOW
280
     0
  9
$SHADOWPLANELOCATION
 40
0.0
  0
ENDSEC
  0
SECTION
  2
CLASSES
  0
CLASS
  1
ACDBDICTIONARYWDFLT
  2
AcDbDictionaryWithDefault
  3
ObjectDBX Classes
 90
        0
 91
        3
280
     0
281
     0
  0
CLASS
  1
XRECORD
  2
AcDbXrecord
  3
ObjectDBX Classes
 90
        0
 91
        1
280
     0
281
     0
  0
CLASS
  1
LWPOLYLINE
  2
AcDbPolyline
  3
ObjectDBX Classes
 90
        0
 91
        1
280
     0
281
     1
  0
CLASS
  1
SCALE
  2
AcDbScale
  3
ObjectDBX Classes
 90
     1153
 91
        3
280
     0
281
     0
  0
CLASS
  1
VISUALSTYLE
  2
AcDbVisualStyle
  3
ObjectDBX Classes
 90
     4095
 91
        3
280
     0
281
     0
  0
CLASS
  1
MATERIAL
  2
AcDbMaterial
  3
ObjectDBX Classes
 90
     1153
 91
        3
280
     0
281
     0
  0
CLASS
  1
TABLESTYLE
  2
AcDbTableStyle
  3
ObjectDBX Classes
 90
     4095
 91
        3
280
     0
281
     0
  0
CLASS
  1
MLEADERSTYLE
  2
AcDbMLeaderStyle
  3
ACDB_MLEADERSTYLE_CLASS
 90
     4095
 91
        3
280
     0
281
     0
  0
CLASS
  1
DICTIONARYVAR
  2
AcDbDictionaryVar
  3
ObjectDBX Classes
 90
        0
 91
        3
280
     0
281
     0
  0
CLASS
  1
CELLSTYLEMAP
  2
AcDbCellStyleMap
  3
ObjectDBX Classes
 90
     1152
 91
        3
280
     0
281
     0
  0
CLASS
  1
DIMASSOC
  2
AcDbDimAssoc
  3
"AcDbDimAssoc|Product Desc:     AcDim ARX App For Dimension|Company:          Autodesk, Inc.|WEB Address:      www.autodesk.com"
 90
        0
 91
        3
280
     0
281
     0
  0
CLASS
  1
SUN
  2
AcDbSun
  3
SCENEOE
 90
     1153
 91
        3
280
     0
281
     0
  0
ENDSEC
  0
SECTION
  2
TABLES
  0
TABLE
  2
VPORT
  5
20
330
0
100
AcDbSymbolTable
 70
     1
  0
VPORT
  5
21
330
20
100
AcDbSymbolTableRecord
100
AcDbViewportTableRecord
  2
*ACTIVE
 70
     0
 10
0.0
 20
0.0
 11
1.0
 21
1.0
 12
-12.02279343247332
 22
-5.43245730572988
 13
0.0
 23
0.0
 14
0.5
 24
0.5
 15
0.5
 25
0.5
 16
0.0
 26
0.0
 36
1.0
 17
0.0
 27
0.0
 37
0.0
 40
165.2132795207992
 41
1.360544217687075
 42
50.0
 43
0.0
 44
0.0
 50
0.0
 51
0.0
 71
    16
 72
   100
 73
     1
 74
     3
 75
     0
 76
     0
 77
     0
 78
     0
281
     0
 65
     1
110
0.0
120
0.0
130
0.0
111
1.0
121
0.0
131
0.0
112
0.0
122
1.0
132
0.0
 79
     0
146
0.0
348
1002E
 60
     3
 61
     5
292
     1
282
     1
141
0.0
142
0.0
 63
   256
361
10835
  0
ENDTAB
  0
TABLE
  2
LTYPE
  5
22
330
0
100
AcDbSymbolTable
 70
     1
  0
LTYPE
  5
23
330
22
100
AcDbSymbolTableRecord
100
AcDbLinetypeTableRecord
  2
BYBLOCK
 70
     0
  3

 72
    65
 73
     0
 40
0.0
  0
LTYPE
  5
24
330
22
100
AcDbSymbolTableRecord
100
AcDbLinetypeTableRecord
  2
BYLAYER
 70
     0
  3

 72
    65
 73
     0
 40
0.0
  0
LTYPE
  5
25
330
22
100
AcDbSymbolTableRecord
100
AcDbLinetypeTableRecord
  2
CONTINUOUS
 70
     0
  3
Solid line
 72
    65
 73
     0
 40
0.0
  0
ENDTAB
  0
TABLE
  2
LAYER
  5
B0C
102
{ACAD_XDICTIONARY
360
104C4
102
}
330
0
100
AcDbSymbolTable
 70
     5
  0
LAYER
  5
B0D
330
B0C
100
AcDbSymbolTableRecord
100
AcDbLayerTableRecord
  2
0
 70
     0
 62
     7
  6
CONTINUOUS
370
    -3
390
10003
347
10045
348
0
  0
LAYER
  5
B0E
330
B0C
100
AcDbSymbolTableRecord
100
AcDbLayerTableRecord
  2
ProjItem
 70
     0
 62
     7
  6
CONTINUOUS
370
    -3
390
10003
347
10045
348
0
  0
LAYER
  5
1004B
330
B0C
100
AcDbSymbolTableRecord
100
AcDbLayerTableRecord
  2
Defpoints
 70
     0
 62
     7
  6
CONTINUOUS
290
     0
370
    -3
390
10003
347
10045
348
0
  0
LAYER
  5
104C7
330
B0C
100
AcDbSymbolTableRecord
100
AcDbLayerTableRecord
  2
pcb
 70
     0
 62
     1
  6
CONTINUOUS
370
    -3
390
10003
347
10045
348
0
1001
AcAecLayerStandard
1000

1000

  0
LAYER
  5
10532
330
B0C
100
AcDbSymbolTableRecord
100
AcDbLayerTableRecord
  2
theirs
 70
     0
 62
     2
  6
CONTINUOUS
370
    -3
390
10003
347
10045
348
0
1001
AcAecLayerStandard
1000

1000

  0
ENDTAB
  0
TABLE
  2
STYLE
  5
70
330
0
100
AcDbSymbolTable
 70
     2
  0
STYLE
  5
71
330
70
100
AcDbSymbolTableRecord
100
AcDbTextStyleTableRecord
  2
STANDARD
 70
     0
 40
0.0
 41
1.0
 50
0.0
 71
     0
 42
2.5
  3
arial.ttf
  4

  0
STYLE
  5
72
330
70
100
AcDbSymbolTableRecord
100
AcDbTextStyleTableRecord
  2
ANNOTATIVE
 70
     0
 40
0.0
 41
1.0
 50
0.0
 71
     0
 42
2.5
  3
arial.ttf
  4

  0
ENDTAB
  0
TABLE
  2
VIEW
  5
73
330
0
100
AcDbSymbolTable
 70
     0
  0
ENDTAB
  0
TABLE
  2
UCS
  5
74
330
0
100
AcDbSymbolTable
 70
     0
  0
ENDTAB
  0
TABLE
  2
APPID
  5
75
330
0
100
AcDbSymbolTable
 70
     3
  0
APPID
  5
76
330
75
100
AcDbSymbolTableRecord
100
AcDbRegAppTableRecord
  2
ACAD
 70
     0
  0
APPID
  5
77
330
75
100
AcDbSymbolTableRecord
100
AcDbRegAppTableRecord
  2
ACADANNOTATIVE
 70
     0
  0
APPID
  5
104C8
330
75
100
AcDbSymbolTableRecord
100
AcDbRegAppTableRecord
  2
AcAecLayerStandard
 70
     0
  0
ENDTAB
  0
TABLE
  2
DIMSTYLE
  5
78
330
0
100
AcDbSymbolTable
 70
     1
100
AcDbDimStyleTable
  0
DIMSTYLE
105
79
330
78
100
AcDbSymbolTableRecord
100
AcDbDimStyleTableRecord
  2
STANDARD
 70
     0
 40
0.0
 41
2.5
 42
0.625
 43
3.75
 44
1.25
 73
     0
 74
     0
 77
     1
 78
     8
140
2.5
141
2.5
143
0.03937007874016
147
0.625
171
     3
172
     1
178
     0
271
     2
272
     2
274
     3
283
     0
284
     8
340
71
  0
ENDTAB
  0
TABLE
  2
BLOCK_RECORD
  5
A01
330
0
100
AcDbSymbolTable
 70
     3
  0
BLOCK_RECORD
  5
A02
330
A01
100
AcDbSymbolTableRecord
100
AcDbBlockTableRecord
  2
*MODEL_SPACE
340
10027
 70
     0
280
     1
281
     0
  0
BLOCK_RECORD
  5
A03
330
A01
100
AcDbSymbolTableRecord
100
AcDbBlockTableRecord
  2
*PAPER_SPACE
340
10028
 70
     0
280
     1
281
     0
  0
BLOCK_RECORD
  5
105E2
330
A01
100
AcDbSymbolTableRecord
100
AcDbBlockTableRecord
  2
*D0
340
0
 70
     0
280
     1
281
     0
  0
BLOCK_RECORD
  5
10655
330
A01
100
AcDbSymbolTableRecord
100
AcDbBlockTableRecord
  2
*D1
340
0
 70
     0
280
     1
281
     0
  0
BLOCK_RECORD
  5
10665
330
A01
100
AcDbSymbolTableRecord
100
AcDbBlockTableRecord
  2
*D2
340
0
 70
     0
280
     1
281
     0
  0
ENDTAB
  0
ENDSEC
  0
SECTION
  2
BLOCKS
  0
BLOCK
  5
A04
330
A02
100
AcDbEntity
  8
0
100
AcDbBlockBegin
  2
*MODEL_SPACE
 70
     0
 10
0.0
 20
0.0
 30
0.0
  3
*MODEL_SPACE
  1
 
  0
ENDBLK
  5
A05
330
A02
100
AcDbEntity
  8
0
100
AcDbBlockEnd
  0
BLOCK
  5
A06
330
A03
100
AcDbEntity
 67
     1
  8
0
100
AcDbBlockBegin
  2
*PAPER_SPACE
 70
     0
 10
0.0
 20
0.0
 30
0.0
  3
*PAPER_SPACE
  1
 
  0
ENDBLK
  5
A07
330
A03
100
AcDbEntity
 67
     1
  8
0
100
AcDbBlockEnd
  0
BLOCK
  5
105E3
330
105E2
100
AcDbEntity
  8
0
100
AcDbBlockBegin
  2
*D0
 70
     1
 10
0.0
 20
0.0
 30
0.0
  3
*D0
  1

  0
LINE
  5
105E5
330
105E2
100
AcDbEntity
  8
theirs
  6
ByBlock
 62
     0
370
    -2
100
AcDbLine
 10
570.5535539953078
 20
180.0099522803273
 30
0.0
 11
574.9087303292475
 21
180.0099522803273
 31
0.0
  0
LINE
  5
105E6
330
105E2
100
AcDbEntity
  8
theirs
  6
ByBlock
 62
     0
370
    -2
100
AcDbLine
 10
569.0535539953079
 20
181.5098772803273
 30
0.0
 11
574.9087303292475
 21
181.5098772803273
 31
0.0
  0
LINE
  5
105E7
330
105E2
100
AcDbEntity
  8
theirs
  6
ByBlock
 62
     0
370
    -2
100
AcDbLine
 10
574.7287303292476
 20
180.1899522803273
 30
0.0
 11
574.7287303292476
 21
180.5799147803273
 31
0.0
  0
LINE
  5
105E8
330
105E2
100
AcDbEntity
  8
theirs
  6
ByBlock
 62
     0
370
    -2
100
AcDbLine
 10
574.7287303292476
 20
181.3298772803273
 30
0.0
 11
574.7287303292476
 21
180.9399147803273
 31
0.0
  0
SOLID
  5
105E9
330
105E2
100
AcDbEntity
  8
theirs
 62
     0
100
AcDbTrace
 10
574.6987303292476
 20
180.1899522803273
 30
0.0
 11
574.7587303292476
 21
180.1899522803273
 31
0.0
 12
574.7287303292476
 22
180.0099522803273
 32
0.0
 13
574.7287303292476
 23
180.0099522803273
 33
0.0
  0
SOLID
  5
105EA
330
105E2
100
AcDbEntity
  8
theirs
 62
     0
100
AcDbTrace
 10
574.7587303292476
 20
181.3298772803273
 30
0.0
 11
574.6987303292476
 21
181.3298772803273
 31
0.0
 12
574.7287303292476
 22
181.5098772803273
 32
0.0
 13
574.7287303292476
 23
181.5098772803273
 33
0.0
  0
MTEXT
  5
105EB
330
105E2
100
AcDbEntity
  8
theirs
  6
ByBlock
 62
     0
100
AcDbMText
 10
574.7287303292476
 20
180.7599147803273
 30
0.0
 40
0.18
 41
0.0
 46
0.0
 71
     5
 72
     1
  1
\A1;1.4999
 73
     1
 44
1.0
  0
POINT
  5
105EC
330
105E2
100
AcDbEntity
  8
Defpoints
 62
     0
100
AcDbPoint
 10
570.4910539953078
 20
180.0099522803273
 30
0.0
  0
POINT
  5
105ED
330
105E2
100
AcDbEntity
  8
Defpoints
 62
     0
100
AcDbPoint
 10
568.9910539953079
 20
181.5098772803273
 30
0.0
  0
POINT
  5
105EE
330
105E2
100
AcDbEntity
  8
Defpoints
 62
     0
100
AcDbPoint
 10
574.7287303292476
 20
181.5098772803273
 30
0.0
  0
ENDBLK
  5
105E4
330
105E2
100
AcDbEntity
  8
0
100
AcDbBlockEnd
  0
BLOCK
  5
10656
330
10655
100
AcDbEntity
  8
0
100
AcDbBlockBegin
  2
*D1
 70
     1
 10
0.0
 20
0.0
 30
0.0
  3
*D1
  1

  0
LINE
  5
10658
330
10655
100
AcDbEntity
  8
pcb
  6
ByBlock
 62
     0
370
    -2
100
AcDbLine
 10
-58.00004999999999
 20
11.93735000000002
 30
0.0
 11
-58.00004999999999
 21
8.256650954959165
 31
0.0
  0
LINE
  5
10659
330
10655
100
AcDbEntity
  8
pcb
  6
ByBlock
 62
     0
370
    -2
100
AcDbLine
 10
-12.0000500000001
 20
11.93735000000002
 30
0.0
 11
-12.0000500000001
 21
8.256650954959165
 31
0.0
  0
LINE
  5
1065A
330
10655
100
AcDbEntity
  8
pcb
  6
ByBlock
 62
     0
370
    -2
100
AcDbLine
 10
-57.82004999999999
 20
8.436650954959164
 30
0.0
 11
-35.62147857142861
 21
8.436650954959164
 31
0.0
  0
LINE
  5
1065B
330
10655
100
AcDbEntity
  8
pcb
  6
ByBlock
 62
     0
370
    -2
100
AcDbLine
 10
-12.1800500000001
 20
8.436650954959164
 30
0.0
 11
-34.37862142857146
 21
8.436650954959164
 31
0.0
  0
SOLID
  5
1065C
330
10655
100
AcDbEntity
  8
pcb
 62
     0
100
AcDbTrace
 10
-57.82004999999999
 20
8.466650954959164
 30
0.0
 11
-57.82004999999999
 21
8.406650954959165
 31
0.0
 12
-58.00004999999999
 22
8.436650954959164
 32
0.0
 13
-58.00004999999999
 23
8.436650954959164
 33
0.0
  0
SOLID
  5
1065D
330
10655
100
AcDbEntity
  8
pcb
 62
     0
100
AcDbTrace
 10
-12.1800500000001
 20
8.406650954959165
 30
0.0
 11
-12.1800500000001
 21
8.466650954959164
 31
0.0
 12
-12.0000500000001
 22
8.436650954959164
 32
0.0
 13
-12.0000500000001
 23
8.436650954959164
 33
0.0
  0
MTEXT
  5
1065E
330
10655
100
AcDbEntity
  8
pcb
  6
ByBlock
 62
     0
100
AcDbMText
 10
-35.00005000000004
 20
8.436650954959164
 30
0.0
 40
0.18
 41
0.0
 46
0.0
 71
     5
 72
     1
  1
\A1;46.0000
 73
     1
 44
1.0
  0
POINT
  5
1065F
330
10655
100
AcDbEntity
  8
Defpoints
 62
     0
100
AcDbPoint
 10
-58.00004999999999
 20
11.99985000000002
 30
0.0
  0
POINT
  5
10660
330
10655
100
AcDbEntity
  8
Defpoints
 62
     0
100
AcDbPoint
 10
-12.0000500000001
 20
11.99985000000002
 30
0.0
  0
POINT
  5
10661
330
10655
100
AcDbEntity
  8
Defpoints
 62
     0
100
AcDbPoint
 10
-12.0000500000001
 20
8.436650954959164
 30
0.0
  0
ENDBLK
  5
10657
330
10655
100
AcDbEntity
  8
0
100
AcDbBlockEnd
  0
BLOCK
  5
10666
330
10665
100
AcDbEntity
  8
0
100
AcDbBlockBegin
  2
*D2
 70
     1
 10
0.0
 20
0.0
 30
0.0
  3
*D2
  1

  0
LINE
  5
10668
330
10665
100
AcDbEntity
  8
pcb
  6
ByBlock
 62
     0
370
    -2
100
AcDbLine
 10
-59.50004999999999
 20
10.43735000000002
 30
0.0
 11
-59.50004999999999
 21
7.168186834839501
 31
0.0
  0
LINE
  5
10669
330
10665
100
AcDbEntity
  8
pcb
  6
ByBlock
 62
     0
370
    -2
100
AcDbLine
 10
-10.5000500000001
 20
10.43765000000003
 30
0.0
 11
-10.5000500000001
 21
7.168186834839501
 31
0.0
  0
LINE
  5
1066A
330
10665
100
AcDbEntity
  8
pcb
  6
ByBlock
 62
     0
370
    -2
100
AcDbLine
 10
-59.32004999999999
 20
7.348186834839501
 30
0.0
 11
-35.62147857142861
 21
7.348186834839501
 31
0.0
  0
LINE
  5
1066B
330
10665
100
AcDbEntity
  8
pcb
  6
ByBlock
 62
     0
370
    -2
100
AcDbLine
 10
-10.6800500000001
 20
7.348186834839501
 30
0.0
 11
-34.37862142857146
 21
7.348186834839501
 31
0.0
  0
SOLID
  5
1066C
330
10665
100
AcDbEntity
  8
pcb
 62
     0
100
AcDbTrace
 10
-59.32004999999999
 20
7.378186834839501
 30
0.0
 11
-59.32004999999999
 21
7.3181868348395
 31
0.0
 12
-59.50004999999999
 22
7.348186834839501
 32
0.0
 13
-59.50004999999999
 23
7.348186834839501
 33
0.0
  0
SOLID
  5
1066D
330
10665
100
AcDbEntity
  8
pcb
 62
     0
100
AcDbTrace
 10
-10.6800500000001
 20
7.3181868348395
 30
0.0
 11
-10.6800500000001
 21
7.378186834839501
 31
0.0
 12
-10.5000500000001
 22
7.348186834839501
 32
0.0
 13
-10.5000500000001
 23
7.348186834839501
 33
0.0
  0
MTEXT
  5
1066E
330
10665
100
AcDbEntity
  8
pcb
  6
ByBlock
 62
     0
100
AcDbMText
 10
-35.00005000000004
 20
7.348186834839501
 30
0.0
 40
0.18
 41
0.0
 46
0.0
 71
     5
 72
     1
  1
\A1;49.0000
 73
     1
 44
1.0
  0
POINT
  5
1066F
330
10665
100
AcDbEntity
  8
Defpoints
 62
     0
100
AcDbPoint
 10
-59.50004999999999
 20
10.49985000000002
 30
0.0
  0
POINT
  5
10670
330
10665
100
AcDbEntity
  8
Defpoints
 62
     0
100
AcDbPoint
 10
-10.5000500000001
 20
10.50015000000003
 30
0.0
  0
POINT
  5
10671
330
10665
100
AcDbEntity
  8
Defpoints
 62
     0
100
AcDbPoint
 10
-10.5000500000001
 20
7.348186834839501
 30
0.0
  0
ENDBLK
  5
10667
330
10665
100
AcDbEntity
  8
0
100
AcDbBlockEnd
  0
ENDSEC
  0
SECTION
  2
ENTITIES
  0
LINE
  5
A08
330
A02
100
AcDbEntity
  8
ProjItem
100
AcDbLine
 10
911.3491543535408
 20
549.4988346742108
 30
0.0
 11
936.7491543535409
 21
549.4988346742108
 31
0.0
  0
LINE
  5
A09
330
A02
100
AcDbEntity
  8
ProjItem
100
AcDbLine
 10
911.3491543535408
 20
574.8988346742108
 30
0.0
 11
911.3491543535408
 21
549.4988346742108
 31
0.0
  0
LINE
  5
A0A
330
A02
100
AcDbEntity
  8
ProjItem
100
AcDbLine
 10
936.7491543535409
 20
549.4988346742108
 30
0.0
 11
936.7491543535409
 21
574.8988346742108
 31
0.0
  0
LINE
  5
A0B
330
A02
100
AcDbEntity
  8
ProjItem
100
AcDbLine
 10
936.7491543535409
 20
574.8988346742108
 30
0.0
 11
911.3491543535408
 21
574.8988346742108
 31
0.0
  0
CIRCLE
  5
A0C
330
A02
100
AcDbEntity
  8
ProjItem
100
AcDbCircle
 10
912.3491543535408
 20
551.1988346742107
 30
0.0
 40
0.4
  0
CIRCLE
  5
A0D
330
A02
100
AcDbEntity
  8
ProjItem
100
AcDbCircle
 10
912.3491543535408
 20
553.1988346742107
 30
0.0
 40
0.4
  0
CIRCLE
  5
A0E
330
A02
100
AcDbEntity
  8
ProjItem
100
AcDbCircle
 10
914.5991543535408
 20
553.9488346742107
 30
0.0
 40
0.78
  0
CIRCLE
  5
A0F
330
A02
100
AcDbEntity
  8
ProjItem
100
AcDbCircle
 10
912.3491543535408
 20
555.1988346742107
 30
0.0
 40
0.4
  0
CIRCLE
  5
A10
330
A02
100
AcDbEntity
  8
ProjItem
100
AcDbCircle
 10
922.7991543535409
 20
551.1988346742107
 30
0.0
 40
0.78
  0
CIRCLE
  5
A11
330
A02
100
AcDbEntity
  8
ProjItem
100
AcDbCircle
 10
912.3491543535408
 20
557.1988346742107
 30
0.0
 40
0.4
  0
CIRCLE
  5
A12
330
A02
100
AcDbEntity
  8
ProjItem
100
AcDbCircle
 10
914.5991543535408
 20
556.4488346742107
 30
0.0
 40
0.78
  0
CIRCLE
  5
A13
330
A02
100
AcDbEntity
  8
ProjItem
100
AcDbCircle
 10
912.3491543535408
 20
559.1988346742107
 30
0.0
 40
0.4
  0
CIRCLE
  5
A14
330
A02
100
AcDbEntity
  8
ProjItem
100
AcDbCircle
 10
912.3491543535408
 20
561.1988346742107
 30
0.0
 40
0.4
  0
CIRCLE
  5
A15
330
A02
100
AcDbEntity
  8
ProjItem
100
AcDbCircle
 10
914.5991543535408
 20
560.9488346742107
 30
0.0
 40
0.78
  0
CIRCLE
  5
A16
330
A02
100
AcDbEntity
  8
ProjItem
100
AcDbCircle
 10
925.2991543535409
 20
551.1988346742107
 30
0.0
 40
0.78
  0
CIRCLE
  5
A17
330
A02
100
AcDbEntity
  8
ProjItem
100
AcDbCircle
 10
935.7491543535409
 20
551.1988346742107
 30
0.0
 40
0.4
  0
CIRCLE
  5
A18
330
A02
100
AcDbEntity
  8
ProjItem
100
AcDbCircle
 10
935.7491543535409
 20
553.1988346742107
 30
0.0
 40
0.4
  0
CIRCLE
  5
A19
330
A02
100
AcDbEntity
  8
ProjItem
100
AcDbCircle
 10
933.4991543535409
 20
553.9488346742107
 30
0.0
 40
0.78
  0
CIRCLE
  5
A1A
330
A02
100
AcDbEntity
  8
ProjItem
100
AcDbCircle
 10
935.7491543535409
 20
555.1988346742107
 30
0.0
 40
0.4
  0
CIRCLE
  5
A1B
330
A02
100
AcDbEntity
  8
ProjItem
100
AcDbCircle
 10
933.4991543535409
 20
556.4488346742107
 30
0.0
 40
0.78
  0
CIRCLE
  5
A1C
330
A02
100
AcDbEntity
  8
ProjItem
100
AcDbCircle
 10
935.7491543535409
 20
557.1988346742107
 30
0.0
 40
0.4
  0
CIRCLE
  5
A1D
330
A02
100
AcDbEntity
  8
ProjItem
100
AcDbCircle
 10
935.7491543535409
 20
559.1988346742107
 30
0.0
 40
0.4
  0
CIRCLE
  5
A1E
330
A02
100
AcDbEntity
  8
ProjItem
100
AcDbCircle
 10
933.4991543535409
 20
560.9488346742107
 30
0.0
 40
0.78
  0
CIRCLE
  5
A1F
330
A02
100
AcDbEntity
  8
ProjItem
100
AcDbCircle
 10
935.7491543535409
 20
561.1988346742107
 30
0.0
 40
0.4
  0
CIRCLE
  5
A20
330
A02
100
AcDbEntity
  8
ProjItem
100
AcDbCircle
 10
912.3491543535408
 20
563.1988346742107
 30
0.0
 40
0.4
  0
CIRCLE
  5
A21
330
A02
100
AcDbEntity
  8
ProjItem
100
AcDbCircle
 10
914.5991543535408
 20
563.4488346742107
 30
0.0
 40
0.78
  0
CIRCLE
  5
A22
330
A02
100
AcDbEntity
  8
ProjItem
100
AcDbCircle
 10
912.3491543535408
 20
565.1988346742107
 30
0.0
 40
0.4
  0
CIRCLE
  5
A23
330
A02
100
AcDbEntity
  8
ProjItem
100
AcDbCircle
 10
912.3491543535408
 20
567.1988346742107
 30
0.0
 40
0.4
  0
CIRCLE
  5
A24
330
A02
100
AcDbEntity
  8
ProjItem
100
AcDbCircle
 10
914.5991543535408
 20
567.9488346742107
 30
0.0
 40
0.78
  0
CIRCLE
  5
A25
330
A02
100
AcDbEntity
  8
ProjItem
100
AcDbCircle
 10
912.3491543535408
 20
569.1988346742107
 30
0.0
 40
0.4
  0
CIRCLE
  5
A26
330
A02
100
AcDbEntity
  8
ProjItem
100
AcDbCircle
 10
914.5991543535408
 20
570.4488346742107
 30
0.0
 40
0.78
  0
CIRCLE
  5
A27
330
A02
100
AcDbEntity
  8
ProjItem
100
AcDbCircle
 10
912.3491543535408
 20
571.1988346742107
 30
0.0
 40
0.4
  0
CIRCLE
  5
A28
330
A02
100
AcDbEntity
  8
ProjItem
100
AcDbCircle
 10
912.3491543535408
 20
573.1988346742107
 30
0.0
 40
0.4
  0
CIRCLE
  5
A29
330
A02
100
AcDbEntity
  8
ProjItem
100
AcDbCircle
 10
922.7991543535409
 20
573.1988346742107
 30
0.0
 40
0.78
  0
LINE
  5
A2A
330
A02
100
AcDbEntity
  8
ProjItem
100
AcDbLine
 10
916.0491543535409
 20
568.6988346742107
 30
0.0
 11
916.0491543535409
 21
555.6988346742107
 31
0.0
  0
ARC
  5
A2B
330
A02
100
AcDbEntity
  8
ProjItem
100
AcDbCircle
 10
917.5491543535409
 20
568.6988346742107
 30
0.0
 40
1.5
100
AcDbArc
 50
90.0
 51
180.0
  0
LINE
  5
A2C
330
A02
100
AcDbEntity
  8
ProjItem
100
AcDbLine
 10
930.5491543535409
 20
570.1988346742107
 30
0.0
 11
917.5491543535409
 21
570.1988346742107
 31
0.0
  0
ARC
  5
A2D
330
A02
100
AcDbEntity
  8
ProjItem
100
AcDbCircle
 10
930.5491543535409
 20
568.6988346742107
 30
0.0
 40
1.5
100
AcDbArc
 50
0.0
 51
90.0
  0
LINE
  5
A2E
330
A02
100
AcDbEntity
  8
ProjItem
100
AcDbLine
 10
932.0491543535409
 20
555.6988346742107
 30
0.0
 11
932.0491543535409
 21
568.6988346742107
 31
0.0
  0
ARC
  5
A2F
330
A02
100
AcDbEntity
  8
ProjItem
100
AcDbCircle
 10
930.5491543535409
 20
555.6988346742107
 30
0.0
 40
1.5
100
AcDbArc
 50
270.0
 51
0.0
  0
LINE
  5
A30
330
A02
100
AcDbEntity
  8
ProjItem
100
AcDbLine
 10
917.5491543535409
 20
554.1988346742107
 30
0.0
 11
930.5491543535409
 21
554.1988346742107
 31
0.0
  0
ARC
  5
A31
330
A02
100
AcDbEntity
  8
ProjItem
100
AcDbCircle
 10
917.5491543535409
 20
555.6988346742107
 30
0.0
 40
1.5
100
AcDbArc
 50
180.0
 51
270.0
  0
CIRCLE
  5
A32
330
A02
100
AcDbEntity
  8
ProjItem
100
AcDbCircle
 10
933.4991543535409
 20
563.4488346742107
 30
0.0
 40
0.78
  0
CIRCLE
  5
A33
330
A02
100
AcDbEntity
  8
ProjItem
100
AcDbCircle
 10
935.7491543535409
 20
563.1988346742107
 30
0.0
 40
0.4
  0
CIRCLE
  5
A34
330
A02
100
AcDbEntity
  8
ProjItem
100
AcDbCircle
 10
935.7491543535409
 20
565.1988346742107
 30
0.0
 40
0.4
  0
CIRCLE
  5
A35
330
A02
100
AcDbEntity
  8
ProjItem
100
AcDbCircle
 10
933.4991543535409
 20
567.9488346742107
 30
0.0
 40
0.78
  0
CIRCLE
  5
A36
330
A02
100
AcDbEntity
  8
ProjItem
100
AcDbCircle
 10
935.7491543535409
 20
567.1988346742107
 30
0.0
 40
0.4
  0
CIRCLE
  5
A37
330
A02
100
AcDbEntity
  8
ProjItem
100
AcDbCircle
 10
925.2991543535409
 20
573.1988346742107
 30
0.0
 40
0.78
  0
CIRCLE
  5
A38
330
A02
100
AcDbEntity
  8
ProjItem
100
AcDbCircle
 10
935.7491543535409
 20
569.1988346742107
 30
0.0
 40
0.4
  0
CIRCLE
  5
A39
330
A02
100
AcDbEntity
  8
ProjItem
100
AcDbCircle
 10
933.4991543535409
 20
570.4488346742107
 30
0.0
 40
0.78
  0
CIRCLE
  5
A3A
330
A02
100
AcDbEntity
  8
ProjItem
100
AcDbCircle
 10
935.7491543535409
 20
571.1988346742107
 30
0.0
 40
0.4
  0
CIRCLE
  5
A3B
330
A02
100
AcDbEntity
  8
ProjItem
100
AcDbCircle
 10
935.7491543535409
 20
573.1988346742107
 30
0.0
 40
0.4
  0
LINE
  5
A3C
330
A02
100
AcDbEntity
  8
ProjItem
100
AcDbLine
 10
806.3490543535409
 20
665.4993346742108
 30
0.0
 11
831.7490543535408
 21
665.4993346742108
 31
0.0
  0
LINE
  5
A3D
330
A02
100
AcDbEntity
  8
ProjItem
100
AcDbLine
 10
806.3490543535409
 20
690.8993346742108
 30
0.0
 11
806.3490543535409
 21
665.4993346742108
 31
0.0
  0
LINE
  5
A3E
330
A02
100
AcDbEntity
  8
ProjItem
100
AcDbLine
 10
831.7490543535408
 20
665.4993346742108
 30
0.0
 11
831.7490543535408
 21
690.8993346742108
 31
0.0
  0
LINE
  5
A3F
330
A02
100
AcDbEntity
  8
ProjItem
100
AcDbLine
 10
831.7490543535408
 20
690.8993346742108
 30
0.0
 11
806.3490543535409
 21
690.8993346742108
 31
0.0
  0
CIRCLE
  5
A40
330
A02
100
AcDbEntity
  8
ProjItem
100
AcDbCircle
 10
807.3490543535409
 20
667.1993346742108
 30
0.0
 40
0.4
  0
CIRCLE
  5
A41
330
A02
100
AcDbEntity
  8
ProjItem
100
AcDbCircle
 10
807.3490543535409
 20
669.1993346742108
 30
0.0
 40
0.4
  0
CIRCLE
  5
A42
330
A02
100
AcDbEntity
  8
ProjItem
100
AcDbCircle
 10
809.5990543535409
 20
669.9493346742108
 30
0.0
 40
0.78
  0
CIRCLE
  5
A43
330
A02
100
AcDbEntity
  8
ProjItem
100
AcDbCircle
 10
807.3490543535409
 20
671.1993346742108
 30
0.0
 40
0.4
  0
CIRCLE
  5
A44
330
A02
100
AcDbEntity
  8
ProjItem
100
AcDbCircle
 10
817.7990543535409
 20
667.1993346742108
 30
0.0
 40
0.78
  0
CIRCLE
  5
A45
330
A02
100
AcDbEntity
  8
ProjItem
100
AcDbCircle
 10
807.3490543535409
 20
673.1993346742108
 30
0.0
 40
0.4
  0
CIRCLE
  5
A46
330
A02
100
AcDbEntity
  8
ProjItem
100
AcDbCircle
 10
809.5990543535409
 20
672.4493346742108
 30
0.0
 40
0.78
  0
CIRCLE
  5
A47
330
A02
100
AcDbEntity
  8
ProjItem
100
AcDbCircle
 10
807.3490543535409
 20
675.1993346742108
 30
0.0
 40
0.4
  0
CIRCLE
  5
A48
330
A02
100
AcDbEntity
  8
ProjItem
100
AcDbCircle
 10
807.3490543535409
 20
677.1993346742108
 30
0.0
 40
0.4
  0
CIRCLE
  5
A49
330
A02
100
AcDbEntity
  8
ProjItem
100
AcDbCircle
 10
809.5990543535409
 20
676.9493346742108
 30
0.0
 40
0.78
  0
CIRCLE
  5
A4A
330
A02
100
AcDbEntity
  8
ProjItem
100
AcDbCircle
 10
820.2990543535409
 20
667.1993346742108
 30
0.0
 40
0.78
  0
CIRCLE
  5
A4B
330
A02
100
AcDbEntity
  8
ProjItem
100
AcDbCircle
 10
830.7490543535408
 20
667.1993346742108
 30
0.0
 40
0.4
  0
CIRCLE
  5
A4C
330
A02
100
AcDbEntity
  8
ProjItem
100
AcDbCircle
 10
830.7490543535408
 20
669.1993346742108
 30
0.0
 40
0.4
  0
CIRCLE
  5
A4D
330
A02
100
AcDbEntity
  8
ProjItem
100
AcDbCircle
 10
828.4990543535408
 20
669.9493346742108
 30
0.0
 40
0.78
  0
CIRCLE
  5
A4E
330
A02
100
AcDbEntity
  8
ProjItem
100
AcDbCircle
 10
830.7490543535408
 20
671.1993346742108
 30
0.0
 40
0.4
  0
CIRCLE
  5
A4F
330
A02
100
AcDbEntity
  8
ProjItem
100
AcDbCircle
 10
828.4990543535408
 20
672.4493346742108
 30
0.0
 40
0.78
  0
CIRCLE
  5
A50
330
A02
100
AcDbEntity
  8
ProjItem
100
AcDbCircle
 10
830.7490543535408
 20
673.1993346742108
 30
0.0
 40
0.4
  0
CIRCLE
  5
A51
330
A02
100
AcDbEntity
  8
ProjItem
100
AcDbCircle
 10
830.7490543535408
 20
675.1993346742108
 30
0.0
 40
0.4
  0
CIRCLE
  5
A52
330
A02
100
AcDbEntity
  8
ProjItem
100
AcDbCircle
 10
828.4990543535408
 20
676.9493346742108
 30
0.0
 40
0.78
  0
CIRCLE
  5
A53
330
A02
100
AcDbEntity
  8
ProjItem
100
AcDbCircle
 10
830.7490543535408
 20
677.1993346742108
 30
0.0
 40
0.4
  0
CIRCLE
  5
A54
330
A02
100
AcDbEntity
  8
ProjItem
100
AcDbCircle
 10
807.3490543535409
 20
679.1993346742108
 30
0.0
 40
0.4
  0
CIRCLE
  5
A55
330
A02
100
AcDbEntity
  8
ProjItem
100
AcDbCircle
 10
809.5990543535409
 20
679.4493346742108
 30
0.0
 40
0.78
  0
CIRCLE
  5
A56
330
A02
100
AcDbEntity
  8
ProjItem
100
AcDbCircle
 10
807.3490543535409
 20
681.1993346742108
 30
0.0
 40
0.4
  0
CIRCLE
  5
A57
330
A02
100
AcDbEntity
  8
ProjItem
100
AcDbCircle
 10
807.3490543535409
 20
683.1993346742108
 30
0.0
 40
0.4
  0
CIRCLE
  5
A58
330
A02
100
AcDbEntity
  8
ProjItem
100
AcDbCircle
 10
809.5990543535409
 20
683.9493346742108
 30
0.0
 40
0.78
  0
CIRCLE
  5
A59
330
A02
100
AcDbEntity
  8
ProjItem
100
AcDbCircle
 10
807.3490543535409
 20
685.1993346742108
 30
0.0
 40
0.4
  0
CIRCLE
  5
A5A
330
A02
100
AcDbEntity
  8
ProjItem
100
AcDbCircle
 10
809.5990543535409
 20
686.4493346742108
 30
0.0
 40
0.78
  0
CIRCLE
  5
A5B
330
A02
100
AcDbEntity
  8
ProjItem
100
AcDbCircle
 10
807.3490543535409
 20
687.1993346742108
 30
0.0
 40
0.4
  0
CIRCLE
  5
A5C
330
A02
100
AcDbEntity
  8
ProjItem
100
AcDbCircle
 10
807.3490543535409
 20
689.1993346742108
 30
0.0
 40
0.4
  0
CIRCLE
  5
A5D
330
A02
100
AcDbEntity
  8
ProjItem
100
AcDbCircle
 10
817.7990543535409
 20
689.1993346742108
 30
0.0
 40
0.78
  0
LINE
  5
A5E
330
A02
100
AcDbEntity
  8
ProjItem
100
AcDbLine
 10
811.0490543535409
 20
684.6993346742108
 30
0.0
 11
811.0490543535409
 21
671.6993346742108
 31
0.0
  0
ARC
  5
A5F
330
A02
100
AcDbEntity
  8
ProjItem
100
AcDbCircle
 10
812.5490543535409
 20
684.6993346742108
 30
0.0
 40
1.5
100
AcDbArc
 50
90.0
 51
180.0
  0
LINE
  5
A60
330
A02
100
AcDbEntity
  8
ProjItem
100
AcDbLine
 10
825.5490543535409
 20
686.1993346742108
 30
0.0
 11
812.5490543535409
 21
686.1993346742108
 31
0.0
  0
ARC
  5
A61
330
A02
100
AcDbEntity
  8
ProjItem
100
AcDbCircle
 10
825.5490543535409
 20
684.6993346742108
 30
0.0
 40
1.5
100
AcDbArc
 50
0.0
 51
90.0
  0
LINE
  5
A62
330
A02
100
AcDbEntity
  8
ProjItem
100
AcDbLine
 10
827.0490543535409
 20
671.6993346742108
 30
0.0
 11
827.0490543535409
 21
684.6993346742108
 31
0.0
  0
ARC
  5
A63
330
A02
100
AcDbEntity
  8
ProjItem
100
AcDbCircle
 10
825.5490543535409
 20
671.6993346742108
 30
0.0
 40
1.5
100
AcDbArc
 50
270.0
 51
0.0
  0
LINE
  5
A64
330
A02
100
AcDbEntity
  8
ProjItem
100
AcDbLine
 10
812.5490543535409
 20
670.1993346742108
 30
0.0
 11
825.5490543535409
 21
670.1993346742108
 31
0.0
  0
ARC
  5
A65
330
A02
100
AcDbEntity
  8
ProjItem
100
AcDbCircle
 10
812.5490543535409
 20
671.6993346742108
 30
0.0
 40
1.5
100
AcDbArc
 50
180.0
 51
270.0
  0
CIRCLE
  5
A66
330
A02
100
AcDbEntity
  8
ProjItem
100
AcDbCircle
 10
828.4990543535408
 20
679.4493346742108
 30
0.0
 40
0.78
  0
CIRCLE
  5
A67
330
A02
100
AcDbEntity
  8
ProjItem
100
AcDbCircle
 10
830.7490543535408
 20
679.1993346742108
 30
0.0
 40
0.4
  0
CIRCLE
  5
A68
330
A02
100
AcDbEntity
  8
ProjItem
100
AcDbCircle
 10
830.7490543535408
 20
681.1993346742108
 30
0.0
 40
0.4
  0
CIRCLE
  5
A69
330
A02
100
AcDbEntity
  8
ProjItem
100
AcDbCircle
 10
828.4990543535408
 20
683.9493346742108
 30
0.0
 40
0.78
  0
CIRCLE
  5
A6A
330
A02
100
AcDbEntity
  8
ProjItem
100
AcDbCircle
 10
830.7490543535408
 20
683.1993346742108
 30
0.0
 40
0.4
  0
CIRCLE
  5
A6B
330
A02
100
AcDbEntity
  8
ProjItem
100
AcDbCircle
 10
820.2990543535409
 20
689.1993346742108
 30
0.0
 40
0.78
  0
CIRCLE
  5
A6C
330
A02
100
AcDbEntity
  8
ProjItem
100
AcDbCircle
 10
830.7490543535408
 20
685.1993346742108
 30
0.0
 40
0.4
  0
CIRCLE
  5
A6D
330
A02
100
AcDbEntity
  8
ProjItem
100
AcDbCircle
 10
828.4990543535408
 20
686.4493346742108
 30
0.0
 40
0.78
  0
CIRCLE
  5
A6E
330
A02
100
AcDbEntity
  8
ProjItem
100
AcDbCircle
 10
830.7490543535408
 20
687.1993346742108
 30
0.0
 40
0.4
  0
CIRCLE
  5
A6F
330
A02
100
AcDbEntity
  8
ProjItem
100
AcDbCircle
 10
830.7490543535408
 20
689.1993346742108
 30
0.0
 40
0.4
  0
LINE
  5
A70
330
A02
100
AcDbEntity
  8
ProjItem
100
AcDbLine
 10
806.3490543535409
 20
549.4988346742108
 30
0.0
 11
831.7490543535408
 21
549.4988346742108
 31
0.0
  0
LINE
  5
A71
330
A02
100
AcDbEntity
  8
ProjItem
100
AcDbLine
 10
806.3490543535409
 20
574.8988346742108
 30
0.0
 11
806.3490543535409
 21
549.4988346742108
 31
0.0
  0
LINE
  5
A72
330
A02
100
AcDbEntity
  8
ProjItem
100
AcDbLine
 10
831.7490543535408
 20
549.4988346742108
 30
0.0
 11
831.7490543535408
 21
574.8988346742108
 31
0.0
  0
LINE
  5
A73
330
A02
100
AcDbEntity
  8
ProjItem
100
AcDbLine
 10
831.7490543535408
 20
574.8988346742108
 30
0.0
 11
806.3490543535409
 21
574.8988346742108
 31
0.0
  0
CIRCLE
  5
A74
330
A02
100
AcDbEntity
  8
ProjItem
100
AcDbCircle
 10
807.3490543535409
 20
551.1988346742107
 30
0.0
 40
0.4
  0
CIRCLE
  5
A75
330
A02
100
AcDbEntity
  8
ProjItem
100
AcDbCircle
 10
807.3490543535409
 20
553.1988346742107
 30
0.0
 40
0.4
  0
CIRCLE
  5
A76
330
A02
100
AcDbEntity
  8
ProjItem
100
AcDbCircle
 10
809.5990543535409
 20
553.9488346742107
 30
0.0
 40
0.78
  0
CIRCLE
  5
A77
330
A02
100
AcDbEntity
  8
ProjItem
100
AcDbCircle
 10
807.3490543535409
 20
555.1988346742107
 30
0.0
 40
0.4
  0
CIRCLE
  5
A78
330
A02
100
AcDbEntity
  8
ProjItem
100
AcDbCircle
 10
817.7990543535409
 20
551.1988346742107
 30
0.0
 40
0.78
  0
CIRCLE
  5
A79
330
A02
100
AcDbEntity
  8
ProjItem
100
AcDbCircle
 10
807.3490543535409
 20
557.1988346742107
 30
0.0
 40
0.4
  0
CIRCLE
  5
A7A
330
A02
100
AcDbEntity
  8
ProjItem
100
AcDbCircle
 10
809.5990543535409
 20
556.4488346742107
 30
0.0
 40
0.78
  0
CIRCLE
  5
A7B
330
A02
100
AcDbEntity
  8
ProjItem
100
AcDbCircle
 10
807.3490543535409
 20
559.1988346742107
 30
0.0
 40
0.4
  0
CIRCLE
  5
A7C
330
A02
100
AcDbEntity
  8
ProjItem
100
AcDbCircle
 10
807.3490543535409
 20
561.1988346742107
 30
0.0
 40
0.4
  0
CIRCLE
  5
A7D
330
A02
100
AcDbEntity
  8
ProjItem
100
AcDbCircle
 10
809.5990543535409
 20
560.9488346742107
 30
0.0
 40
0.78
  0
CIRCLE
  5
A7E
330
A02
100
AcDbEntity
  8
ProjItem
100
AcDbCircle
 10
820.2990543535409
 20
551.1988346742107
 30
0.0
 40
0.78
  0
CIRCLE
  5
A7F
330
A02
100
AcDbEntity
  8
ProjItem
100
AcDbCircle
 10
830.7490543535408
 20
551.1988346742107
 30
0.0
 40
0.4
  0
CIRCLE
  5
A80
330
A02
100
AcDbEntity
  8
ProjItem
100
AcDbCircle
 10
830.7490543535408
 20
553.1988346742107
 30
0.0
 40
0.4
  0
CIRCLE
  5
A81
330
A02
100
AcDbEntity
  8
ProjItem
100
AcDbCircle
 10
828.4990543535408
 20
553.9488346742107
 30
0.0
 40
0.78
  0
CIRCLE
  5
A82
330
A02
100
AcDbEntity
  8
ProjItem
100
AcDbCircle
 10
830.7490543535408
 20
555.1988346742107
 30
0.0
 40
0.4
  0
CIRCLE
  5
A83
330
A02
100
AcDbEntity
  8
ProjItem
100
AcDbCircle
 10
828.4990543535408
 20
556.4488346742107
 30
0.0
 40
0.78
  0
CIRCLE
  5
A84
330
A02
100
AcDbEntity
  8
ProjItem
100
AcDbCircle
 10
830.7490543535408
 20
557.1988346742107
 30
0.0
 40
0.4
  0
CIRCLE
  5
A85
330
A02
100
AcDbEntity
  8
ProjItem
100
AcDbCircle
 10
830.7490543535408
 20
559.1988346742107
 30
0.0
 40
0.4
  0
CIRCLE
  5
A86
330
A02
100
AcDbEntity
  8
ProjItem
100
AcDbCircle
 10
828.4990543535408
 20
560.9488346742107
 30
0.0
 40
0.78
  0
CIRCLE
  5
A87
330
A02
100
AcDbEntity
  8
ProjItem
100
AcDbCircle
 10
830.7490543535408
 20
561.1988346742107
 30
0.0
 40
0.4
  0
CIRCLE
  5
A88
330
A02
100
AcDbEntity
  8
ProjItem
100
AcDbCircle
 10
807.3490543535409
 20
563.1988346742107
 30
0.0
 40
0.4
  0
CIRCLE
  5
A89
330
A02
100
AcDbEntity
  8
ProjItem
100
AcDbCircle
 10
809.5990543535409
 20
563.4488346742107
 30
0.0
 40
0.78
  0
CIRCLE
  5
A8A
330
A02
100
AcDbEntity
  8
ProjItem
100
AcDbCircle
 10
807.3490543535409
 20
565.1988346742107
 30
0.0
 40
0.4
  0
CIRCLE
  5
A8B
330
A02
100
AcDbEntity
  8
ProjItem
100
AcDbCircle
 10
807.3490543535409
 20
567.1988346742107
 30
0.0
 40
0.4
  0
CIRCLE
  5
A8C
330
A02
100
AcDbEntity
  8
ProjItem
100
AcDbCircle
 10
809.5990543535409
 20
567.9488346742107
 30
0.0
 40
0.78
  0
CIRCLE
  5
A8D
330
A02
100
AcDbEntity
  8
ProjItem
100
AcDbCircle
 10
807.3490543535409
 20
569.1988346742107
 30
0.0
 40
0.4
  0
CIRCLE
  5
A8E
330
A02
100
AcDbEntity
  8
ProjItem
100
AcDbCircle
 10
809.5990543535409
 20
570.4488346742107
 30
0.0
 40
0.78
  0
CIRCLE
  5
A8F
330
A02
100
AcDbEntity
  8
ProjItem
100
AcDbCircle
 10
807.3490543535409
 20
571.1988346742107
 30
0.0
 40
0.4
  0
CIRCLE
  5
A90
330
A02
100
AcDbEntity
  8
ProjItem
100
AcDbCircle
 10
807.3490543535409
 20
573.1988346742107
 30
0.0
 40
0.4
  0
CIRCLE
  5
A91
330
A02
100
AcDbEntity
  8
ProjItem
100
AcDbCircle
 10
817.7990543535409
 20
573.1988346742107
 30
0.0
 40
0.78
  0
LINE
  5
A92
330
A02
100
AcDbEntity
  8
ProjItem
100
AcDbLine
 10
811.0490543535409
 20
568.6988346742107
 30
0.0
 11
811.0490543535409
 21
555.6988346742107
 31
0.0
  0
ARC
  5
A93
330
A02
100
AcDbEntity
  8
ProjItem
100
AcDbCircle
 10
812.5490543535409
 20
568.6988346742107
 30
0.0
 40
1.5
100
AcDbArc
 50
90.0
 51
180.0
  0
LINE
  5
A94
330
A02
100
AcDbEntity
  8
ProjItem
100
AcDbLine
 10
825.5490543535409
 20
570.1988346742107
 30
0.0
 11
812.5490543535409
 21
570.1988346742107
 31
0.0
  0
ARC
  5
A95
330
A02
100
AcDbEntity
  8
ProjItem
100
AcDbCircle
 10
825.5490543535409
 20
568.6988346742107
 30
0.0
 40
1.5
100
AcDbArc
 50
0.0
 51
90.0
  0
LINE
  5
A96
330
A02
100
AcDbEntity
  8
ProjItem
100
AcDbLine
 10
827.0490543535409
 20
555.6988346742107
 30
0.0
 11
827.0490543535409
 21
568.6988346742107
 31
0.0
  0
ARC
  5
A97
330
A02
100
AcDbEntity
  8
ProjItem
100
AcDbCircle
 10
825.5490543535409
 20
555.6988346742107
 30
0.0
 40
1.5
100
AcDbArc
 50
270.0
 51
0.0
  0
LINE
  5
A98
330
A02
100
AcDbEntity
  8
ProjItem
100
AcDbLine
 10
812.5490543535409
 20
554.1988346742107
 30
0.0
 11
825.5490543535409
 21
554.1988346742107
 31
0.0
  0
ARC
  5
A99
330
A02
100
AcDbEntity
  8
ProjItem
100
AcDbCircle
 10
812.5490543535409
 20
555.6988346742107
 30
0.0
 40
1.5
100
AcDbArc
 50
180.0
 51
270.0
  0
CIRCLE
  5
A9A
330
A02
100
AcDbEntity
  8
ProjItem
100
AcDbCircle
 10
828.4990543535408
 20
563.4488346742107
 30
0.0
 40
0.78
  0
CIRCLE
  5
A9B
330
A02
100
AcDbEntity
  8
ProjItem
100
AcDbCircle
 10
830.7490543535408
 20
563.1988346742107
 30
0.0
 40
0.4
  0
CIRCLE
  5
A9C
330
A02
100
AcDbEntity
  8
ProjItem
100
AcDbCircle
 10
830.7490543535408
 20
565.1988346742107
 30
0.0
 40
0.4
  0
CIRCLE
  5
A9D
330
A02
100
AcDbEntity
  8
ProjItem
100
AcDbCircle
 10
828.4990543535408
 20
567.9488346742107
 30
0.0
 40
0.78
  0
CIRCLE
  5
A9E
330
A02
100
AcDbEntity
  8
ProjItem
100
AcDbCircle
 10
830.7490543535408
 20
567.1988346742107
 30
0.0
 40
0.4
  0
CIRCLE
  5
A9F
330
A02
100
AcDbEntity
  8
ProjItem
100
AcDbCircle
 10
820.2990543535409
 20
573.1988346742107
 30
0.0
 40
0.78
  0
CIRCLE
  5
AA0
330
A02
100
AcDbEntity
  8
ProjItem
100
AcDbCircle
 10
830.7490543535408
 20
569.1988346742107
 30
0.0
 40
0.4
  0
CIRCLE
  5
AA1
330
A02
100
AcDbEntity
  8
ProjItem
100
AcDbCircle
 10
828.4990543535408
 20
570.4488346742107
 30
0.0
 40
0.78
  0
CIRCLE
  5
AA2
330
A02
100
AcDbEntity
  8
ProjItem
100
AcDbCircle
 10
830.7490543535408
 20
571.1988346742107
 30
0.0
 40
0.4
  0
CIRCLE
  5
AA3
330
A02
100
AcDbEntity
  8
ProjItem
100
AcDbCircle
 10
830.7490543535408
 20
573.1988346742107
 30
0.0
 40
0.4
  0
LINE
  5
AA4
330
A02
100
AcDbEntity
  8
ProjItem
100
AcDbLine
 10
911.3491543535408
 20
665.4993346742108
 30
0.0
 11
936.7491543535409
 21
665.4993346742108
 31
0.0
  0
LINE
  5
AA5
330
A02
100
AcDbEntity
  8
ProjItem
100
AcDbLine
 10
911.3491543535408
 20
690.8993346742108
 30
0.0
 11
911.3491543535408
 21
665.4993346742108
 31
0.0
  0
LINE
  5
AA6
330
A02
100
AcDbEntity
  8
ProjItem
100
AcDbLine
 10
936.7491543535409
 20
665.4993346742108
 30
0.0
 11
936.7491543535409
 21
690.8993346742108
 31
0.0
  0
LINE
  5
AA7
330
A02
100
AcDbEntity
  8
ProjItem
100
AcDbLine
 10
936.7491543535409
 20
690.8993346742108
 30
0.0
 11
911.3491543535408
 21
690.8993346742108
 31
0.0
  0
CIRCLE
  5
AA8
330
A02
100
AcDbEntity
  8
ProjItem
100
AcDbCircle
 10
912.3491543535408
 20
667.1993346742108
 30
0.0
 40
0.4
  0
CIRCLE
  5
AA9
330
A02
100
AcDbEntity
  8
ProjItem
100
AcDbCircle
 10
912.3491543535408
 20
669.1993346742108
 30
0.0
 40
0.4
  0
CIRCLE
  5
AAA
330
A02
100
AcDbEntity
  8
ProjItem
100
AcDbCircle
 10
914.5991543535408
 20
669.9493346742108
 30
0.0
 40
0.78
  0
CIRCLE
  5
AAB
330
A02
100
AcDbEntity
  8
ProjItem
100
AcDbCircle
 10
912.3491543535408
 20
671.1993346742108
 30
0.0
 40
0.4
  0
CIRCLE
  5
AAC
330
A02
100
AcDbEntity
  8
ProjItem
100
AcDbCircle
 10
922.7991543535409
 20
667.1993346742108
 30
0.0
 40
0.78
  0
CIRCLE
  5
AAD
330
A02
100
AcDbEntity
  8
ProjItem
100
AcDbCircle
 10
912.3491543535408
 20
673.1993346742108
 30
0.0
 40
0.4
  0
CIRCLE
  5
AAE
330
A02
100
AcDbEntity
  8
ProjItem
100
AcDbCircle
 10
914.5991543535408
 20
672.4493346742108
 30
0.0
 40
0.78
  0
CIRCLE
  5
AAF
330
A02
100
AcDbEntity
  8
ProjItem
100
AcDbCircle
 10
912.3491543535408
 20
675.1993346742108
 30
0.0
 40
0.4
  0
CIRCLE
  5
AB0
330
A02
100
AcDbEntity
  8
ProjItem
100
AcDbCircle
 10
912.3491543535408
 20
677.1993346742108
 30
0.0
 40
0.4
  0
CIRCLE
  5
AB1
330
A02
100
AcDbEntity
  8
ProjItem
100
AcDbCircle
 10
914.5991543535408
 20
676.9493346742108
 30
0.0
 40
0.78
  0
CIRCLE
  5
AB2
330
A02
100
AcDbEntity
  8
ProjItem
100
AcDbCircle
 10
925.2991543535409
 20
667.1993346742108
 30
0.0
 40
0.78
  0
CIRCLE
  5
AB3
330
A02
100
AcDbEntity
  8
ProjItem
100
AcDbCircle
 10
935.7491543535409
 20
667.1993346742108
 30
0.0
 40
0.4
  0
CIRCLE
  5
AB4
330
A02
100
AcDbEntity
  8
ProjItem
100
AcDbCircle
 10
935.7491543535409
 20
669.1993346742108
 30
0.0
 40
0.4
  0
CIRCLE
  5
AB5
330
A02
100
AcDbEntity
  8
ProjItem
100
AcDbCircle
 10
933.4991543535409
 20
669.9493346742108
 30
0.0
 40
0.78
  0
CIRCLE
  5
AB6
330
A02
100
AcDbEntity
  8
ProjItem
100
AcDbCircle
 10
935.7491543535409
 20
671.1993346742108
 30
0.0
 40
0.4
  0
CIRCLE
  5
AB7
330
A02
100
AcDbEntity
  8
ProjItem
100
AcDbCircle
 10
933.4991543535409
 20
672.4493346742108
 30
0.0
 40
0.78
  0
CIRCLE
  5
AB8
330
A02
100
AcDbEntity
  8
ProjItem
100
AcDbCircle
 10
935.7491543535409
 20
673.1993346742108
 30
0.0
 40
0.4
  0
CIRCLE
  5
AB9
330
A02
100
AcDbEntity
  8
ProjItem
100
AcDbCircle
 10
935.7491543535409
 20
675.1993346742108
 30
0.0
 40
0.4
  0
CIRCLE
  5
ABA
330
A02
100
AcDbEntity
  8
ProjItem
100
AcDbCircle
 10
933.4991543535409
 20
676.9493346742108
 30
0.0
 40
0.78
  0
CIRCLE
  5
ABB
330
A02
100
AcDbEntity
  8
ProjItem
100
AcDbCircle
 10
935.7491543535409
 20
677.1993346742108
 30
0.0
 40
0.4
  0
CIRCLE
  5
ABC
330
A02
100
AcDbEntity
  8
ProjItem
100
AcDbCircle
 10
912.3491543535408
 20
679.1993346742108
 30
0.0
 40
0.4
  0
CIRCLE
  5
ABD
330
A02
100
AcDbEntity
  8
ProjItem
100
AcDbCircle
 10
914.5991543535408
 20
679.4493346742108
 30
0.0
 40
0.78
  0
CIRCLE
  5
ABE
330
A02
100
AcDbEntity
  8
ProjItem
100
AcDbCircle
 10
912.3491543535408
 20
681.1993346742108
 30
0.0
 40
0.4
  0
CIRCLE
  5
ABF
330
A02
100
AcDbEntity
  8
ProjItem
100
AcDbCircle
 10
912.3491543535408
 20
683.1993346742108
 30
0.0
 40
0.4
  0
CIRCLE
  5
AC0
330
A02
100
AcDbEntity
  8
ProjItem
100
AcDbCircle
 10
914.5991543535408
 20
683.9493346742108
 30
0.0
 40
0.78
  0
CIRCLE
  5
AC1
330
A02
100
AcDbEntity
  8
ProjItem
100
AcDbCircle
 10
912.3491543535408
 20
685.1993346742108
 30
0.0
 40
0.4
  0
CIRCLE
  5
AC2
330
A02
100
AcDbEntity
  8
ProjItem
100
AcDbCircle
 10
914.5991543535408
 20
686.4493346742108
 30
0.0
 40
0.78
  0
CIRCLE
  5
AC3
330
A02
100
AcDbEntity
  8
ProjItem
100
AcDbCircle
 10
912.3491543535408
 20
687.1993346742108
 30
0.0
 40
0.4
  0
CIRCLE
  5
AC4
330
A02
100
AcDbEntity
  8
ProjItem
100
AcDbCircle
 10
912.3491543535408
 20
689.1993346742108
 30
0.0
 40
0.4
  0
CIRCLE
  5
AC5
330
A02
100
AcDbEntity
  8
ProjItem
100
AcDbCircle
 10
922.7991543535409
 20
689.1993346742108
 30
0.0
 40
0.78
  0
LINE
  5
AC6
330
A02
100
AcDbEntity
  8
ProjItem
100
AcDbLine
 10
916.0491543535409
 20
684.6993346742108
 30
0.0
 11
916.0491543535409
 21
671.6993346742108
 31
0.0
  0
ARC
  5
AC7
330
A02
100
AcDbEntity
  8
ProjItem
100
AcDbCircle
 10
917.5491543535409
 20
684.6993346742108
 30
0.0
 40
1.5
100
AcDbArc
 50
90.0
 51
180.0
  0
LINE
  5
AC8
330
A02
100
AcDbEntity
  8
ProjItem
100
AcDbLine
 10
930.5491543535409
 20
686.1993346742108
 30
0.0
 11
917.5491543535409
 21
686.1993346742108
 31
0.0
  0
ARC
  5
AC9
330
A02
100
AcDbEntity
  8
ProjItem
100
AcDbCircle
 10
930.5491543535409
 20
684.6993346742108
 30
0.0
 40
1.5
100
AcDbArc
 50
0.0
 51
90.0
  0
LINE
  5
ACA
330
A02
100
AcDbEntity
  8
ProjItem
100
AcDbLine
 10
932.0491543535409
 20
671.6993346742108
 30
0.0
 11
932.0491543535409
 21
684.6993346742108
 31
0.0
  0
ARC
  5
ACB
330
A02
100
AcDbEntity
  8
ProjItem
100
AcDbCircle
 10
930.5491543535409
 20
671.6993346742108
 30
0.0
 40
1.5
100
AcDbArc
 50
270.0
 51
0.0
  0
LINE
  5
ACC
330
A02
100
AcDbEntity
  8
ProjItem
100
AcDbLine
 10
917.5491543535409
 20
670.1993346742108
 30
0.0
 11
930.5491543535409
 21
670.1993346742108
 31
0.0
  0
ARC
  5
ACD
330
A02
100
AcDbEntity
  8
ProjItem
100
AcDbCircle
 10
917.5491543535409
 20
671.6993346742108
 30
0.0
 40
1.5
100
AcDbArc
 50
180.0
 51
270.0
  0
CIRCLE
  5
ACE
330
A02
100
AcDbEntity
  8
ProjItem
100
AcDbCircle
 10
933.4991543535409
 20
679.4493346742108
 30
0.0
 40
0.78
  0
CIRCLE
  5
ACF
330
A02
100
AcDbEntity
  8
ProjItem
100
AcDbCircle
 10
935.7491543535409
 20
679.1993346742108
 30
0.0
 40
0.4
  0
CIRCLE
  5
AD0
330
A02
100
AcDbEntity
  8
ProjItem
100
AcDbCircle
 10
935.7491543535409
 20
681.1993346742108
 30
0.0
 40
0.4
  0
CIRCLE
  5
AD1
330
A02
100
AcDbEntity
  8
ProjItem
100
AcDbCircle
 10
933.4991543535409
 20
683.9493346742108
 30
0.0
 40
0.78
  0
CIRCLE
  5
AD2
330
A02
100
AcDbEntity
  8
ProjItem
100
AcDbCircle
 10
935.7491543535409
 20
683.1993346742108
 30
0.0
 40
0.4
  0
CIRCLE
  5
AD3
330
A02
100
AcDbEntity
  8
ProjItem
100
AcDbCircle
 10
925.2991543535409
 20
689.1993346742108
 30
0.0
 40
0.78
  0
CIRCLE
  5
AD4
330
A02
100
AcDbEntity
  8
ProjItem
100
AcDbCircle
 10
935.7491543535409
 20
685.1993346742108
 30
0.0
 40
0.4
  0
CIRCLE
  5
AD5
330
A02
100
AcDbEntity
  8
ProjItem
100
AcDbCircle
 10
933.4991543535409
 20
686.4493346742108
 30
0.0
 40
0.78
  0
CIRCLE
  5
AD6
330
A02
100
AcDbEntity
  8
ProjItem
100
AcDbCircle
 10
935.7491543535409
 20
687.1993346742108
 30
0.0
 40
0.4
  0
CIRCLE
  5
AD7
330
A02
100
AcDbEntity
  8
ProjItem
100
AcDbCircle
 10
935.7491543535409
 20
689.1993346742108
 30
0.0
 40
0.4
  0
LINE
  5
AD8
330
A02
100
AcDbEntity
  8
ProjItem
100
AcDbLine
 10
876.3490543535409
 20
607.4993346742108
 30
0.0
 11
901.7491543535409
 21
607.4993346742108
 31
0.0
  0
LINE
  5
AD9
330
A02
100
AcDbEntity
  8
ProjItem
100
AcDbLine
 10
876.3490543535409
 20
632.8993346742108
 30
0.0
 11
876.3490543535409
 21
607.4993346742108
 31
0.0
  0
LINE
  5
ADA
330
A02
100
AcDbEntity
  8
ProjItem
100
AcDbLine
 10
901.7491543535409
 20
607.4993346742108
 30
0.0
 11
901.7491543535409
 21
632.8993346742108
 31
0.0
  0
LINE
  5
ADB
330
A02
100
AcDbEntity
  8
ProjItem
100
AcDbLine
 10
901.7491543535409
 20
632.8993346742108
 30
0.0
 11
876.3490543535409
 21
632.8993346742108
 31
0.0
  0
CIRCLE
  5
ADC
330
A02
100
AcDbEntity
  8
ProjItem
100
AcDbCircle
 10
877.3490543535409
 20
609.1993346742108
 30
0.0
 40
0.4
  0
CIRCLE
  5
ADD
330
A02
100
AcDbEntity
  8
ProjItem
100
AcDbCircle
 10
877.3490543535409
 20
611.1993346742108
 30
0.0
 40
0.4
  0
CIRCLE
  5
ADE
330
A02
100
AcDbEntity
  8
ProjItem
100
AcDbCircle
 10
879.5990543535409
 20
611.9493346742108
 30
0.0
 40
0.78
  0
CIRCLE
  5
ADF
330
A02
100
AcDbEntity
  8
ProjItem
100
AcDbCircle
 10
877.3490543535409
 20
613.1993346742108
 30
0.0
 40
0.4
  0
CIRCLE
  5
AE0
330
A02
100
AcDbEntity
  8
ProjItem
100
AcDbCircle
 10
887.7990543535409
 20
609.1993346742108
 30
0.0
 40
0.78
  0
CIRCLE
  5
AE1
330
A02
100
AcDbEntity
  8
ProjItem
100
AcDbCircle
 10
877.3490543535409
 20
615.1993346742108
 30
0.0
 40
0.4
  0
CIRCLE
  5
AE2
330
A02
100
AcDbEntity
  8
ProjItem
100
AcDbCircle
 10
879.5990543535409
 20
614.4493346742108
 30
0.0
 40
0.78
  0
CIRCLE
  5
AE3
330
A02
100
AcDbEntity
  8
ProjItem
100
AcDbCircle
 10
877.3490543535409
 20
617.1993346742108
 30
0.0
 40
0.4
  0
CIRCLE
  5
AE4
330
A02
100
AcDbEntity
  8
ProjItem
100
AcDbCircle
 10
877.3490543535409
 20
619.1993346742108
 30
0.0
 40
0.4
  0
CIRCLE
  5
AE5
330
A02
100
AcDbEntity
  8
ProjItem
100
AcDbCircle
 10
879.5990543535409
 20
618.9493346742108
 30
0.0
 40
0.78
  0
CIRCLE
  5
AE6
330
A02
100
AcDbEntity
  8
ProjItem
100
AcDbCircle
 10
890.2991543535409
 20
609.1993346742108
 30
0.0
 40
0.78
  0
CIRCLE
  5
AE7
330
A02
100
AcDbEntity
  8
ProjItem
100
AcDbCircle
 10
900.7491543535409
 20
609.1993346742108
 30
0.0
 40
0.4
  0
CIRCLE
  5
AE8
330
A02
100
AcDbEntity
  8
ProjItem
100
AcDbCircle
 10
900.7491543535409
 20
611.1993346742108
 30
0.0
 40
0.4
  0
CIRCLE
  5
AE9
330
A02
100
AcDbEntity
  8
ProjItem
100
AcDbCircle
 10
898.4991543535409
 20
611.9493346742108
 30
0.0
 40
0.78
  0
CIRCLE
  5
AEA
330
A02
100
AcDbEntity
  8
ProjItem
100
AcDbCircle
 10
900.7491543535409
 20
613.1993346742108
 30
0.0
 40
0.4
  0
CIRCLE
  5
AEB
330
A02
100
AcDbEntity
  8
ProjItem
100
AcDbCircle
 10
898.4991543535409
 20
614.4493346742108
 30
0.0
 40
0.78
  0
CIRCLE
  5
AEC
330
A02
100
AcDbEntity
  8
ProjItem
100
AcDbCircle
 10
900.7491543535409
 20
615.1993346742108
 30
0.0
 40
0.4
  0
CIRCLE
  5
AED
330
A02
100
AcDbEntity
  8
ProjItem
100
AcDbCircle
 10
900.7491543535409
 20
617.1993346742108
 30
0.0
 40
0.4
  0
CIRCLE
  5
AEE
330
A02
100
AcDbEntity
  8
ProjItem
100
AcDbCircle
 10
898.4991543535409
 20
618.9493346742108
 30
0.0
 40
0.78
  0
CIRCLE
  5
AEF
330
A02
100
AcDbEntity
  8
ProjItem
100
AcDbCircle
 10
900.7491543535409
 20
619.1993346742108
 30
0.0
 40
0.4
  0
CIRCLE
  5
AF0
330
A02
100
AcDbEntity
  8
ProjItem
100
AcDbCircle
 10
877.3490543535409
 20
621.1993346742108
 30
0.0
 40
0.4
  0
CIRCLE
  5
AF1
330
A02
100
AcDbEntity
  8
ProjItem
100
AcDbCircle
 10
879.5990543535409
 20
621.4493346742108
 30
0.0
 40
0.78
  0
CIRCLE
  5
AF2
330
A02
100
AcDbEntity
  8
ProjItem
100
AcDbCircle
 10
877.3490543535409
 20
623.1993346742108
 30
0.0
 40
0.4
  0
CIRCLE
  5
AF3
330
A02
100
AcDbEntity
  8
ProjItem
100
AcDbCircle
 10
877.3490543535409
 20
625.1993346742108
 30
0.0
 40
0.4
  0
CIRCLE
  5
AF4
330
A02
100
AcDbEntity
  8
ProjItem
100
AcDbCircle
 10
879.5990543535409
 20
625.9493346742108
 30
0.0
 40
0.78
  0
CIRCLE
  5
AF5
330
A02
100
AcDbEntity
  8
ProjItem
100
AcDbCircle
 10
877.3490543535409
 20
627.1993346742108
 30
0.0
 40
0.4
  0
CIRCLE
  5
AF6
330
A02
100
AcDbEntity
  8
ProjItem
100
AcDbCircle
 10
879.5990543535409
 20
628.4493346742108
 30
0.0
 40
0.78
  0
CIRCLE
  5
AF7
330
A02
100
AcDbEntity
  8
ProjItem
100
AcDbCircle
 10
877.3490543535409
 20
629.1993346742108
 30
0.0
 40
0.4
  0
CIRCLE
  5
AF8
330
A02
100
AcDbEntity
  8
ProjItem
100
AcDbCircle
 10
877.3490543535409
 20
631.1993346742108
 30
0.0
 40
0.4
  0
CIRCLE
  5
AF9
330
A02
100
AcDbEntity
  8
ProjItem
100
AcDbCircle
 10
887.7990543535409
 20
631.1993346742108
 30
0.0
 40
0.78
  0
LINE
  5
AFA
330
A02
100
AcDbEntity
  8
ProjItem
100
AcDbLine
 10
881.0490543535409
 20
626.6993346742108
 30
0.0
 11
881.0490543535409
 21
613.6993346742108
 31
0.0
  0
ARC
  5
AFB
330
A02
100
AcDbEntity
  8
ProjItem
100
AcDbCircle
 10
882.5490543535409
 20
626.6993346742108
 30
0.0
 40
1.5
100
AcDbArc
 50
90.0
 51
180.0
  0
LINE
  5
AFC
330
A02
100
AcDbEntity
  8
ProjItem
100
AcDbLine
 10
895.5491543535409
 20
628.1993346742108
 30
0.0
 11
882.5490543535409
 21
628.1993346742108
 31
0.0
  0
ARC
  5
AFD
330
A02
100
AcDbEntity
  8
ProjItem
100
AcDbCircle
 10
895.5491543535409
 20
626.6993346742108
 30
0.0
 40
1.5
100
AcDbArc
 50
0.0
 51
90.0
  0
LINE
  5
AFE
330
A02
100
AcDbEntity
  8
ProjItem
100
AcDbLine
 10
897.0491543535409
 20
613.6993346742108
 30
0.0
 11
897.0491543535409
 21
626.6993346742108
 31
0.0
  0
ARC
  5
AFF
330
A02
100
AcDbEntity
  8
ProjItem
100
AcDbCircle
 10
895.5491543535409
 20
613.6993346742108
 30
0.0
 40
1.5
100
AcDbArc
 50
270.0
 51
0.0
  0
LINE
  5
B00
330
A02
100
AcDbEntity
  8
ProjItem
100
AcDbLine
 10
882.5490543535409
 20
612.1993346742108
 30
0.0
 11
895.5491543535409
 21
612.1993346742108
 31
0.0
  0
ARC
  5
B01
330
A02
100
AcDbEntity
  8
ProjItem
100
AcDbCircle
 10
882.5490543535409
 20
613.6993346742108
 30
0.0
 40
1.5
100
AcDbArc
 50
180.0
 51
270.0
  0
CIRCLE
  5
B02
330
A02
100
AcDbEntity
  8
ProjItem
100
AcDbCircle
 10
898.4991543535409
 20
621.4493346742108
 30
0.0
 40
0.78
  0
CIRCLE
  5
B03
330
A02
100
AcDbEntity
  8
ProjItem
100
AcDbCircle
 10
900.7491543535409
 20
621.1993346742108
 30
0.0
 40
0.4
  0
CIRCLE
  5
B04
330
A02
100
AcDbEntity
  8
ProjItem
100
AcDbCircle
 10
900.7491543535409
 20
623.1993346742108
 30
0.0
 40
0.4
  0
CIRCLE
  5
B05
330
A02
100
AcDbEntity
  8
ProjItem
100
AcDbCircle
 10
898.4991543535409
 20
625.9493346742108
 30
0.0
 40
0.78
  0
CIRCLE
  5
B06
330
A02
100
AcDbEntity
  8
ProjItem
100
AcDbCircle
 10
900.7491543535409
 20
625.1993346742108
 30
0.0
 40
0.4
  0
CIRCLE
  5
B07
330
A02
100
AcDbEntity
  8
ProjItem
100
AcDbCircle
 10
890.2991543535409
 20
631.1993346742108
 30
0.0
 40
0.78
  0
CIRCLE
  5
B08
330
A02
100
AcDbEntity
  8
ProjItem
100
AcDbCircle
 10
900.7491543535409
 20
627.1993346742108
 30
0.0
 40
0.4
  0
CIRCLE
  5
B09
330
A02
100
AcDbEntity
  8
ProjItem
100
AcDbCircle
 10
898.4991543535409
 20
628.4493346742108
 30
0.0
 40
0.78
  0
CIRCLE
  5
B0A
330
A02
100
AcDbEntity
  8
ProjItem
100
AcDbCircle
 10
900.7491543535409
 20
629.1993346742108
 30
0.0
 40
0.4
  0
CIRCLE
  5
B0B
330
A02
100
AcDbEntity
  8
ProjItem
100
AcDbCircle
 10
900.7491543535409
 20
631.1993346742108
 30
0.0
 40
0.4
  0
LWPOLYLINE
  5
1004C
330
A02
100
AcDbEntity
  8
0
  6
ByBlock
100
AcDbPolyline
 90
        4
 70
     1
 43
0.0
 10
1098.620739228209
 20
492.9794676555428
 10
1098.620739228209
 20
518.3794676555428
 10
1124.02073922821
 20
518.3794676555428
 10
1124.02073922821
 20
492.9794676555428
  0
LWPOLYLINE
  5
10060
330
A02
100
AcDbEntity
  8
0
  6
ByBlock
100
AcDbPolyline
 90
        4
 70
     1
 43
0.0
 10
1133.620739228209
 20
492.9794676555428
 10
1133.620739228209
 20
518.3794676555428
 10
1159.02073922821
 20
518.3794676555428
 10
1159.02073922821
 20
492.9794676555428
  0
LWPOLYLINE
  5
10061
330
A02
100
AcDbEntity
  8
0
  6
ByBlock
100
AcDbPolyline
 90
        4
 70
     1
 43
0.0
 10
1168.620739228209
 20
492.9794676555428
 10
1168.620739228209
 20
518.3794676555428
 10
1194.02073922821
 20
518.3794676555428
 10
1194.02073922821
 20
492.9794676555428
  0
LWPOLYLINE
  5
10062
330
A02
100
AcDbEntity
  8
0
  6
ByBlock
100
AcDbPolyline
 90
        4
 70
     1
 43
0.0
 10
1203.620739228209
 20
492.9794676555428
 10
1203.620739228209
 20
518.3794676555428
 10
1229.02073922821
 20
518.3794676555428
 10
1229.02073922821
 20
492.9794676555428
  0
LWPOLYLINE
  5
10063
330
A02
100
AcDbEntity
  8
0
  6
ByBlock
100
AcDbPolyline
 90
        4
 70
     1
 43
0.0
 10
1098.620739228209
 20
521.9794676555427
 10
1098.620739228209
 20
547.3794676555428
 10
1124.02073922821
 20
547.3794676555428
 10
1124.02073922821
 20
521.9794676555427
  0
LWPOLYLINE
  5
10064
330
A02
100
AcDbEntity
  8
0
  6
ByBlock
100
AcDbPolyline
 90
        4
 70
     1
 43
0.0
 10
1133.620739228209
 20
521.9794676555427
 10
1133.620739228209
 20
547.3794676555428
 10
1159.02073922821
 20
547.3794676555428
 10
1159.02073922821
 20
521.9794676555427
  0
LWPOLYLINE
  5
10065
330
A02
100
AcDbEntity
  8
0
  6
ByBlock
100
AcDbPolyline
 90
        4
 70
     1
 43
0.0
 10
1168.620739228209
 20
521.9794676555429
 10
1168.620739228209
 20
547.3794676555428
 10
1194.02073922821
 20
547.3794676555428
 10
1194.02073922821
 20
521.9794676555429
  0
LWPOLYLINE
  5
10066
330
A02
100
AcDbEntity
  8
0
  6
ByBlock
100
AcDbPolyline
 90
        4
 70
     1
 43
0.0
 10
1203.620739228209
 20
521.9794676555429
 10
1203.620739228209
 20
547.3794676555428
 10
1229.02073922821
 20
547.3794676555428
 10
1229.02073922821
 20
521.9794676555429
  0
LWPOLYLINE
  5
10067
330
A02
100
AcDbEntity
  8
0
  6
ByBlock
100
AcDbPolyline
 90
        4
 70
     1
 43
0.0
 10
1098.620739228209
 20
550.9794676555427
 10
1098.620739228209
 20
576.3794676555428
 10
1124.02073922821
 20
576.3794676555428
 10
1124.02073922821
 20
550.9794676555427
  0
LWPOLYLINE
  5
10068
330
A02
100
AcDbEntity
  8
0
  6
ByBlock
100
AcDbPolyline
 90
        4
 70
     1
 43
0.0
 10
1133.620739228209
 20
550.9794676555427
 10
1133.620739228209
 20
576.3794676555428
 10
1159.02073922821
 20
576.3794676555428
 10
1159.02073922821
 20
550.9794676555427
  0
LWPOLYLINE
  5
10069
330
A02
100
AcDbEntity
  8
0
  6
ByBlock
100
AcDbPolyline
 90
        4
 70
     1
 43
0.0
 10
1168.620739228209
 20
550.9794676555427
 10
1168.620739228209
 20
576.3794676555428
 10
1194.02073922821
 20
576.3794676555428
 10
1194.02073922821
 20
550.9794676555427
  0
LWPOLYLINE
  5
1006A
330
A02
100
AcDbEntity
  8
0
  6
ByBlock
100
AcDbPolyline
 90
        4
 70
     1
 43
0.0
 10
1203.620739228209
 20
550.9794676555429
 10
1203.620739228209
 20
576.3794676555428
 10
1229.02073922821
 20
576.3794676555428
 10
1229.02073922821
 20
550.9794676555429
  0
LWPOLYLINE
  5
1006B
330
A02
100
AcDbEntity
  8
0
  6
ByBlock
100
AcDbPolyline
 90
        4
 70
     1
 43
0.0
 10
1098.620739228209
 20
579.9794676555427
 10
1098.620739228209
 20
605.3794676555428
 10
1124.02073922821
 20
605.3794676555428
 10
1124.02073922821
 20
579.9794676555427
  0
LWPOLYLINE
  5
1006C
330
A02
100
AcDbEntity
  8
0
  6
ByBlock
100
AcDbPolyline
 90
        4
 70
     1
 43
0.0
 10
1133.620739228209
 20
579.9794676555427
 10
1133.620739228209
 20
605.3794676555428
 10
1159.02073922821
 20
605.3794676555428
 10
1159.02073922821
 20
579.9794676555427
  0
LWPOLYLINE
  5
1006D
330
A02
100
AcDbEntity
  8
0
  6
ByBlock
100
AcDbPolyline
 90
        4
 70
     1
 43
0.0
 10
1168.620739228209
 20
579.9794676555427
 10
1168.620739228209
 20
605.3794676555428
 10
1194.02073922821
 20
605.3794676555428
 10
1194.02073922821
 20
579.9794676555427
  0
LWPOLYLINE
  5
1006E
330
A02
100
AcDbEntity
  8
0
  6
ByBlock
100
AcDbPolyline
 90
        4
 70
     1
 43
0.0
 10
1203.620739228209
 20
579.9794676555429
 10
1203.620739228209
 20
605.3794676555428
 10
1229.02073922821
 20
605.3794676555428
 10
1229.02073922821
 20
579.9794676555429
  0
LWPOLYLINE
  5
1006F
330
A02
100
AcDbEntity
  8
0
  6
ByBlock
100
AcDbPolyline
 90
        4
 70
     1
 43
0.0
 10
1098.620739228209
 20
608.9794676555427
 10
1098.620739228209
 20
634.3794676555428
 10
1124.02073922821
 20
634.3794676555428
 10
1124.02073922821
 20
608.9794676555427
  0
LWPOLYLINE
  5
10070
330
A02
100
AcDbEntity
  8
0
  6
ByBlock
100
AcDbPolyline
 90
        4
 70
     1
 43
0.0
 10
1133.620739228209
 20
608.9794676555427
 10
1133.620739228209
 20
634.3794676555428
 10
1159.02073922821
 20
634.3794676555428
 10
1159.02073922821
 20
608.9794676555427
  0
LWPOLYLINE
  5
10071
330
A02
100
AcDbEntity
  8
0
  6
ByBlock
100
AcDbPolyline
 90
        4
 70
     1
 43
0.0
 10
1168.620739228209
 20
608.9794676555427
 10
1168.620739228209
 20
634.3794676555428
 10
1194.02073922821
 20
634.3794676555428
 10
1194.02073922821
 20
608.9794676555427
  0
LWPOLYLINE
  5
10072
330
A02
100
AcDbEntity
  8
0
  6
ByBlock
100
AcDbPolyline
 90
        4
 70
     1
 43
0.0
 10
1203.620739228209
 20
608.9794676555429
 10
1203.620739228209
 20
634.3794676555428
 10
1229.02073922821
 20
634.3794676555428
 10
1229.02073922821
 20
608.9794676555429
  0
CIRCLE
  5
100B8
330
A02
100
AcDbEntity
  8
pcb
100
AcDbCircle
 10
-64.20000000000005
 20
-68.99999999999996
 30
0.0
 40
0.4
  0
CIRCLE
  5
100B9
330
A02
100
AcDbEntity
  8
pcb
100
AcDbCircle
 10
-64.20000000000005
 20
-66.99999999999996
 30
0.0
 40
0.4
  0
CIRCLE
  5
100BB
330
A02
100
AcDbEntity
  8
pcb
100
AcDbCircle
 10
-64.20000000000005
 20
-64.99999999999996
 30
0.0
 40
0.4
  0
CIRCLE
  5
100BD
330
A02
100
AcDbEntity
  8
pcb
100
AcDbCircle
 10
-64.20000000000005
 20
-62.99999999999996
 30
0.0
 40
0.4
  0
CIRCLE
  5
100BF
330
A02
100
AcDbEntity
  8
pcb
100
AcDbCircle
 10
-64.20000000000005
 20
-60.99999999999996
 30
0.0
 40
0.4
  0
CIRCLE
  5
100C0
330
A02
100
AcDbEntity
  8
pcb
100
AcDbCircle
 10
-64.20000000000005
 20
-58.99999999999996
 30
0.0
 40
0.4
  0
CIRCLE
  5
100CC
330
A02
100
AcDbEntity
  8
pcb
100
AcDbCircle
 10
-64.20000000000005
 20
-56.99999999999996
 30
0.0
 40
0.4
  0
CIRCLE
  5
100CE
330
A02
100
AcDbEntity
  8
pcb
100
AcDbCircle
 10
-64.20000000000005
 20
-54.99999999999996
 30
0.0
 40
0.4
  0
CIRCLE
  5
100CF
330
A02
100
AcDbEntity
  8
pcb
100
AcDbCircle
 10
-64.20000000000005
 20
-52.99999999999996
 30
0.0
 40
0.4
  0
CIRCLE
  5
100D1
330
A02
100
AcDbEntity
  8
pcb
100
AcDbCircle
 10
-64.20000000000005
 20
-50.99999999999996
 30
0.0
 40
0.4
  0
CIRCLE
  5
100D3
330
A02
100
AcDbEntity
  8
pcb
100
AcDbCircle
 10
-64.20000000000005
 20
-48.99999999999996
 30
0.0
 40
0.4
  0
CIRCLE
  5
100D4
330
A02
100
AcDbEntity
  8
pcb
100
AcDbCircle
 10
-64.20000000000005
 20
-46.99999999999996
 30
0.0
 40
0.4
  0
CIRCLE
  5
10120
330
A02
100
AcDbEntity
  8
pcb
100
AcDbCircle
 10
5.799999999999955
 20
-68.99999999999994
 30
0.0
 40
0.4
  0
CIRCLE
  5
10121
330
A02
100
AcDbEntity
  8
pcb
100
AcDbCircle
 10
5.799999999999955
 20
-66.99999999999994
 30
0.0
 40
0.4
  0
CIRCLE
  5
10123
330
A02
100
AcDbEntity
  8
pcb
100
AcDbCircle
 10
5.799999999999955
 20
-64.99999999999994
 30
0.0
 40
0.4
  0
CIRCLE
  5
10125
330
A02
100
AcDbEntity
  8
pcb
100
AcDbCircle
 10
5.799999999999955
 20
-62.99999999999994
 30
0.0
 40
0.4
  0
CIRCLE
  5
10127
330
A02
100
AcDbEntity
  8
pcb
100
AcDbCircle
 10
5.799999999999955
 20
-60.99999999999994
 30
0.0
 40
0.4
  0
CIRCLE
  5
10128
330
A02
100
AcDbEntity
  8
pcb
100
AcDbCircle
 10
5.799999999999955
 20
-58.99999999999994
 30
0.0
 40
0.4
  0
CIRCLE
  5
10134
330
A02
100
AcDbEntity
  8
pcb
100
AcDbCircle
 10
5.799999999999955
 20
-56.99999999999994
 30
0.0
 40
0.4
  0
CIRCLE
  5
10136
330
A02
100
AcDbEntity
  8
pcb
100
AcDbCircle
 10
5.799999999999955
 20
-54.99999999999994
 30
0.0
 40
0.4
  0
CIRCLE
  5
10137
330
A02
100
AcDbEntity
  8
pcb
100
AcDbCircle
 10
5.799999999999955
 20
-52.99999999999994
 30
0.0
 40
0.4
  0
CIRCLE
  5
10139
330
A02
100
AcDbEntity
  8
pcb
100
AcDbCircle
 10
5.799999999999955
 20
-50.99999999999994
 30
0.0
 40
0.4
  0
CIRCLE
  5
1013B
330
A02
100
AcDbEntity
  8
pcb
100
AcDbCircle
 10
5.799999999999955
 20
-48.99999999999994
 30
0.0
 40
0.4
  0
CIRCLE
  5
1013C
330
A02
100
AcDbEntity
  8
pcb
100
AcDbCircle
 10
5.799999999999955
 20
-46.99999999999994
 30
0.0
 40
0.4
  0
CIRCLE
  5
1015F
330
A02
100
AcDbEntity
  8
pcb
100
AcDbCircle
 10
64.19999999999993
 20
-68.99999999999993
 30
0.0
 40
0.4
  0
CIRCLE
  5
10160
330
A02
100
AcDbEntity
  8
pcb
100
AcDbCircle
 10
64.19999999999993
 20
-66.99999999999993
 30
0.0
 40
0.4
  0
CIRCLE
  5
10162
330
A02
100
AcDbEntity
  8
pcb
100
AcDbCircle
 10
64.19999999999993
 20
-64.99999999999993
 30
0.0
 40
0.4
  0
CIRCLE
  5
10164
330
A02
100
AcDbEntity
  8
pcb
100
AcDbCircle
 10
64.19999999999993
 20
-62.99999999999993
 30
0.0
 40
0.4
  0
CIRCLE
  5
10165
330
A02
100
AcDbEntity
  8
pcb
100
AcDbCircle
 10
64.19999999999993
 20
-60.99999999999993
 30
0.0
 40
0.4
  0
CIRCLE
  5
10167
330
A02
100
AcDbEntity
  8
pcb
100
AcDbCircle
 10
64.19999999999993
 20
-58.99999999999993
 30
0.0
 40
0.4
  0
CIRCLE
  5
1017B
330
A02
100
AcDbEntity
  8
pcb
100
AcDbCircle
 10
64.19999999999993
 20
-56.99999999999993
 30
0.0
 40
0.4
  0
CIRCLE
  5
1017C
330
A02
100
AcDbEntity
  8
pcb
100
AcDbCircle
 10
64.19999999999993
 20
-54.99999999999993
 30
0.0
 40
0.4
  0
CIRCLE
  5
1017E
330
A02
100
AcDbEntity
  8
pcb
100
AcDbCircle
 10
64.19999999999993
 20
-52.99999999999993
 30
0.0
 40
0.4
  0
CIRCLE
  5
10180
330
A02
100
AcDbEntity
  8
pcb
100
AcDbCircle
 10
64.19999999999993
 20
-50.99999999999993
 30
0.0
 40
0.4
  0
CIRCLE
  5
10182
330
A02
100
AcDbEntity
  8
pcb
100
AcDbCircle
 10
64.19999999999993
 20
-48.99999999999993
 30
0.0
 40
0.4
  0
CIRCLE
  5
10183
330
A02
100
AcDbEntity
  8
pcb
100
AcDbCircle
 10
64.19999999999993
 20
-46.99999999999993
 30
0.0
 40
0.4
  0
CIRCLE
  5
101F0
330
A02
100
AcDbEntity
  8
pcb
100
AcDbCircle
 10
5.799999999999955
 20
-39.99999999999994
 30
0.0
 40
0.4
  0
CIRCLE
  5
101F1
330
A02
100
AcDbEntity
  8
pcb
100
AcDbCircle
 10
5.799999999999955
 20
-37.99999999999994
 30
0.0
 40
0.4
  0
CIRCLE
  5
101F3
330
A02
100
AcDbEntity
  8
pcb
100
AcDbCircle
 10
5.799999999999955
 20
-35.99999999999994
 30
0.0
 40
0.4
  0
CIRCLE
  5
101F5
330
A02
100
AcDbEntity
  8
pcb
100
AcDbCircle
 10
5.799999999999955
 20
-33.99999999999994
 30
0.0
 40
0.4
  0
CIRCLE
  5
101F7
330
A02
100
AcDbEntity
  8
pcb
100
AcDbCircle
 10
5.799999999999955
 20
-31.99999999999994
 30
0.0
 40
0.4
  0
CIRCLE
  5
101F8
330
A02
100
AcDbEntity
  8
pcb
100
AcDbCircle
 10
5.799999999999955
 20
-29.99999999999994
 30
0.0
 40
0.4
  0
CIRCLE
  5
10204
330
A02
100
AcDbEntity
  8
pcb
100
AcDbCircle
 10
5.799999999999955
 20
-27.99999999999994
 30
0.0
 40
0.4
  0
CIRCLE
  5
10206
330
A02
100
AcDbEntity
  8
pcb
100
AcDbCircle
 10
5.799999999999955
 20
-25.99999999999994
 30
0.0
 40
0.4
  0
CIRCLE
  5
10207
330
A02
100
AcDbEntity
  8
pcb
100
AcDbCircle
 10
5.799999999999955
 20
-23.99999999999994
 30
0.0
 40
0.4
  0
CIRCLE
  5
10209
330
A02
100
AcDbEntity
  8
pcb
100
AcDbCircle
 10
5.799999999999955
 20
-21.99999999999994
 30
0.0
 40
0.4
  0
CIRCLE
  5
1020B
330
A02
100
AcDbEntity
  8
pcb
100
AcDbCircle
 10
5.799999999999955
 20
-19.99999999999994
 30
0.0
 40
0.4
  0
CIRCLE
  5
1020C
330
A02
100
AcDbEntity
  8
pcb
100
AcDbCircle
 10
5.799999999999955
 20
-17.99999999999994
 30
0.0
 40
0.4
  0
CIRCLE
  5
102C0
330
A02
100
AcDbEntity
  8
pcb
100
AcDbCircle
 10
5.799999999999955
 20
-10.99999999999994
 30
0.0
 40
0.4
  0
CIRCLE
  5
102C1
330
A02
100
AcDbEntity
  8
pcb
100
AcDbCircle
 10
5.799999999999955
 20
-8.999999999999943
 30
0.0
 40
0.4
  0
CIRCLE
  5
102C3
330
A02
100
AcDbEntity
  8
pcb
100
AcDbCircle
 10
5.799999999999955
 20
-6.999999999999943
 30
0.0
 40
0.4
  0
CIRCLE
  5
102C5
330
A02
100
AcDbEntity
  8
pcb
100
AcDbCircle
 10
5.799999999999955
 20
-4.999999999999943
 30
0.0
 40
0.4
  0
CIRCLE
  5
102C7
330
A02
100
AcDbEntity
  8
pcb
100
AcDbCircle
 10
5.799999999999955
 20
-2.999999999999943
 30
0.0
 40
0.4
  0
CIRCLE
  5
102C8
330
A02
100
AcDbEntity
  8
pcb
100
AcDbCircle
 10
5.799999999999955
 20
-0.9999999999999432
 30
0.0
 40
0.4
  0
CIRCLE
  5
102D4
330
A02
100
AcDbEntity
  8
pcb
100
AcDbCircle
 10
5.799999999999955
 20
1.000000000000057
 30
0.0
 40
0.4
  0
CIRCLE
  5
102D6
330
A02
100
AcDbEntity
  8
pcb
100
AcDbCircle
 10
5.799999999999955
 20
3.000000000000057
 30
0.0
 40
0.4
  0
CIRCLE
  5
102D7
330
A02
100
AcDbEntity
  8
pcb
100
AcDbCircle
 10
5.799999999999955
 20
5.000000000000057
 30
0.0
 40
0.4
  0
CIRCLE
  5
102D9
330
A02
100
AcDbEntity
  8
pcb
100
AcDbCircle
 10
5.799999999999955
 20
7.000000000000071
 30
0.0
 40
0.4
  0
CIRCLE
  5
102DB
330
A02
100
AcDbEntity
  8
pcb
100
AcDbCircle
 10
5.799999999999955
 20
9.000000000000071
 30
0.0
 40
0.4
  0
CIRCLE
  5
102DC
330
A02
100
AcDbEntity
  8
pcb
100
AcDbCircle
 10
5.799999999999955
 20
11.00000000000007
 30
0.0
 40
0.4
  0
CIRCLE
  5
10390
330
A02
100
AcDbEntity
  8
pcb
100
AcDbCircle
 10
5.799999999999955
 20
18.00000000000007
 30
0.0
 40
0.4
  0
CIRCLE
  5
10391
330
A02
100
AcDbEntity
  8
pcb
100
AcDbCircle
 10
5.799999999999955
 20
20.00000000000007
 30
0.0
 40
0.4
  0
CIRCLE
  5
10393
330
A02
100
AcDbEntity
  8
pcb
100
AcDbCircle
 10
5.799999999999955
 20
22.00000000000007
 30
0.0
 40
0.4
  0
CIRCLE
  5
10395
330
A02
100
AcDbEntity
  8
pcb
100
AcDbCircle
 10
5.799999999999955
 20
24.00000000000007
 30
0.0
 40
0.4
  0
CIRCLE
  5
10397
330
A02
100
AcDbEntity
  8
pcb
100
AcDbCircle
 10
5.799999999999955
 20
26.00000000000007
 30
0.0
 40
0.4
  0
CIRCLE
  5
10398
330
A02
100
AcDbEntity
  8
pcb
100
AcDbCircle
 10
5.799999999999955
 20
28.00000000000007
 30
0.0
 40
0.4
  0
CIRCLE
  5
103A4
330
A02
100
AcDbEntity
  8
pcb
100
AcDbCircle
 10
5.799999999999955
 20
30.00000000000007
 30
0.0
 40
0.4
  0
CIRCLE
  5
103A6
330
A02
100
AcDbEntity
  8
pcb
100
AcDbCircle
 10
5.799999999999955
 20
32.00000000000007
 30
0.0
 40
0.4
  0
CIRCLE
  5
103A7
330
A02
100
AcDbEntity
  8
pcb
100
AcDbCircle
 10
5.799999999999955
 20
34.00000000000007
 30
0.0
 40
0.4
  0
CIRCLE
  5
103A9
330
A02
100
AcDbEntity
  8
pcb
100
AcDbCircle
 10
5.799999999999955
 20
36.00000000000007
 30
0.0
 40
0.4
  0
CIRCLE
  5
103AB
330
A02
100
AcDbEntity
  8
pcb
100
AcDbCircle
 10
5.799999999999955
 20
38.00000000000007
 30
0.0
 40
0.4
  0
CIRCLE
  5
103AC
330
A02
100
AcDbEntity
  8
pcb
100
AcDbCircle
 10
5.799999999999955
 20
40.00000000000007
 30
0.0
 40
0.4
  0
CIRCLE
  5
103F8
330
A02
100
AcDbEntity
  8
pcb
100
AcDbCircle
 10
-64.20000000000005
 20
47.00000000000004
 30
0.0
 40
0.4
  0
CIRCLE
  5
103F9
330
A02
100
AcDbEntity
  8
pcb
100
AcDbCircle
 10
-64.20000000000005
 20
49.00000000000004
 30
0.0
 40
0.4
  0
CIRCLE
  5
103FB
330
A02
100
AcDbEntity
  8
pcb
100
AcDbCircle
 10
-64.20000000000005
 20
51.00000000000004
 30
0.0
 40
0.4
  0
CIRCLE
  5
103FD
330
A02
100
AcDbEntity
  8
pcb
100
AcDbCircle
 10
-64.20000000000005
 20
53.00000000000004
 30
0.0
 40
0.4
  0
CIRCLE
  5
103FF
330
A02
100
AcDbEntity
  8
pcb
100
AcDbCircle
 10
-64.20000000000005
 20
55.00000000000004
 30
0.0
 40
0.4
  0
CIRCLE
  5
10400
330
A02
100
AcDbEntity
  8
pcb
100
AcDbCircle
 10
-64.20000000000005
 20
57.00000000000004
 30
0.0
 40
0.4
  0
CIRCLE
  5
1040C
330
A02
100
AcDbEntity
  8
pcb
100
AcDbCircle
 10
-64.20000000000005
 20
59.00000000000004
 30
0.0
 40
0.4
  0
CIRCLE
  5
1040E
330
A02
100
AcDbEntity
  8
pcb
100
AcDbCircle
 10
-64.20000000000005
 20
61.00000000000004
 30
0.0
 40
0.4
  0
CIRCLE
  5
1040F
330
A02
100
AcDbEntity
  8
pcb
100
AcDbCircle
 10
-64.20000000000005
 20
63.00000000000004
 30
0.0
 40
0.4
  0
CIRCLE
  5
10411
330
A02
100
AcDbEntity
  8
pcb
100
AcDbCircle
 10
-64.20000000000005
 20
65.00000000000004
 30
0.0
 40
0.4
  0
CIRCLE
  5
10413
330
A02
100
AcDbEntity
  8
pcb
100
AcDbCircle
 10
-64.20000000000005
 20
67.00000000000004
 30
0.0
 40
0.4
  0
CIRCLE
  5
10414
330
A02
100
AcDbEntity
  8
pcb
100
AcDbCircle
 10
-64.20000000000005
 20
69.00000000000004
 30
0.0
 40
0.4
  0
CIRCLE
  5
10460
330
A02
100
AcDbEntity
  8
pcb
100
AcDbCircle
 10
5.799999999999955
 20
47.00000000000007
 30
0.0
 40
0.4
  0
CIRCLE
  5
10461
330
A02
100
AcDbEntity
  8
pcb
100
AcDbCircle
 10
5.799999999999955
 20
49.00000000000007
 30
0.0
 40
0.4
  0
CIRCLE
  5
10463
330
A02
100
AcDbEntity
  8
pcb
100
AcDbCircle
 10
5.799999999999955
 20
51.00000000000007
 30
0.0
 40
0.4
  0
CIRCLE
  5
10465
330
A02
100
AcDbEntity
  8
pcb
100
AcDbCircle
 10
5.799999999999955
 20
53.00000000000007
 30
0.0
 40
0.4
  0
CIRCLE
  5
10467
330
A02
100
AcDbEntity
  8
pcb
100
AcDbCircle
 10
5.799999999999955
 20
55.00000000000007
 30
0.0
 40
0.4
  0
CIRCLE
  5
10468
330
A02
100
AcDbEntity
  8
pcb
100
AcDbCircle
 10
5.799999999999955
 20
57.00000000000007
 30
0.0
 40
0.4
  0
CIRCLE
  5
10474
330
A02
100
AcDbEntity
  8
pcb
100
AcDbCircle
 10
5.799999999999955
 20
59.00000000000007
 30
0.0
 40
0.4
  0
CIRCLE
  5
10476
330
A02
100
AcDbEntity
  8
pcb
100
AcDbCircle
 10
5.799999999999955
 20
61.00000000000007
 30
0.0
 40
0.4
  0
CIRCLE
  5
10477
330
A02
100
AcDbEntity
  8
pcb
100
AcDbCircle
 10
5.799999999999955
 20
63.00000000000007
 30
0.0
 40
0.4
  0
CIRCLE
  5
10479
330
A02
100
AcDbEntity
  8
pcb
100
AcDbCircle
 10
5.799999999999955
 20
65.00000000000007
 30
0.0
 40
0.4
  0
CIRCLE
  5
1047B
330
A02
100
AcDbEntity
  8
pcb
100
AcDbCircle
 10
5.799999999999955
 20
67.00000000000007
 30
0.0
 40
0.4
  0
CIRCLE
  5
1047C
330
A02
100
AcDbEntity
  8
pcb
100
AcDbCircle
 10
5.799999999999955
 20
69.00000000000007
 30
0.0
 40
0.4
  0
CIRCLE
  5
1049F
330
A02
100
AcDbEntity
  8
pcb
100
AcDbCircle
 10
64.19999999999993
 20
47.00000000000007
 30
0.0
 40
0.4
  0
CIRCLE
  5
104A0
330
A02
100
AcDbEntity
  8
pcb
100
AcDbCircle
 10
64.19999999999993
 20
49.00000000000007
 30
0.0
 40
0.4
  0
CIRCLE
  5
104A2
330
A02
100
AcDbEntity
  8
pcb
100
AcDbCircle
 10
64.19999999999993
 20
51.00000000000007
 30
0.0
 40
0.4
  0
CIRCLE
  5
104A4
330
A02
100
AcDbEntity
  8
pcb
100
AcDbCircle
 10
64.19999999999993
 20
53.00000000000007
 30
0.0
 40
0.4
  0
CIRCLE
  5
104A5
330
A02
100
AcDbEntity
  8
pcb
100
AcDbCircle
 10
64.19999999999993
 20
55.00000000000007
 30
0.0
 40
0.4
  0
CIRCLE
  5
104A7
330
A02
100
AcDbEntity
  8
pcb
100
AcDbCircle
 10
64.19999999999993
 20
57.00000000000007
 30
0.0
 40
0.4
  0
CIRCLE
  5
104BB
330
A02
100
AcDbEntity
  8
pcb
100
AcDbCircle
 10
64.19999999999993
 20
59.00000000000007
 30
0.0
 40
0.4
  0
CIRCLE
  5
104BC
330
A02
100
AcDbEntity
  8
pcb
100
AcDbCircle
 10
64.19999999999993
 20
61.00000000000007
 30
0.0
 40
0.4
  0
CIRCLE
  5
104BE
330
A02
100
AcDbEntity
  8
pcb
100
AcDbCircle
 10
64.19999999999993
 20
63.00000000000007
 30
0.0
 40
0.4
  0
CIRCLE
  5
104C0
330
A02
100
AcDbEntity
  8
pcb
100
AcDbCircle
 10
64.19999999999993
 20
65.00000000000007
 30
0.0
 40
0.4
  0
CIRCLE
  5
104C2
330
A02
100
AcDbEntity
  8
pcb
100
AcDbCircle
 10
64.19999999999993
 20
67.00000000000007
 30
0.0
 40
0.4
  0
CIRCLE
  5
104C3
330
A02
100
AcDbEntity
  8
pcb
100
AcDbCircle
 10
64.19999999999993
 20
69.00000000000007
 30
0.0
 40
0.4
  0
LWPOLYLINE
  5
104CB
330
A02
100
AcDbEntity
  8
pcb
  6
ByBlock
100
AcDbPolyline
 90
        4
 70
     1
 43
0.0
 10
-65.20000000000005
 20
-70.69999999999997
 10
-65.20000000000005
 20
70.69999999999997
 10
65.19999999999993
 20
70.69999999999997
 10
65.19999999999993
 20
-70.69999999999997
  0
CIRCLE
  5
10581
330
A02
100
AcDbEntity
  8
pcb
100
AcDbCircle
 10
-33.74999999999999
 20
59.075
 30
0.0
 40
0.78
  0
CIRCLE
  5
10582
330
A02
100
AcDbEntity
  8
pcb
100
AcDbCircle
 10
-36.24999999999999
 20
59.075
 30
0.0
 40
0.78
  0
LWPOLYLINE
  5
10587
330
A02
100
AcDbEntity
  8
theirs
  6
ByBlock
100
AcDbPolyline
 90
        4
 70
     1
 43
0.0
 10
738.6138539628556
 20
223.6881547857042
 10
738.6138539628556
 20
269.6881547857042
 10
784.6138539628556
 20
269.6881547857042
 10
784.6138539628556
 20
223.6881547857042
  0
LINE
  5
10588
330
A02
100
AcDbEntity
  8
theirs
  6
ByBlock
100
AcDbLine
 10
738.6138539628556
 20
269.6881547857042
 30
0.0
 11
784.6138539628556
 21
223.6881547857042
 31
0.0
  0
CIRCLE
  5
10630
330
A02
100
AcDbEntity
  8
pcb
100
AcDbCircle
 10
-5.799999999999955
 20
-39.99999999999994
 30
0.0
 40
0.4
  0
CIRCLE
  5
10631
330
A02
100
AcDbEntity
  8
pcb
100
AcDbCircle
 10
-5.799999999999955
 20
-37.99999999999994
 30
0.0
 40
0.4
  0
CIRCLE
  5
10632
330
A02
100
AcDbEntity
  8
pcb
100
AcDbCircle
 10
-5.799999999999955
 20
-35.99999999999994
 30
0.0
 40
0.4
  0
CIRCLE
  5
10633
330
A02
100
AcDbEntity
  8
pcb
100
AcDbCircle
 10
-5.799999999999955
 20
-33.99999999999994
 30
0.0
 40
0.4
  0
CIRCLE
  5
10634
330
A02
100
AcDbEntity
  8
pcb
100
AcDbCircle
 10
-5.799999999999955
 20
-31.99999999999994
 30
0.0
 40
0.4
  0
CIRCLE
  5
10635
330
A02
100
AcDbEntity
  8
pcb
100
AcDbCircle
 10
-5.799999999999955
 20
-29.99999999999994
 30
0.0
 40
0.4
  0
CIRCLE
  5
10636
330
A02
100
AcDbEntity
  8
pcb
100
AcDbCircle
 10
-5.799999999999955
 20
-27.99999999999994
 30
0.0
 40
0.4
  0
CIRCLE
  5
10637
330
A02
100
AcDbEntity
  8
pcb
100
AcDbCircle
 10
-5.799999999999955
 20
-25.99999999999994
 30
0.0
 40
0.4
  0
CIRCLE
  5
10638
330
A02
100
AcDbEntity
  8
pcb
100
AcDbCircle
 10
-5.799999999999955
 20
-23.99999999999994
 30
0.0
 40
0.4
  0
CIRCLE
  5
10639
330
A02
100
AcDbEntity
  8
pcb
100
AcDbCircle
 10
-5.799999999999955
 20
-21.99999999999994
 30
0.0
 40
0.4
  0
CIRCLE
  5
1063A
330
A02
100
AcDbEntity
  8
pcb
100
AcDbCircle
 10
-5.799999999999955
 20
-19.99999999999994
 30
0.0
 40
0.4
  0
CIRCLE
  5
1063B
330
A02
100
AcDbEntity
  8
pcb
100
AcDbCircle
 10
-5.799999999999955
 20
-17.99999999999994
 30
0.0
 40
0.4
  0
CIRCLE
  5
1063C
330
A02
100
AcDbEntity
  8
pcb
100
AcDbCircle
 10
-5.799999999999955
 20
18.00000000000007
 30
0.0
 40
0.4
  0
CIRCLE
  5
1063D
330
A02
100
AcDbEntity
  8
pcb
100
AcDbCircle
 10
-5.799999999999955
 20
20.00000000000007
 30
0.0
 40
0.4
  0
CIRCLE
  5
1063E
330
A02
100
AcDbEntity
  8
pcb
100
AcDbCircle
 10
-5.799999999999955
 20
22.00000000000007
 30
0.0
 40
0.4
  0
CIRCLE
  5
1063F
330
A02
100
AcDbEntity
  8
pcb
100
AcDbCircle
 10
-5.799999999999955
 20
24.00000000000007
 30
0.0
 40
0.4
  0
CIRCLE
  5
10640
330
A02
100
AcDbEntity
  8
pcb
100
AcDbCircle
 10
-5.799999999999955
 20
26.00000000000007
 30
0.0
 40
0.4
  0
CIRCLE
  5
10641
330
A02
100
AcDbEntity
  8
pcb
100
AcDbCircle
 10
-5.799999999999955
 20
28.00000000000007
 30
0.0
 40
0.4
  0
CIRCLE
  5
10642
330
A02
100
AcDbEntity
  8
pcb
100
AcDbCircle
 10
-5.799999999999955
 20
30.00000000000007
 30
0.0
 40
0.4
  0
CIRCLE
  5
10643
330
A02
100
AcDbEntity
  8
pcb
100
AcDbCircle
 10
-5.799999999999955
 20
32.00000000000007
 30
0.0
 40
0.4
  0
CIRCLE
  5
10644
330
A02
100
AcDbEntity
  8
pcb
100
AcDbCircle
 10
-5.799999999999955
 20
34.00000000000007
 30
0.0
 40
0.4
  0
CIRCLE
  5
10645
330
A02
100
AcDbEntity
  8
pcb
100
AcDbCircle
 10
-5.799999999999955
 20
36.00000000000007
 30
0.0
 40
0.4
  0
CIRCLE
  5
10646
330
A02
100
AcDbEntity
  8
pcb
100
AcDbCircle
 10
-5.799999999999955
 20
38.00000000000007
 30
0.0
 40
0.4
  0
CIRCLE
  5
10647
330
A02
100
AcDbEntity
  8
pcb
100
AcDbCircle
 10
-5.799999999999955
 20
40.00000000000007
 30
0.0
 40
0.4
  0
LWPOLYLINE
  5
10673
330
A02
100
AcDbEntity
  8
theirs
  6
ByBlock
100
AcDbPolyline
 90
        4
 70
     1
 43
0.0
 10
-58.0
 20
-58.00000000000002
 10
-58.0
 20
-12.00000000000001
 10
-12.0
 20
-12.00000000000001
 10
-12.0
 20
-58.00000000000002
  0
LWPOLYLINE
  5
10674
330
A02
100
AcDbEntity
  8
theirs
  6
ByBlock
100
AcDbPolyline
 90
        4
 70
     1
 43
0.0
 10
-59.5
 20
-59.50000000000001
 10
-59.5
 20
-10.50000000000001
 10
-10.5
 20
-10.50000000000001
 10
-10.5
 20
-59.50000000000001
  0
LWPOLYLINE
  5
10675
330
A02
100
AcDbEntity
  8
theirs
  6
ByBlock
100
AcDbPolyline
 90
        4
 70
     1
 43
0.0
 10
-60.14999999999998
 20
-60.15
 10
-60.14999999999998
 20
-9.850000000000001
 10
-9.849999999999966
 20
-9.850000000000001
 10
-9.849999999999966
 20
-60.15
  0
LWPOLYLINE
  5
10679
330
A02
100
AcDbEntity
  8
theirs
  6
ByBlock
100
AcDbPolyline
 90
        4
 70
     1
 43
0.0
 10
12.0
 20
-58.00000000000001
 10
12.0
 20
-11.99999999999999
 10
58.0
 20
-11.99999999999999
 10
58.0
 20
-58.00000000000001
  0
LWPOLYLINE
  5
1067A
330
A02
100
AcDbEntity
  8
theirs
  6
ByBlock
100
AcDbPolyline
 90
        4
 70
     1
 43
0.0
 10
10.5
 20
-59.49999999999999
 10
10.5
 20
-10.49999999999999
 10
59.5
 20
-10.49999999999999
 10
59.5
 20
-59.49999999999999
  0
LWPOLYLINE
  5
1067B
330
A02
100
AcDbEntity
  8
theirs
  6
ByBlock
100
AcDbPolyline
 90
        4
 70
     1
 43
0.0
 10
9.850000000000023
 20
-60.14999999999998
 10
9.850000000000023
 20
-9.849999999999987
 10
60.15000000000003
 20
-9.849999999999987
 10
60.15000000000003
 20
-60.14999999999998
  0
LWPOLYLINE
  5
1067D
330
A02
100
AcDbEntity
  8
theirs
  6
ByBlock
100
AcDbPolyline
 90
        4
 70
     1
 43
0.0
 10
-58.0
 20
11.99999999999998
 10
-58.0
 20
57.99999999999999
 10
-12.0
 20
57.99999999999999
 10
-12.0
 20
11.99999999999998
  0
LWPOLYLINE
  5
1067E
330
A02
100
AcDbEntity
  8
theirs
  6
ByBlock
100
AcDbPolyline
 90
        4
 70
     1
 43
0.0
 10
-59.5
 20
10.49999999999999
 10
-59.5
 20
59.49999999999999
 10
-10.5
 20
59.49999999999999
 10
-10.5
 20
10.49999999999999
  0
LWPOLYLINE
  5
1067F
330
A02
100
AcDbEntity
  8
theirs
  6
ByBlock
100
AcDbPolyline
 90
        4
 70
     1
 43
0.0
 10
-60.14999999999998
 20
9.850000000000001
 10
-60.14999999999998
 20
60.15
 10
-9.849999999999966
 20
60.15
 10
-9.849999999999966
 20
9.850000000000001
  0
LWPOLYLINE
  5
10681
330
A02
100
AcDbEntity
  8
theirs
  6
ByBlock
100
AcDbPolyline
 90
        4
 70
     1
 43
0.0
 10
12.0
 20
11.99999999999999
 10
12.0
 20
58.00000000000001
 10
58.0
 20
58.00000000000001
 10
58.0
 20
11.99999999999999
  0
LWPOLYLINE
  5
10682
330
A02
100
AcDbEntity
  8
theirs
  6
ByBlock
100
AcDbPolyline
 90
        4
 70
     1
 43
0.0
 10
10.5
 20
10.50000000000001
 10
10.5
 20
59.50000000000001
 10
59.5
 20
59.50000000000001
 10
59.5
 20
10.50000000000001
  0
LWPOLYLINE
  5
10683
330
A02
100
AcDbEntity
  8
theirs
  6
ByBlock
100
AcDbPolyline
 90
        4
 70
     1
 43
0.0
 10
9.850000000000023
 20
9.850000000000016
 10
9.850000000000023
 20
60.15000000000001
 10
60.15000000000003
 20
60.15000000000001
 10
60.15000000000003
 20
9.850000000000016
  0
CIRCLE
  5
1068C
330
A02
100
AcDbEntity
  8
pcb
100
AcDbCircle
 10
64.20000000000009
 20
-11.0
 30
0.0
 40
0.4
  0
CIRCLE
  5
1068D
330
A02
100
AcDbEntity
  8
pcb
100
AcDbCircle
 10
64.2000000000001
 20
-9.000000000000002
 30
0.0
 40
0.4
  0
CIRCLE
  5
1068E
330
A02
100
AcDbEntity
  8
pcb
100
AcDbCircle
 10
64.2000000000001
 20
-7.000000000000003
 30
0.0
 40
0.4
  0
CIRCLE
  5
1068F
330
A02
100
AcDbEntity
  8
pcb
100
AcDbCircle
 10
64.2000000000001
 20
-5.000000000000003
 30
0.0
 40
0.4
  0
CIRCLE
  5
10690
330
A02
100
AcDbEntity
  8
pcb
100
AcDbCircle
 10
64.20000000000012
 20
-3.000000000000003
 30
0.0
 40
0.4
  0
CIRCLE
  5
10691
330
A02
100
AcDbEntity
  8
pcb
100
AcDbCircle
 10
64.20000000000012
 20
-1.000000000000002
 30
0.0
 40
0.4
  0
CIRCLE
  5
10692
330
A02
100
AcDbEntity
  8
pcb
100
AcDbCircle
 10
64.20000000000012
 20
0.9999999999999976
 30
0.0
 40
0.4
  0
CIRCLE
  5
10693
330
A02
100
AcDbEntity
  8
pcb
100
AcDbCircle
 10
64.20000000000012
 20
2.999999999999997
 30
0.0
 40
0.4
  0
CIRCLE
  5
10694
330
A02
100
AcDbEntity
  8
pcb
100
AcDbCircle
 10
64.20000000000013
 20
4.999999999999997
 30
0.0
 40
0.4
  0
CIRCLE
  5
10695
330
A02
100
AcDbEntity
  8
pcb
100
AcDbCircle
 10
64.20000000000013
 20
7.000000000000012
 30
0.0
 40
0.4
  0
CIRCLE
  5
10696
330
A02
100
AcDbEntity
  8
pcb
100
AcDbCircle
 10
64.20000000000013
 20
9.000000000000012
 30
0.0
 40
0.4
  0
CIRCLE
  5
10697
330
A02
100
AcDbEntity
  8
pcb
100
AcDbCircle
 10
64.20000000000014
 20
11.00000000000001
 30
0.0
 40
0.4
  0
CIRCLE
  5
106A4
330
A02
100
AcDbEntity
  8
pcb
100
AcDbCircle
 10
-64.19999999999987
 20
-10.99999999999986
 30
0.0
 40
0.4
  0
CIRCLE
  5
106A5
330
A02
100
AcDbEntity
  8
pcb
100
AcDbCircle
 10
-64.19999999999987
 20
-8.999999999999858
 30
0.0
 40
0.4
  0
CIRCLE
  5
106A6
330
A02
100
AcDbEntity
  8
pcb
100
AcDbCircle
 10
-64.19999999999986
 20
-6.999999999999857
 30
0.0
 40
0.4
  0
CIRCLE
  5
106A7
330
A02
100
AcDbEntity
  8
pcb
100
AcDbCircle
 10
-64.19999999999986
 20
-4.999999999999857
 30
0.0
 40
0.4
  0
CIRCLE
  5
106A8
330
A02
100
AcDbEntity
  8
pcb
100
AcDbCircle
 10
-64.19999999999986
 20
-2.999999999999857
 30
0.0
 40
0.4
  0
CIRCLE
  5
106A9
330
A02
100
AcDbEntity
  8
pcb
100
AcDbCircle
 10
-64.19999999999985
 20
-0.9999999999998572
 30
0.0
 40
0.4
  0
CIRCLE
  5
106AA
330
A02
100
AcDbEntity
  8
pcb
100
AcDbCircle
 10
-64.19999999999985
 20
1.000000000000143
 30
0.0
 40
0.4
  0
CIRCLE
  5
106AB
330
A02
100
AcDbEntity
  8
pcb
100
AcDbCircle
 10
-64.19999999999983
 20
3.000000000000143
 30
0.0
 40
0.4
  0
CIRCLE
  5
106AC
330
A02
100
AcDbEntity
  8
pcb
100
AcDbCircle
 10
-64.19999999999983
 20
5.000000000000143
 30
0.0
 40
0.4
  0
CIRCLE
  5
106AD
330
A02
100
AcDbEntity
  8
pcb
100
AcDbCircle
 10
-64.19999999999983
 20
7.000000000000157
 30
0.0
 40
0.4
  0
CIRCLE
  5
106AE
330
A02
100
AcDbEntity
  8
pcb
100
AcDbCircle
 10
-64.19999999999982
 20
9.000000000000156
 30
0.0
 40
0.4
  0
CIRCLE
  5
106AF
330
A02
100
AcDbEntity
  8
pcb
100
AcDbCircle
 10
-64.19999999999982
 20
11.00000000000016
 30
0.0
 40
0.4
  0
CIRCLE
  5
106C5
330
A02
100
AcDbEntity
  8
pcb
100
AcDbCircle
 10
-54.99999999999999
 20
59.07500000000026
 30
0.0
 40
0.78
  0
CIRCLE
  5
106D6
330
A02
100
AcDbEntity
  8
pcb
100
AcDbCircle
 10
-14.99999999999999
 20
59.07499999999973
 30
0.0
 40
0.78
  0
CIRCLE
  5
106D7
330
A02
100
AcDbEntity
  8
pcb
100
AcDbCircle
 10
-33.74999999999999
 20
10.92499999999999
 30
0.0
 40
0.78
  0
CIRCLE
  5
106D8
330
A02
100
AcDbEntity
  8
pcb
100
AcDbCircle
 10
-36.24999999999999
 20
10.92499999999999
 30
0.0
 40
0.78
  0
CIRCLE
  5
106F2
330
A02
100
AcDbEntity
  8
pcb
100
AcDbCircle
 10
36.25000000000001
 20
59.07500000000001
 30
0.0
 40
0.78
  0
CIRCLE
  5
106F3
330
A02
100
AcDbEntity
  8
pcb
100
AcDbCircle
 10
33.75000000000001
 20
59.07500000000001
 30
0.0
 40
0.78
  0
CIRCLE
  5
106F4
330
A02
100
AcDbEntity
  8
pcb
100
AcDbCircle
 10
15.00000000000001
 20
59.07500000000027
 30
0.0
 40
0.78
  0
CIRCLE
  5
106F5
330
A02
100
AcDbEntity
  8
pcb
100
AcDbCircle
 10
55.00000000000001
 20
59.07499999999975
 30
0.0
 40
0.78
  0
CIRCLE
  5
106F6
330
A02
100
AcDbEntity
  8
pcb
100
AcDbCircle
 10
36.25000000000001
 20
10.925
 30
0.0
 40
0.78
  0
CIRCLE
  5
106F7
330
A02
100
AcDbEntity
  8
pcb
100
AcDbCircle
 10
33.75000000000001
 20
10.925
 30
0.0
 40
0.78
  0
CIRCLE
  5
10711
330
A02
100
AcDbEntity
  8
pcb
100
AcDbCircle
 10
36.25000000000001
 20
-10.92499999999999
 30
0.0
 40
0.78
  0
CIRCLE
  5
10712
330
A02
100
AcDbEntity
  8
pcb
100
AcDbCircle
 10
33.75000000000001
 20
-10.92499999999999
 30
0.0
 40
0.78
  0
CIRCLE
  5
10715
330
A02
100
AcDbEntity
  8
pcb
100
AcDbCircle
 10
36.25000000000001
 20
-59.075
 30
0.0
 40
0.78
  0
CIRCLE
  5
10716
330
A02
100
AcDbEntity
  8
pcb
100
AcDbCircle
 10
33.75000000000001
 20
-59.075
 30
0.0
 40
0.78
  0
CIRCLE
  5
10717
330
A02
100
AcDbEntity
  8
pcb
100
AcDbCircle
 10
15.00000000000001
 20
-59.07500000000026
 30
0.0
 40
0.78
  0
CIRCLE
  5
10718
330
A02
100
AcDbEntity
  8
pcb
100
AcDbCircle
 10
55.00000000000001
 20
-59.07499999999973
 30
0.0
 40
0.78
  0
CIRCLE
  5
10730
330
A02
100
AcDbEntity
  8
pcb
100
AcDbCircle
 10
-33.74999999999999
 20
-10.925
 30
0.0
 40
0.78
  0
CIRCLE
  5
10731
330
A02
100
AcDbEntity
  8
pcb
100
AcDbCircle
 10
-36.24999999999999
 20
-10.925
 30
0.0
 40
0.78
  0
CIRCLE
  5
10734
330
A02
100
AcDbEntity
  8
pcb
100
AcDbCircle
 10
-33.74999999999999
 20
-59.07500000000001
 30
0.0
 40
0.78
  0
CIRCLE
  5
10735
330
A02
100
AcDbEntity
  8
pcb
100
AcDbCircle
 10
-36.24999999999999
 20
-59.07500000000001
 30
0.0
 40
0.78
  0
CIRCLE
  5
10736
330
A02
100
AcDbEntity
  8
pcb
100
AcDbCircle
 10
-54.99999999999999
 20
-59.07500000000027
 30
0.0
 40
0.78
  0
CIRCLE
  5
10737
330
A02
100
AcDbEntity
  8
pcb
100
AcDbCircle
 10
-14.99999999999999
 20
-59.07499999999975
 30
0.0
 40
0.78
  0
CIRCLE
  5
10744
330
A02
100
AcDbEntity
  8
pcb
100
AcDbCircle
 10
64.2000000000001
 20
18.00000000000007
 30
0.0
 40
0.4
  0
CIRCLE
  5
10745
330
A02
100
AcDbEntity
  8
pcb
100
AcDbCircle
 10
64.2000000000001
 20
20.00000000000007
 30
0.0
 40
0.4
  0
CIRCLE
  5
10746
330
A02
100
AcDbEntity
  8
pcb
100
AcDbCircle
 10
64.2000000000001
 20
22.00000000000007
 30
0.0
 40
0.4
  0
CIRCLE
  5
10747
330
A02
100
AcDbEntity
  8
pcb
100
AcDbCircle
 10
64.2000000000001
 20
24.00000000000007
 30
0.0
 40
0.4
  0
CIRCLE
  5
10748
330
A02
100
AcDbEntity
  8
pcb
100
AcDbCircle
 10
64.2000000000001
 20
26.00000000000007
 30
0.0
 40
0.4
  0
CIRCLE
  5
10749
330
A02
100
AcDbEntity
  8
pcb
100
AcDbCircle
 10
64.2000000000001
 20
28.00000000000007
 30
0.0
 40
0.4
  0
CIRCLE
  5
1074A
330
A02
100
AcDbEntity
  8
pcb
100
AcDbCircle
 10
64.2000000000001
 20
30.00000000000007
 30
0.0
 40
0.4
  0
CIRCLE
  5
1074B
330
A02
100
AcDbEntity
  8
pcb
100
AcDbCircle
 10
64.2000000000001
 20
32.00000000000007
 30
0.0
 40
0.4
  0
CIRCLE
  5
1074C
330
A02
100
AcDbEntity
  8
pcb
100
AcDbCircle
 10
64.2000000000001
 20
34.00000000000007
 30
0.0
 40
0.4
  0
CIRCLE
  5
1074D
330
A02
100
AcDbEntity
  8
pcb
100
AcDbCircle
 10
64.2000000000001
 20
36.00000000000007
 30
0.0
 40
0.4
  0
CIRCLE
  5
1074E
330
A02
100
AcDbEntity
  8
pcb
100
AcDbCircle
 10
64.2000000000001
 20
38.00000000000007
 30
0.0
 40
0.4
  0
CIRCLE
  5
1074F
330
A02
100
AcDbEntity
  8
pcb
100
AcDbCircle
 10
64.2000000000001
 20
40.00000000000007
 30
0.0
 40
0.4
  0
CIRCLE
  5
10750
330
A02
100
AcDbEntity
  8
pcb
100
AcDbCircle
 10
15.00000000000004
 20
-59.07499999999973
 30
0.0
 40
0.78
  0
CIRCLE
  5
10751
330
A02
100
AcDbEntity
  8
pcb
100
AcDbCircle
 10
64.20000000000003
 20
-39.99999999999991
 30
0.0
 40
0.4
  0
CIRCLE
  5
10752
330
A02
100
AcDbEntity
  8
pcb
100
AcDbCircle
 10
64.20000000000003
 20
-37.99999999999991
 30
0.0
 40
0.4
  0
CIRCLE
  5
10753
330
A02
100
AcDbEntity
  8
pcb
100
AcDbCircle
 10
64.20000000000003
 20
-35.99999999999991
 30
0.0
 40
0.4
  0
CIRCLE
  5
10754
330
A02
100
AcDbEntity
  8
pcb
100
AcDbCircle
 10
64.20000000000002
 20
-33.99999999999991
 30
0.0
 40
0.4
  0
CIRCLE
  5
10755
330
A02
100
AcDbEntity
  8
pcb
100
AcDbCircle
 10
64.20000000000002
 20
-31.99999999999991
 30
0.0
 40
0.4
  0
CIRCLE
  5
10756
330
A02
100
AcDbEntity
  8
pcb
100
AcDbCircle
 10
64.20000000000002
 20
-29.99999999999991
 30
0.0
 40
0.4
  0
CIRCLE
  5
10757
330
A02
100
AcDbEntity
  8
pcb
100
AcDbCircle
 10
64.20000000000002
 20
-27.99999999999991
 30
0.0
 40
0.4
  0
CIRCLE
  5
10758
330
A02
100
AcDbEntity
  8
pcb
100
AcDbCircle
 10
64.20000000000002
 20
-25.99999999999991
 30
0.0
 40
0.4
  0
CIRCLE
  5
10759
330
A02
100
AcDbEntity
  8
pcb
100
AcDbCircle
 10
64.20000000000002
 20
-23.99999999999991
 30
0.0
 40
0.4
  0
CIRCLE
  5
1075A
330
A02
100
AcDbEntity
  8
pcb
100
AcDbCircle
 10
64.20000000000002
 20
-21.99999999999991
 30
0.0
 40
0.4
  0
CIRCLE
  5
1075B
330
A02
100
AcDbEntity
  8
pcb
100
AcDbCircle
 10
64.2
 20
-19.99999999999991
 30
0.0
 40
0.4
  0
CIRCLE
  5
1075C
330
A02
100
AcDbEntity
  8
pcb
100
AcDbCircle
 10
64.2
 20
-17.99999999999991
 30
0.0
 40
0.4
  0
CIRCLE
  5
1075D
330
A02
100
AcDbEntity
  8
pcb
100
AcDbCircle
 10
-5.800000000000097
 20
-68.99999999999994
 30
0.0
 40
0.4
  0
CIRCLE
  5
1075E
330
A02
100
AcDbEntity
  8
pcb
100
AcDbCircle
 10
-5.800000000000096
 20
-66.99999999999994
 30
0.0
 40
0.4
  0
CIRCLE
  5
1075F
330
A02
100
AcDbEntity
  8
pcb
100
AcDbCircle
 10
-5.800000000000096
 20
-64.99999999999994
 30
0.0
 40
0.4
  0
CIRCLE
  5
10760
330
A02
100
AcDbEntity
  8
pcb
100
AcDbCircle
 10
-5.800000000000096
 20
-62.99999999999994
 30
0.0
 40
0.4
  0
CIRCLE
  5
10761
330
A02
100
AcDbEntity
  8
pcb
100
AcDbCircle
 10
-5.800000000000095
 20
-60.99999999999994
 30
0.0
 40
0.4
  0
CIRCLE
  5
10762
330
A02
100
AcDbEntity
  8
pcb
100
AcDbCircle
 10
-5.800000000000095
 20
-58.99999999999994
 30
0.0
 40
0.4
  0
CIRCLE
  5
10763
330
A02
100
AcDbEntity
  8
pcb
100
AcDbCircle
 10
-5.800000000000094
 20
-56.99999999999994
 30
0.0
 40
0.4
  0
CIRCLE
  5
10764
330
A02
100
AcDbEntity
  8
pcb
100
AcDbCircle
 10
-5.800000000000094
 20
-54.99999999999994
 30
0.0
 40
0.4
  0
CIRCLE
  5
10765
330
A02
100
AcDbEntity
  8
pcb
100
AcDbCircle
 10
-5.800000000000093
 20
-52.99999999999994
 30
0.0
 40
0.4
  0
CIRCLE
  5
10766
330
A02
100
AcDbEntity
  8
pcb
100
AcDbCircle
 10
-5.800000000000093
 20
-50.99999999999994
 30
0.0
 40
0.4
  0
CIRCLE
  5
10767
330
A02
100
AcDbEntity
  8
pcb
100
AcDbCircle
 10
-5.800000000000092
 20
-48.99999999999994
 30
0.0
 40
0.4
  0
CIRCLE
  5
10768
330
A02
100
AcDbEntity
  8
pcb
100
AcDbCircle
 10
-5.800000000000092
 20
-46.99999999999994
 30
0.0
 40
0.4
  0
CIRCLE
  5
10769
330
A02
100
AcDbEntity
  8
pcb
100
AcDbCircle
 10
-5.800000000000085
 20
-10.99999999999994
 30
0.0
 40
0.4
  0
CIRCLE
  5
1076A
330
A02
100
AcDbEntity
  8
pcb
100
AcDbCircle
 10
-5.800000000000084
 20
-8.999999999999941
 30
0.0
 40
0.4
  0
CIRCLE
  5
1076B
330
A02
100
AcDbEntity
  8
pcb
100
AcDbCircle
 10
-5.800000000000084
 20
-6.999999999999942
 30
0.0
 40
0.4
  0
CIRCLE
  5
1076C
330
A02
100
AcDbEntity
  8
pcb
100
AcDbCircle
 10
-5.800000000000083
 20
-4.999999999999942
 30
0.0
 40
0.4
  0
CIRCLE
  5
1076D
330
A02
100
AcDbEntity
  8
pcb
100
AcDbCircle
 10
-5.800000000000083
 20
-2.999999999999942
 30
0.0
 40
0.4
  0
CIRCLE
  5
1076E
330
A02
100
AcDbEntity
  8
pcb
100
AcDbCircle
 10
-5.800000000000082
 20
-0.9999999999999419
 30
0.0
 40
0.4
  0
CIRCLE
  5
1076F
330
A02
100
AcDbEntity
  8
pcb
100
AcDbCircle
 10
-5.800000000000082
 20
1.000000000000058
 30
0.0
 40
0.4
  0
CIRCLE
  5
10770
330
A02
100
AcDbEntity
  8
pcb
100
AcDbCircle
 10
-5.800000000000082
 20
3.000000000000058
 30
0.0
 40
0.4
  0
CIRCLE
  5
10771
330
A02
100
AcDbEntity
  8
pcb
100
AcDbCircle
 10
-5.800000000000082
 20
5.000000000000058
 30
0.0
 40
0.4
  0
CIRCLE
  5
10772
330
A02
100
AcDbEntity
  8
pcb
100
AcDbCircle
 10
-5.800000000000081
 20
7.000000000000072
 30
0.0
 40
0.4
  0
CIRCLE
  5
10773
330
A02
100
AcDbEntity
  8
pcb
100
AcDbCircle
 10
-5.800000000000081
 20
9.000000000000073
 30
0.0
 40
0.4
  0
CIRCLE
  5
10774
330
A02
100
AcDbEntity
  8
pcb
100
AcDbCircle
 10
-5.80000000000008
 20
11.00000000000007
 30
0.0
 40
0.4
  0
CIRCLE
  5
10775
330
A02
100
AcDbEntity
  8
pcb
100
AcDbCircle
 10
-5.800000000000073
 20
47.00000000000007
 30
0.0
 40
0.4
  0
CIRCLE
  5
10776
330
A02
100
AcDbEntity
  8
pcb
100
AcDbCircle
 10
-5.800000000000073
 20
49.00000000000007
 30
0.0
 40
0.4
  0
CIRCLE
  5
10777
330
A02
100
AcDbEntity
  8
pcb
100
AcDbCircle
 10
-5.800000000000072
 20
51.00000000000007
 30
0.0
 40
0.4
  0
CIRCLE
  5
10778
330
A02
100
AcDbEntity
  8
pcb
100
AcDbCircle
 10
-5.800000000000072
 20
53.00000000000007
 30
0.0
 40
0.4
  0
CIRCLE
  5
10779
330
A02
100
AcDbEntity
  8
pcb
100
AcDbCircle
 10
-5.800000000000071
 20
55.00000000000007
 30
0.0
 40
0.4
  0
CIRCLE
  5
1077A
330
A02
100
AcDbEntity
  8
pcb
100
AcDbCircle
 10
-5.800000000000071
 20
57.00000000000007
 30
0.0
 40
0.4
  0
CIRCLE
  5
1077B
330
A02
100
AcDbEntity
  8
pcb
100
AcDbCircle
 10
-5.80000000000007
 20
59.00000000000007
 30
0.0
 40
0.4
  0
CIRCLE
  5
1077C
330
A02
100
AcDbEntity
  8
pcb
100
AcDbCircle
 10
-5.80000000000007
 20
61.00000000000007
 30
0.0
 40
0.4
  0
CIRCLE
  5
1077D
330
A02
100
AcDbEntity
  8
pcb
100
AcDbCircle
 10
-5.800000000000069
 20
63.00000000000007
 30
0.0
 40
0.4
  0
CIRCLE
  5
1077E
330
A02
100
AcDbEntity
  8
pcb
100
AcDbCircle
 10
-5.800000000000069
 20
65.00000000000007
 30
0.0
 40
0.4
  0
CIRCLE
  5
1077F
330
A02
100
AcDbEntity
  8
pcb
100
AcDbCircle
 10
-5.800000000000069
 20
67.00000000000007
 30
0.0
 40
0.4
  0
CIRCLE
  5
10780
330
A02
100
AcDbEntity
  8
pcb
100
AcDbCircle
 10
-5.800000000000068
 20
69.00000000000007
 30
0.0
 40
0.4
  0
CIRCLE
  5
10781
330
A02
100
AcDbEntity
  8
pcb
100
AcDbCircle
 10
-64.19999999999992
 20
-39.99999999999996
 30
0.0
 40
0.4
  0
CIRCLE
  5
10782
330
A02
100
AcDbEntity
  8
pcb
100
AcDbCircle
 10
-64.19999999999992
 20
-37.99999999999996
 30
0.0
 40
0.4
  0
CIRCLE
  5
10783
330
A02
100
AcDbEntity
  8
pcb
100
AcDbCircle
 10
-64.19999999999992
 20
-35.99999999999996
 30
0.0
 40
0.4
  0
CIRCLE
  5
10784
330
A02
100
AcDbEntity
  8
pcb
100
AcDbCircle
 10
-64.19999999999992
 20
-33.99999999999996
 30
0.0
 40
0.4
  0
CIRCLE
  5
10785
330
A02
100
AcDbEntity
  8
pcb
100
AcDbCircle
 10
-64.19999999999992
 20
-31.99999999999997
 30
0.0
 40
0.4
  0
CIRCLE
  5
10786
330
A02
100
AcDbEntity
  8
pcb
100
AcDbCircle
 10
-64.19999999999993
 20
-29.99999999999997
 30
0.0
 40
0.4
  0
CIRCLE
  5
10787
330
A02
100
AcDbEntity
  8
pcb
100
AcDbCircle
 10
-64.19999999999993
 20
-27.99999999999997
 30
0.0
 40
0.4
  0
CIRCLE
  5
10788
330
A02
100
AcDbEntity
  8
pcb
100
AcDbCircle
 10
-64.19999999999993
 20
-25.99999999999997
 30
0.0
 40
0.4
  0
CIRCLE
  5
10789
330
A02
100
AcDbEntity
  8
pcb
100
AcDbCircle
 10
-64.19999999999993
 20
-23.99999999999997
 30
0.0
 40
0.4
  0
CIRCLE
  5
1078A
330
A02
100
AcDbEntity
  8
pcb
100
AcDbCircle
 10
-64.19999999999993
 20
-21.99999999999997
 30
0.0
 40
0.4
  0
CIRCLE
  5
1078B
330
A02
100
AcDbEntity
  8
pcb
100
AcDbCircle
 10
-64.19999999999993
 20
-19.99999999999997
 30
0.0
 40
0.4
  0
CIRCLE
  5
1078C
330
A02
100
AcDbEntity
  8
pcb
100
AcDbCircle
 10
-64.19999999999993
 20
-17.99999999999997
 30
0.0
 40
0.4
  0
CIRCLE
  5
1078D
330
A02
100
AcDbEntity
  8
pcb
100
AcDbCircle
 10
-64.19999999999996
 20
18.00000000000005
 30
0.0
 40
0.4
  0
CIRCLE
  5
1078E
330
A02
100
AcDbEntity
  8
pcb
100
AcDbCircle
 10
-64.19999999999996
 20
20.00000000000005
 30
0.0
 40
0.4
  0
CIRCLE
  5
1078F
330
A02
100
AcDbEntity
  8
pcb
100
AcDbCircle
 10
-64.19999999999996
 20
22.00000000000005
 30
0.0
 40
0.4
  0
CIRCLE
  5
10790
330
A02
100
AcDbEntity
  8
pcb
100
AcDbCircle
 10
-64.19999999999996
 20
24.00000000000005
 30
0.0
 40
0.4
  0
CIRCLE
  5
10791
330
A02
100
AcDbEntity
  8
pcb
100
AcDbCircle
 10
-64.19999999999996
 20
26.00000000000005
 30
0.0
 40
0.4
  0
CIRCLE
  5
10792
330
A02
100
AcDbEntity
  8
pcb
100
AcDbCircle
 10
-64.19999999999996
 20
28.00000000000005
 30
0.0
 40
0.4
  0
CIRCLE
  5
10793
330
A02
100
AcDbEntity
  8
pcb
100
AcDbCircle
 10
-64.19999999999996
 20
30.00000000000005
 30
0.0
 40
0.4
  0
CIRCLE
  5
10794
330
A02
100
AcDbEntity
  8
pcb
100
AcDbCircle
 10
-64.19999999999997
 20
32.00000000000005
 30
0.0
 40
0.4
  0
CIRCLE
  5
10795
330
A02
100
AcDbEntity
  8
pcb
100
AcDbCircle
 10
-64.19999999999997
 20
34.00000000000005
 30
0.0
 40
0.4
  0
CIRCLE
  5
10796
330
A02
100
AcDbEntity
  8
pcb
100
AcDbCircle
 10
-64.19999999999997
 20
36.00000000000005
 30
0.0
 40
0.4
  0
CIRCLE
  5
10797
330
A02
100
AcDbEntity
  8
pcb
100
AcDbCircle
 10
-64.19999999999997
 20
38.00000000000005
 30
0.0
 40
0.4
  0
CIRCLE
  5
10798
330
A02
100
AcDbEntity
  8
pcb
100
AcDbCircle
 10
-64.19999999999997
 20
40.00000000000005
 30
0.0
 40
0.4
  0
LWPOLYLINE
  5
1081F
330
A02
100
AcDbEntity
  8
pcb
  6
ByBlock
100
AcDbPolyline
 90
        8
 70
     1
 43
0.0
 10
-57.62499999999998
 20
13.875
 10
-57.62499999999998
 20
56.125
 42
-0.414213562373095
 10
-56.12499999999998
 20
57.625
 10
-13.87499999999996
 20
57.625
 42
-0.414213562373095
 10
-12.37499999999996
 20
56.125
 10
-12.37499999999996
 20
13.875
 42
-0.414213562373095
 10
-13.87499999999996
 20
12.375
 10
-56.12499999999998
 20
12.375
 42
-0.414213562373095
  0
LWPOLYLINE
  5
10820
330
A02
100
AcDbEntity
  8
pcb
  6
ByBlock
100
AcDbPolyline
 90
        8
 70
     1
 43
0.0
 10
12.37500000000002
 20
13.87500000000001
 10
12.37500000000002
 20
56.12500000000001
 42
-0.414213562373095
 10
13.87500000000002
 20
57.62500000000001
 10
56.12500000000004
 20
57.62500000000001
 42
-0.414213562373095
 10
57.62500000000004
 20
56.12500000000001
 10
57.62500000000004
 20
13.87500000000001
 42
-0.414213562373095
 10
56.12500000000004
 20
12.37500000000001
 10
13.87500000000002
 20
12.37500000000001
 42
-0.414213562373095
  0
LWPOLYLINE
  5
10821
330
A02
100
AcDbEntity
  8
pcb
  6
ByBlock
100
AcDbPolyline
 90
        8
 70
     1
 43
0.0
 10
12.37500000000002
 20
-56.12499999999999
 10
12.37500000000002
 20
-13.87499999999999
 42
-0.414213562373095
 10
13.87500000000002
 20
-12.37499999999999
 10
56.12500000000004
 20
-12.37499999999999
 42
-0.414213562373095
 10
57.62500000000004
 20
-13.87499999999999
 10
57.62500000000004
 20
-56.12499999999999
 42
-0.414213562373095
 10
56.12500000000004
 20
-57.62499999999999
 10
13.87500000000002
 20
-57.62499999999999
 42
-0.414213562373095
  0
LWPOLYLINE
  5
10822
330
A02
100
AcDbEntity
  8
pcb
  6
ByBlock
100
AcDbPolyline
 90
        8
 70
     1
 43
0.0
 10
-57.62499999999998
 20
-56.125
 10
-57.62499999999998
 20
-13.875
 42
-0.414213562373095
 10
-56.12499999999998
 20
-12.375
 10
-13.87499999999996
 20
-12.375
 42
-0.414213562373095
 10
-12.37499999999996
 20
-13.875
 10
-12.37499999999996
 20
-56.125
 42
-0.414213562373095
 10
-13.87499999999996
 20
-57.625
 10
-56.12499999999998
 20
-57.625
 42
-0.414213562373095
  0
ENDSEC
  0
SECTION
  2
OBJECTS
  0
DICTIONARY
  5
F000
330
0
100
AcDbDictionary
281
     1
  3
ACAD_DETAILVIEWSTYLE
350
104D2
  3
ACAD_GROUP
350
F001
  3
ACAD_LAYOUT
350
10026
  3
ACAD_MATERIAL
350
10042
  3
ACAD_MLEADERSTYLE
350
10048
  3
ACAD_MLINESTYLE
350
FFFF
  3
ACAD_PLOTSETTINGS
350
10001
  3
ACAD_PLOTSTYLENAME
350
10002
  3
ACAD_SCALELIST
350
10004
  3
ACAD_SECTIONVIEWSTYLE
350
104D3
  3
ACAD_TABLESTYLE
350
10046
  3
ACAD_VISUALSTYLE
350
10029
  3
ACDB_RECOMPOSE_DATA
350
10838
  3
AcDbVariableDictionary
350
104CD
  3
APPDATA
350
1004A
  0
SUN
  5
10835
330
21
100
AcDbSun
 90
        1
290
     0
 63
     7
421
 16777215
 40
1.0
291
     1
 91
  2455826
 92
 54000000
292
     0
 70
     2
 71
   256
280
     1
  0
DICTIONARY
  5
104C4
330
B0C
100
AcDbDictionary
280
     1
281
     1
  3
ACAD_LAYERSTATES
360
104C5
  3
ACLYDICTIONARY
360
10534
  0
DICTIONARY
  5
104D2
102
{ACAD_REACTORS
330
F000
102
}
330
F000
100
AcDbDictionary
281
     1
  0
DICTIONARY
  5
F001
330
F000
100
AcDbDictionary
281
     1
  0
DICTIONARY
  5
10026
102
{ACAD_REACTORS
330
F000
102
}
330
F000
100
AcDbDictionary
281
     1
  3
Model
350
10027
  3
Sheet 1
350
10028
  0
DICTIONARY
  5
10042
102
{ACAD_REACTORS
330
F000
102
}
330
F000
100
AcDbDictionary
281
     1
  3
ByBlock
350
10044
  3
ByLayer
350
10043
  3
Global
350
10045
  0
DICTIONARY
  5
10048
102
{ACAD_REACTORS
330
F000
102
}
330
F000
100
AcDbDictionary
281
     1
  3
Standard
350
10049
  0
DICTIONARY
  5
FFFF
102
{ACAD_REACTORS
330
F000
102
}
330
F000
100
AcDbDictionary
281
     1
  3
Standard
350
10000
  0
DICTIONARY
  5
10001
102
{ACAD_REACTORS
330
F000
102
}
330
F000
100
AcDbDictionary
281
     1
  0
ACDBDICTIONARYWDFLT
  5
10002
102
{ACAD_REACTORS
330
F000
102
}
330
F000
100
AcDbDictionary
281
     1
  3
Normal
350
10003
100
AcDbDictionaryWithDefault
340
10003
  0
DICTIONARY
  5
10004
102
{ACAD_REACTORS
330
F000
102
}
330
F000
100
AcDbDictionary
281
     1
  3
A0
350
10005
  3
A1
350
10006
  3
A2
350
10007
  3
A3
350
10008
  3
A4
350
10009
  3
A5
350
1000A
  3
A6
350
1000B
  3
A7
350
1000C
  3
A8
350
1000D
  3
A9
350
1000E
  3
B0
350
1000F
  3
B1
350
10010
  3
B2
350
10011
  3
B3
350
10012
  3
B4
350
10013
  3
B5
350
10014
  3
B6
350
10015
  3
B7
350
10016
  3
B8
350
10017
  3
B9
350
10018
  3
C0
350
10019
  3
C1
350
1001A
  3
C2
350
1001B
  3
C3
350
1001C
  3
C4
350
1001D
  3
C5
350
1001E
  3
C6
350
1001F
  3
C7
350
10020
  3
C8
350
10021
  3
C9
350
10022
  3
D0
350
10023
  3
D1
350
10024
  3
D2
350
10025
  0
DICTIONARY
  5
104D3
102
{ACAD_REACTORS
330
F000
102
}
330
F000
100
AcDbDictionary
281
     1
  0
DICTIONARY
  5
10046
102
{ACAD_REACTORS
330
F000
102
}
330
F000
100
AcDbDictionary
281
     1
  3
Standard
350
10047
  0
DICTIONARY
  5
10029
102
{ACAD_REACTORS
330
F000
102
}
330
F000
100
AcDbDictionary
281
     1
  3
2dWireframe
350
1002E
  3
Basic
350
10031
  3
Brighten
350
10035
  3
ColorChange
350
10039
  3
Conceptual
350
10033
  3
Dim
350
10034
  3
EdgeColorOff
350
1003C
  3
Facepattern
350
10038
  3
Flat
350
1002A
  3
FlatWithEdges
350
1002B
  3
Gouraud
350
1002C
  3
GouraudWithEdges
350
1002D
  3
Hidden
350
10030
  3
JitterOff
350
1003A
  3
Linepattern
350
10037
  3
OverhangOff
350
1003B
  3
Realistic
350
10032
  3
Shaded
350
10041
  3
Shaded with edges
350
10040
  3
Shades of Gray
350
1003D
  3
Sketchy
350
1003E
  3
Thicken
350
10036
  3
Wireframe
350
1002F
  3
X-Ray
350
1003F
  0
XRECORD
  5
10838
102
{ACAD_REACTORS
330
F000
102
}
330
F000
100
AcDbXrecord
280
     1
 90
        1
330
10047
  0
DICTIONARY
  5
104CD
102
{ACAD_REACTORS
330
F000
102
}
330
F000
100
AcDbDictionary
281
     1
  3
CANNOSCALE
350
104CE
  3
CMLEADERSTYLE
350
104D0
  3
CTABLESTYLE
350
104CF
  3
MSLTSCALE
350
104D1
  0
DICTIONARY
  5
1004A
102
{ACAD_REACTORS
330
F000
102
}
330
F000
100
AcDbDictionary
281
     1
  0
DICTIONARY
  5
104C5
102
{ACAD_REACTORS
330
104C4
102
}
330
104C4
100
AcDbDictionary
281
     1
  0
DICTIONARY
  5
10534
102
{ACAD_REACTORS
330
104C4
102
}
330
104C4
100
AcDbDictionary
281
     1
1001
ACAD
1000
<All
  0
LAYOUT
  5
10027
102
{ACAD_REACTORS
330
10026
102
}
330
10026
100
AcDbPlotSettings
  1

  2
none_device
  4
Letter_(8.50_x_11.00_Inches)
  6

 40
6.35
 41
6.35
 42
6.35
 43
6.35
 44
215.9
 45
279.4
 46
0.0
 47
0.0
 48
0.0
 49
0.0
140
0.0
141
0.0
142
1.0
143
2.21959459445662
 70
  1712
 72
     0
 73
     0
 74
     0
  7

 75
     0
 76
     0
 77
     2
 78
   300
147
0.4505327245333333
148
-39.40881537143161
149
0.0
100
AcDbLayout
  1
Model
 70
     1
 71
     0
 10
0.0
 20
0.0
 11
12.0
 21
9.0
 12
0.0
 22
0.0
 32
0.0
 14
-65.20000000000005
 24
-70.69999999999997
 34
0.0
 15
1229.02073922821
 25
690.8993346742108
 35
0.0
146
0.0
 13
0.0
 23
0.0
 33
0.0
 16
1.0
 26
0.0
 36
0.0
 17
0.0
 27
1.0
 37
0.0
 76
     0
330
A02
331
21
  0
LAYOUT
  5
10028
102
{ACAD_REACTORS
330
10026
102
}
330
10026
100
AcDbPlotSettings
  1

  2
none_device
  4

  6

 40
0.0
 41
0.0
 42
0.0
 43
0.0
 44
0.0
 45
0.0
 46
0.0
 47
0.0
 48
0.0
 49
0.0
140
0.0
141
0.0
142
1.0
143
1.0
 70
   688
 72
     0
 73
     0
 74
     5
  7

 75
    16
 76
     0
 77
     2
 78
   300
147
1.0
148
0.0
149
0.0
100
AcDbLayout
  1
Sheet 1
 70
     1
 71
     1
 10
0.0
 20
0.0
 11
0.0
 21
0.0
 12
0.0
 22
0.0
 32
0.0
 14
0.0
 24
0.0
 34
0.0
 15
50.0
 25
50.0
 35
50.0
146
0.0
 13
0.0
 23
0.0
 33
0.0
 16
1.0
 26
0.0
 36
0.0
 17
0.0
 27
1.0
 37
0.0
 76
     0
330
A03
  0
MATERIAL
  5
10044
102
{ACAD_REACTORS
330
10042
102
}
330
10042
100
AcDbMaterial
  1
ByBlock
 72
     1
 94
      127
  0
MATERIAL
  5
10043
102
{ACAD_REACTORS
330
10042
102
}
330
10042
100
AcDbMaterial
  1
ByLayer
 72
     1
 94
      127
  0
MATERIAL
  5
10045
102
{ACAD_REACTORS
330
10042
102
}
330
10042
100
AcDbMaterial
  1
Global
 72
     1
 94
      127
  0
MLEADERSTYLE
  5
10049
102
{ACAD_REACTORS
330
10048
102
}
330
10048
100
AcDbMLeaderStyle
179
     2
170
     2
171
     1
172
     0
 90
        2
 40
0.0
 41
0.0
173
     1
 91
-1056964608
340
23
 92
       -2
290
     1
 42
0.09
291
     1
 43
0.36
  3
Standard
341
0
 44
0.18
300

342
71
174
     1
178
     1
175
     1
176
     0
 93
-1056964608
 45
0.18
292
     0
297
     0
 46
0.18
343
0
 94
-1056964608
 47
1.0
 49
1.0
140
1.0
293
     1
141
0.0
294
     1
177
     0
142
1.0
295
     0
296
     0
143
0.125
271
     0
272
     9
273
     9
298
     0
  0
MLINESTYLE
  5
10000
102
{ACAD_REACTORS
330
FFFF
102
}
330
FFFF
100
AcDbMlineStyle
  2
Standard
 70
     0
  3

 62
   256
 51
90.0
 52
90.0
 71
     2
 49
0.5
 62
   256
  6
BYLAYER
 49
-0.5
 62
   256
  6
BYLAYER
  0
ACDBPLACEHOLDER
  5
10003
102
{ACAD_REACTORS
330
10002
102
}
330
10002
  0
SCALE
  5
10005
102
{ACAD_REACTORS
330
10004
102
}
330
10004
100
AcDbScale
 70
     0
300
1:1
140
1.0
141
1.0
290
     1
  0
SCALE
  5
10006
102
{ACAD_REACTORS
330
10004
102
}
330
10004
100
AcDbScale
 70
     0
300
1:2
140
1.0
141
2.0
290
     0
  0
SCALE
  5
10007
102
{ACAD_REACTORS
330
10004
102
}
330
10004
100
AcDbScale
 70
     0
300
1:4
140
1.0
141
4.0
290
     0
  0
SCALE
  5
10008
102
{ACAD_REACTORS
330
10004
102
}
330
10004
100
AcDbScale
 70
     0
300
1:5
140
1.0
141
5.0
290
     0
  0
SCALE
  5
10009
102
{ACAD_REACTORS
330
10004
102
}
330
10004
100
AcDbScale
 70
     0
300
1:8
140
1.0
141
8.0
290
     0
  0
SCALE
  5
1000A
102
{ACAD_REACTORS
330
10004
102
}
330
10004
100
AcDbScale
 70
     0
300
1:10
140
1.0
141
10.0
290
     0
  0
SCALE
  5
1000B
102
{ACAD_REACTORS
330
10004
102
}
330
10004
100
AcDbScale
 70
     0
300
1:16
140
1.0
141
16.0
290
     0
  0
SCALE
  5
1000C
102
{ACAD_REACTORS
330
10004
102
}
330
10004
100
AcDbScale
 70
     0
300
1:20
140
1.0
141
20.0
290
     0
  0
SCALE
  5
1000D
102
{ACAD_REACTORS
330
10004
102
}
330
10004
100
AcDbScale
 70
     0
300
1:30
140
1.0
141
30.0
290
     0
  0
SCALE
  5
1000E
102
{ACAD_REACTORS
330
10004
102
}
330
10004
100
AcDbScale
 70
     0
300
1:40
140
1.0
141
40.0
290
     0
  0
SCALE
  5
1000F
102
{ACAD_REACTORS
330
10004
102
}
330
10004
100
AcDbScale
 70
     0
300
1:50
140
1.0
141
50.0
290
     0
  0
SCALE
  5
10010
102
{ACAD_REACTORS
330
10004
102
}
330
10004
100
AcDbScale
 70
     0
300
1:100
140
1.0
141
100.0
290
     0
  0
SCALE
  5
10011
102
{ACAD_REACTORS
330
10004
102
}
330
10004
100
AcDbScale
 70
     0
300
2:1
140
2.0
141
1.0
290
     0
  0
SCALE
  5
10012
102
{ACAD_REACTORS
330
10004
102
}
330
10004
100
AcDbScale
 70
     0
300
4:1
140
4.0
141
1.0
290
     0
  0
SCALE
  5
10013
102
{ACAD_REACTORS
330
10004
102
}
330
10004
100
AcDbScale
 70
     0
300
8:1
140
8.0
141
1.0
290
     0
  0
SCALE
  5
10014
102
{ACAD_REACTORS
330
10004
102
}
330
10004
100
AcDbScale
 70
     0
300
10:1
140
10.0
141
1.0
290
     0
  0
SCALE
  5
10015
102
{ACAD_REACTORS
330
10004
102
}
330
10004
100
AcDbScale
 70
     0
300
100:1
140
100.0
141
1.0
290
     0
  0
SCALE
  5
10016
102
{ACAD_REACTORS
330
10004
102
}
330
10004
100
AcDbScale
 70
     0
300
1/128" = 1'-0"
140
0.0078125
141
12.0
290
     0
  0
SCALE
  5
10017
102
{ACAD_REACTORS
330
10004
102
}
330
10004
100
AcDbScale
 70
     0
300
1/64" = 1'-0"
140
0.015625
141
12.0
290
     0
  0
SCALE
  5
10018
102
{ACAD_REACTORS
330
10004
102
}
330
10004
100
AcDbScale
 70
     0
300
1/32" = 1'-0"
140
0.03125
141
12.0
290
     0
  0
SCALE
  5
10019
102
{ACAD_REACTORS
330
10004
102
}
330
10004
100
AcDbScale
 70
     0
300
1/16" = 1'-0"
140
0.0625
141
12.0
290
     0
  0
SCALE
  5
1001A
102
{ACAD_REACTORS
330
10004
102
}
330
10004
100
AcDbScale
 70
     0
300
3/32" = 1'-0"
140
0.09375
141
12.0
290
     0
  0
SCALE
  5
1001B
102
{ACAD_REACTORS
330
10004
102
}
330
10004
100
AcDbScale
 70
     0
300
1/8" = 1'-0"
140
0.125
141
12.0
290
     0
  0
SCALE
  5
1001C
102
{ACAD_REACTORS
330
10004
102
}
330
10004
100
AcDbScale
 70
     0
300
3/16" = 1'-0"
140
0.1875
141
12.0
290
     0
  0
SCALE
  5
1001D
102
{ACAD_REACTORS
330
10004
102
}
330
10004
100
AcDbScale
 70
     0
300
1/4" = 1'-0"
140
0.25
141
12.0
290
     0
  0
SCALE
  5
1001E
102
{ACAD_REACTORS
330
10004
102
}
330
10004
100
AcDbScale
 70
     0
300
3/8" = 1'-0"
140
0.375
141
12.0
290
     0
  0
SCALE
  5
1001F
102
{ACAD_REACTORS
330
10004
102
}
330
10004
100
AcDbScale
 70
     0
300
1/2" = 1'-0"
140
0.5
141
12.0
290
     0
  0
SCALE
  5
10020
102
{ACAD_REACTORS
330
10004
102
}
330
10004
100
AcDbScale
 70
     0
300
3/4" = 1'-0"
140
0.75
141
12.0
290
     0
  0
SCALE
  5
10021
102
{ACAD_REACTORS
330
10004
102
}
330
10004
100
AcDbScale
 70
     0
300
1" = 1'-0"
140
1.0
141
12.0
290
     0
  0
SCALE
  5
10022
102
{ACAD_REACTORS
330
10004
102
}
330
10004
100
AcDbScale
 70
     0
300
1-1/2" = 1'-0"
140
1.5
141
12.0
290
     0
  0
SCALE
  5
10023
102
{ACAD_REACTORS
330
10004
102
}
330
10004
100
AcDbScale
 70
     0
300
3" = 1'-0"
140
3.0
141
12.0
290
     0
  0
SCALE
  5
10024
102
{ACAD_REACTORS
330
10004
102
}
330
10004
100
AcDbScale
 70
     0
300
6" = 1'-0"
140
6.0
141
12.0
290
     0
  0
SCALE
  5
10025
102
{ACAD_REACTORS
330
10004
102
}
330
10004
100
AcDbScale
 70
     0
300
1'-0" = 1'-0"
140
12.0
141
12.0
290
     0
  0
TABLESTYLE
  5
10047
102
{ACAD_REACTORS
330
10046
102
}
102
{ACAD_XDICTIONARY
360
10836
102
}
330
10046
100
AcDbTableStyle
  3
Standard
 70
     0
 71
     0
 40
0.06
 41
0.06
280
     0
281
     0
  7
STANDARD
140
0.18
170
     2
 62
     0
 63
   257
283
     0
 90
        4
 91
        0
  1

274
    -2
284
     1
 64
     0
275
    -2
285
     1
 65
     0
276
    -2
286
     1
 66
     0
277
    -2
287
     1
 67
     0
278
    -2
288
     1
 68
     0
279
    -2
289
     1
 69
     0
  7
STANDARD
140
0.25
170
     5
 62
     0
 63
   257
283
     0
 90
        4
 91
        0
  1

274
    -2
284
     1
 64
     0
275
    -2
285
     1
 65
     0
276
    -2
286
     1
 66
     0
277
    -2
287
     1
 67
     0
278
    -2
288
     1
 68
     0
279
    -2
289
     1
 69
     0
  7
STANDARD
140
0.18
170
     5
 62
     0
 63
   257
283
     0
 90
        4
 91
        0
  1

274
    -2
284
     1
 64
     0
275
    -2
285
     1
 65
     0
276
    -2
286
     1
 66
     0
277
    -2
287
     1
 67
     0
278
    -2
288
     1
 68
     0
279
    -2
289
     1
 69
     0
  0
VISUALSTYLE
  5
1002E
102
{ACAD_REACTORS
330
10029
102
}
330
10029
100
AcDbVisualStyle
  2
2dWireframe
 70
     4
177
     3
291
     0
 70
    58
 90
        0
176
     1
 90
        2
176
     1
 90
        0
176
     1
 90
        0
176
     1
 40
0.6
176
     1
 40
30.0
176
     1
 62
     7
420
 16777215
176
     1
 90
        1
176
     1
 90
        4
176
     1
 62
     7
176
     1
 62
   257
176
     1
 90
        1
176
     1
 90
        1
176
     1
 40
1.0
176
     1
 90
        0
176
     1
 62
   257
176
     1
 40
1.0
176
     1
 90
        1
176
     1
 90
        6
176
     1
 90
        2
176
     1
 62
     7
176
     1
 90
        5
176
     1
 90
        0
176
     1
 90
        0
176
     1
290
     0
176
     1
 90
        1
176
     1
 40
0.0
176
     1
 90
        0
176
     1
290
     1
176
     1
290
     1
176
     1
290
     0
176
     1
290
     0
176
     1
290
     0
176
     1
290
     0
176
     1
290
     0
176
     1
290
     0
176
     1
290
     0
176
     1
 90
       50
176
     1
 40
0.0
176
     1
 40
1.0
176
     1
 90
        0
176
     1
 62
   178
420
        0
176
     1
 90
       50
176
     1
 90
        3
176
     1
 62
     5
420
      255
176
     1
290
     0
176
     1
 90
       50
176
     1
 90
       50
176
     1
 90
       50
176
     1
290
     0
176
     1
 90
       50
176
     1
 62
   256
176
     0
 40
1.0
176
     0
 90
        2
176
     1
  1
strokes_ogs.tif
176
     1
290
     0
176
     1
 40
1.0
176
     1
 40
1.0
176
     1
  0
VISUALSTYLE
  5
10031
102
{ACAD_REACTORS
330
10029
102
}
330
10029
100
AcDbVisualStyle
  2
Basic
 70
     7
177
     3
291
     1
 70
    58
 90
        1
176
     1
 90
        0
176
     1
 90
        1
176
     1
 90
        0
176
     1
 40
0.6
176
     1
 40
30.0
176
     1
 62
     7
420
 16777215
176
     1
 90
        0
176
     1
 90
        4
176
     1
 62
     7
176
     1
 62
   257
176
     1
 90
        1
176
     1
 90
        1
176
     1
 40
1.0
176
     1
 90
        8
176
     1
 62
     7
176
     1
 40
1.0
176
     1
 90
        1
176
     1
 90
        6
176
     1
 90
        2
176
     1
 62
     7
176
     1
 90
        5
176
     1
 90
        0
176
     1
 90
        0
176
     1
290
     0
176
     1
 90
        1
176
     1
 40
0.0
176
     1
 90
        0
176
     1
290
     0
176
     1
290
     1
176
     1
290
     1
176
     1
290
     0
176
     1
290
     0
176
     1
290
     0
176
     1
290
     0
176
     1
290
     0
176
     1
290
     0
176
     1
 90
       50
176
     1
 40
0.0
176
     1
 40
1.0
176
     1
 90
        0
176
     1
 62
   178
420
        0
176
     1
 90
       50
176
     1
 90
        3
176
     1
 62
     5
420
      255
176
     1
290
     0
176
     1
 90
       50
176
     1
 90
       50
176
     1
 90
       50
176
     1
290
     0
176
     1
 90
       50
176
     1
 62
   256
176
     0
 40
1.0
176
     0
 90
        2
176
     1
  1
strokes_ogs.tif
176
     1
290
     0
176
     1
 40
1.0
176
     1
 40
1.0
176
     1
  0
VISUALSTYLE
  5
10035
102
{ACAD_REACTORS
330
10029
102
}
330
10029
100
AcDbVisualStyle
  2
Brighten
 70
    12
177
     3
291
     1
 70
    58
 90
        2
176
     1
 90
        2
176
     1
 90
        0
176
     1
 90
        0
176
     1
 40
0.6
176
     1
 40
30.0
176
     1
 62
     7
420
 16777215
176
     1
 90
        1
176
     1
 90
        4
176
     1
 62
     7
176
     1
 62
   257
176
     1
 90
        1
176
     1
 90
        1
176
     1
 40
1.0
176
     1
 90
        8
176
     1
 62
     7
176
     1
 40
1.0
176
     1
 90
        1
176
     1
 90
        6
176
     1
 90
        2
176
     1
 62
     7
176
     1
 90
        5
176
     1
 90
        0
176
     1
 90
        0
176
     1
290
     0
176
     1
 90
        1
176
     1
 40
50.0
176
     1
 90
        0
176
     1
290
     0
176
     1
290
     1
176
     1
290
     1
176
     1
290
     0
176
     1
290
     0
176
     1
290
     0
176
     1
290
     0
176
     1
290
     0
176
     1
290
     0
176
     1
 90
       50
176
     1
 40
0.0
176
     1
 40
1.0
176
     1
 90
        0
176
     1
 62
   178
420
        0
176
     1
 90
       50
176
     1
 90
        3
176
     1
 62
     5
420
      255
176
     1
290
     0
176
     1
 90
       50
176
     1
 90
       50
176
     1
 90
       50
176
     1
290
     0
176
     1
 90
       50
176
     1
 62
   256
176
     0
 40
1.0
176
     0
 90
        2
176
     1
  1
strokes_ogs.tif
176
     1
290
     0
176
     1
 40
1.0
176
     1
 40
1.0
176
     1
  0
VISUALSTYLE
  5
10039
102
{ACAD_REACTORS
330
10029
102
}
330
10029
100
AcDbVisualStyle
  2
ColorChange
 70
    16
177
     3
291
     1
 70
    58
 90
        2
176
     1
 90
        2
176
     1
 90
        3
176
     1
 90
        0
176
     1
 40
0.6
176
     1
 40
30.0
176
     1
 62
     8
420
  8421504
176
     1
 90
        1
176
     1
 90
        4
176
     1
 62
     7
176
     1
 62
   257
176
     1
 90
        1
176
     1
 90
        1
176
     1
 40
1.0
176
     1
 90
        8
176
     1
 62
     8
420
  8421504
176
     1
 40
1.0
176
     1
 90
        1
176
     1
 90
        6
176
     1
 90
        2
176
     1
 62
     7
176
     1
 90
        5
176
     1
 90
        0
176
     1
 90
        0
176
     1
290
     0
176
     1
 90
        1
176
     1
 40
0.0
176
     1
 90
        0
176
     1
290
     0
176
     1
290
     1
176
     1
290
     1
176
     1
290
     0
176
     1
290
     0
176
     1
290
     0
176
     1
290
     0
176
     1
290
     0
176
     1
290
     0
176
     1
 90
       50
176
     1
 40
0.0
176
     1
 40
1.0
176
     1
 90
        0
176
     1
 62
   178
420
        0
176
     1
 90
       50
176
     1
 90
        3
176
     1
 62
     5
420
      255
176
     1
290
     0
176
     1
 90
       50
176
     1
 90
       50
176
     1
 90
       50
176
     1
290
     0
176
     1
 90
       50
176
     1
 62
   256
176
     0
 40
1.0
176
     0
 90
        2
176
     1
  1
strokes_ogs.tif
176
     1
290
     0
176
     1
 40
1.0
176
     1
 40
1.0
176
     1
  0
VISUALSTYLE
  5
10033
102
{ACAD_REACTORS
330
10029
102
}
330
10029
100
AcDbVisualStyle
  2
Conceptual
 70
     9
177
     3
291
     0
 70
    58
 90
        3
176
     1
 90
        2
176
     1
 90
        0
176
     1
 90
        0
176
     1
 40
0.6
176
     1
 40
30.0
176
     1
 62
     7
420
 16777215
176
     1
 90
        2
176
     1
 90
        2
176
     1
 62
     7
176
     1
 62
   257
176
     1
 90
        1
176
     1
 90
        1
176
     1
 40
179.0
176
     1
 90
        8
176
     1
 62
     7
176
     1
 40
1.0
176
     1
 90
        1
176
     1
 90
        6
176
     1
 90
        2
176
     1
 62
     7
176
     1
 90
        3
176
     1
 90
        0
176
     1
 90
        0
176
     1
290
     0
176
     1
 90
        1
176
     1
 40
0.0
176
     1
 90
        0
176
     1
290
     0
176
     1
290
     1
176
     1
290
     1
176
     1
290
     0
176
     1
290
     0
176
     1
290
     0
176
     1
290
     0
176
     1
290
     0
176
     1
290
     0
176
     1
 90
       50
176
     1
 40
0.0
176
     1
 40
1.0
176
     1
 90
        0
176
     1
 62
   178
420
        0
176
     1
 90
       50
176
     1
 90
        3
176
     1
 62
     5
420
      255
176
     1
290
     0
176
     1
 90
       50
176
     1
 90
       50
176
     1
 90
       50
176
     1
290
     0
176
     1
 90
       50
176
     1
 62
   256
176
     0
 40
1.0
176
     0
 90
        2
176
     1
  1
strokes_ogs.tif
176
     1
290
     0
176
     1
 40
1.0
176
     1
 40
1.0
176
     1
  0
VISUALSTYLE
  5
10034
102
{ACAD_REACTORS
330
10029
102
}
330
10029
100
AcDbVisualStyle
  2
Dim
 70
    11
177
     3
291
     1
 70
    58
 90
        2
176
     1
 90
        2
176
     1
 90
        0
176
     1
 90
        0
176
     1
 40
0.6
176
     1
 40
30.0
176
     1
 62
     7
420
 16777215
176
     1
 90
        1
176
     1
 90
        4
176
     1
 62
     7
176
     1
 62
   257
176
     1
 90
        1
176
     1
 90
        1
176
     1
 40
1.0
176
     1
 90
        8
176
     1
 62
     7
176
     1
 40
1.0
176
     1
 90
        1
176
     1
 90
        6
176
     1
 90
        2
176
     1
 62
     7
176
     1
 90
        5
176
     1
 90
        0
176
     1
 90
        0
176
     1
290
     0
176
     1
 90
        1
176
     1
 40
-50.0
176
     1
 90
        0
176
     1
290
     0
176
     1
290
     1
176
     1
290
     1
176
     1
290
     0
176
     1
290
     0
176
     1
290
     0
176
     1
290
     0
176
     1
290
     0
176
     1
290
     0
176
     1
 90
       50
176
     1
 40
0.0
176
     1
 40
1.0
176
     1
 90
        0
176
     1
 62
   178
420
        0
176
     1
 90
       50
176
     1
 90
        3
176
     1
 62
     5
420
      255
176
     1
290
     0
176
     1
 90
       50
176
     1
 90
       50
176
     1
 90
       50
176
     1
290
     0
176
     1
 90
       50
176
     1
 62
   256
176
     0
 40
1.0
176
     0
 90
        2
176
     1
  1
strokes_ogs.tif
176
     1
290
     0
176
     1
 40
1.0
176
     1
 40
1.0
176
     1
  0
VISUALSTYLE
  5
1003C
102
{ACAD_REACTORS
330
10029
102
}
330
10029
100
AcDbVisualStyle
  2
EdgeColorOff
 70
    22
177
     3
291
     1
 70
    58
 90
        2
176
     0
 90
        2
176
     0
 90
        0
176
     0
 90
        0
176
     0
 40
0.6
176
     0
 40
30.0
176
     0
 62
     7
420
 16777215
176
     0
 90
        1
176
     0
 90
        4
176
     0
 62
     7
176
     0
 62
   257
176
     0
 90
        1
176
     0
 90
        1
176
     0
 40
1.0
176
     0
 90
        8
176
     2
 62
     7
176
     0
 40
1.0
176
     0
 90
        1
176
     0
 90
        6
176
     0
 90
        2
176
     0
 62
     7
176
     0
 90
        5
176
     0
 90
        0
176
     0
 90
        0
176
     0
290
     0
176
     0
 90
        1
176
     0
 40
0.0
176
     0
 90
        0
176
     0
290
     0
176
     0
290
     1
176
     0
290
     1
176
     0
290
     0
176
     0
290
     0
176
     0
290
     0
176
     0
290
     0
176
     0
290
     0
176
     0
290
     0
176
     0
 90
       50
176
     0
 40
0.0
176
     0
 40
1.0
176
     0
 90
        0
176
     0
 62
   178
420
        0
176
     0
 90
       50
176
     0
 90
        3
176
     0
 62
     5
420
      255
176
     0
290
     0
176
     0
 90
       50
176
     0
 90
       50
176
     0
 90
       50
176
     0
290
     0
176
     0
 90
       50
176
     0
 62
   256
176
     0
 40
1.0
176
     0
 90
        2
176
     0
  1
strokes_ogs.tif
176
     0
290
     0
176
     0
 40
1.0
176
     0
 40
1.0
176
     0
  0
VISUALSTYLE
  5
10038
102
{ACAD_REACTORS
330
10029
102
}
330
10029
100
AcDbVisualStyle
  2
Facepattern
 70
    15
177
     3
291
     1
 70
    58
 90
        2
176
     1
 90
        2
176
     1
 90
        0
176
     1
 90
        0
176
     1
 40
0.6
176
     1
 40
30.0
176
     1
 62
     7
420
 16777215
176
     1
 90
        1
176
     1
 90
        4
176
     1
 62
     7
176
     1
 62
   257
176
     1
 90
        1
176
     1
 90
        1
176
     1
 40
1.0
176
     1
 90
        8
176
     1
 62
     7
176
     1
 40
1.0
176
     1
 90
        1
176
     1
 90
        6
176
     1
 90
        2
176
     1
 62
     7
176
     1
 90
        5
176
     1
 90
        0
176
     1
 90
        0
176
     1
290
     0
176
     1
 90
        1
176
     1
 40
0.0
176
     1
 90
        0
176
     1
290
     0
176
     1
290
     1
176
     1
290
     1
176
     1
290
     0
176
     1
290
     0
176
     1
290
     0
176
     1
290
     0
176
     1
290
     0
176
     1
290
     0
176
     1
 90
       50
176
     1
 40
0.0
176
     1
 40
1.0
176
     1
 90
        0
176
     1
 62
   178
420
        0
176
     1
 90
       50
176
     1
 90
        3
176
     1
 62
     5
420
      255
176
     1
290
     0
176
     1
 90
       50
176
     1
 90
       50
176
     1
 90
       50
176
     1
290
     0
176
     1
 90
       50
176
     1
 62
   256
176
     0
 40
1.0
176
     0
 90
        2
176
     1
  1
strokes_ogs.tif
176
     1
290
     0
176
     1
 40
1.0
176
     1
 40
1.0
176
     1
  0
VISUALSTYLE
  5
1002A
102
{ACAD_REACTORS
330
10029
102
}
330
10029
100
AcDbVisualStyle
  2
Flat
 70
     0
177
     3
291
     1
 70
    58
 90
        2
176
     1
 90
        1
176
     1
 90
        1
176
     1
 90
        2
176
     1
 40
0.6
176
     1
 40
30.0
176
     1
 62
     7
420
 16777215
176
     1
 90
        0
176
     1
 90
        0
176
     1
 62
     7
176
     1
 62
   257
176
     1
 90
        1
176
     1
 90
        1
176
     1
 40
1.0
176
     1
 90
        8
176
     1
 62
     7
176
     1
 40
1.0
176
     1
 90
        1
176
     1
 90
        6
176
     1
 90
        2
176
     1
 62
     7
176
     1
 90
        5
176
     1
 90
        0
176
     1
 90
        0
176
     1
290
     0
176
     1
 90
       13
176
     1
 40
0.0
176
     1
 90
        0
176
     1
290
     0
176
     1
290
     1
176
     1
290
     1
176
     1
290
     0
176
     1
290
     0
176
     1
290
     0
176
     1
290
     0
176
     1
290
     0
176
     1
290
     0
176
     1
 90
       50
176
     1
 40
0.0
176
     1
 40
1.0
176
     1
 90
        0
176
     1
 62
   178
420
        0
176
     1
 90
       50
176
     1
 90
        3
176
     1
 62
     5
420
      255
176
     1
290
     0
176
     1
 90
       50
176
     1
 90
       50
176
     1
 90
       50
176
     1
290
     0
176
     1
 90
       50
176
     1
 62
   256
176
     0
 40
1.0
176
     0
 90
        2
176
     1
  1
strokes_ogs.tif
176
     1
290
     0
176
     1
 40
1.0
176
     1
 40
1.0
176
     1
  0
VISUALSTYLE
  5
1002B
102
{ACAD_REACTORS
330
10029
102
}
330
10029
100
AcDbVisualStyle
  2
FlatWithEdges
 70
     1
177
     3
291
     1
 70
    58
 90
        2
176
     1
 90
        1
176
     1
 90
        1
176
     1
 90
        2
176
     1
 40
0.6
176
     1
 40
30.0
176
     1
 62
     7
420
 16777215
176
     1
 90
        1
176
     1
 90
        0
176
     1
 62
     7
176
     1
 62
   257
176
     1
 90
        1
176
     1
 90
        1
176
     1
 40
1.0
176
     1
 90
        0
176
     1
 62
   257
176
     1
 40
1.0
176
     1
 90
        1
176
     1
 90
        6
176
     1
 90
        2
176
     1
 62
     7
176
     1
 90
        5
176
     1
 90
        0
176
     1
 90
        0
176
     1
290
     0
176
     1
 90
       13
176
     1
 40
0.0
176
     1
 90
        0
176
     1
290
     0
176
     1
290
     1
176
     1
290
     1
176
     1
290
     0
176
     1
290
     0
176
     1
290
     0
176
     1
290
     0
176
     1
290
     0
176
     1
290
     0
176
     1
 90
       50
176
     1
 40
0.0
176
     1
 40
1.0
176
     1
 90
        0
176
     1
 62
   178
420
        0
176
     1
 90
       50
176
     1
 90
        3
176
     1
 62
     5
420
      255
176
     1
290
     0
176
     1
 90
       50
176
     1
 90
       50
176
     1
 90
       50
176
     1
290
     0
176
     1
 90
       50
176
     1
 62
   256
176
     0
 40
1.0
176
     0
 90
        2
176
     1
  1
strokes_ogs.tif
176
     1
290
     0
176
     1
 40
1.0
176
     1
 40
1.0
176
     1
  0
VISUALSTYLE
  5
1002C
102
{ACAD_REACTORS
330
10029
102
}
330
10029
100
AcDbVisualStyle
  2
Gouraud
 70
     2
177
     3
291
     1
 70
    58
 90
        2
176
     1
 90
        2
176
     1
 90
        1
176
     1
 90
        2
176
     1
 40
0.6
176
     1
 40
30.0
176
     1
 62
     7
420
 16777215
176
     1
 90
        0
176
     1
 90
        0
176
     1
 62
     7
176
     1
 62
   257
176
     1
 90
        1
176
     1
 90
        1
176
     1
 40
1.0
176
     1
 90
        0
176
     1
 62
     7
176
     1
 40
1.0
176
     1
 90
        1
176
     1
 90
        6
176
     1
 90
        2
176
     1
 62
     7
176
     1
 90
        5
176
     1
 90
        0
176
     1
 90
        0
176
     1
290
     0
176
     1
 90
       13
176
     1
 40
0.0
176
     1
 90
        0
176
     1
290
     0
176
     1
290
     1
176
     1
290
     1
176
     1
290
     0
176
     1
290
     0
176
     1
290
     0
176
     1
290
     0
176
     1
290
     0
176
     1
290
     0
176
     1
 90
       50
176
     1
 40
0.0
176
     1
 40
1.0
176
     1
 90
        0
176
     1
 62
   178
420
        0
176
     1
 90
       50
176
     1
 90
        3
176
     1
 62
     5
420
      255
176
     1
290
     0
176
     1
 90
       50
176
     1
 90
       50
176
     1
 90
       50
176
     1
290
     0
176
     1
 90
       50
176
     1
 62
   256
176
     0
 40
1.0
176
     0
 90
        2
176
     1
  1
strokes_ogs.tif
176
     1
290
     0
176
     1
 40
1.0
176
     1
 40
1.0
176
     1
  0
VISUALSTYLE
  5
1002D
102
{ACAD_REACTORS
330
10029
102
}
330
10029
100
AcDbVisualStyle
  2
GouraudWithEdges
 70
     3
177
     3
291
     1
 70
    58
 90
        2
176
     1
 90
        2
176
     1
 90
        1
176
     1
 90
        2
176
     1
 40
0.6
176
     1
 40
30.0
176
     1
 62
     7
420
 16777215
176
     1
 90
        1
176
     1
 90
        0
176
     1
 62
     7
176
     1
 62
   257
176
     1
 90
        1
176
     1
 90
        1
176
     1
 40
1.0
176
     1
 90
        0
176
     1
 62
   257
176
     1
 40
1.0
176
     1
 90
        1
176
     1
 90
        6
176
     1
 90
        2
176
     1
 62
     7
176
     1
 90
        5
176
     1
 90
        0
176
     1
 90
        0
176
     1
290
     0
176
     1
 90
       13
176
     1
 40
0.0
176
     1
 90
        0
176
     1
290
     0
176
     1
290
     1
176
     1
290
     1
176
     1
290
     0
176
     1
290
     0
176
     1
290
     0
176
     1
290
     0
176
     1
290
     0
176
     1
290
     0
176
     1
 90
       50
176
     1
 40
0.0
176
     1
 40
1.0
176
     1
 90
        0
176
     1
 62
   178
420
        0
176
     1
 90
       50
176
     1
 90
        3
176
     1
 62
     5
420
      255
176
     1
290
     0
176
     1
 90
       50
176
     1
 90
       50
176
     1
 90
       50
176
     1
290
     0
176
     1
 90
       50
176
     1
 62
   256
176
     0
 40
1.0
176
     0
 90
        2
176
     1
  1
strokes_ogs.tif
176
     1
290
     0
176
     1
 40
1.0
176
     1
 40
1.0
176
     1
  0
VISUALSTYLE
  5
10030
102
{ACAD_REACTORS
330
10029
102
}
330
10029
100
AcDbVisualStyle
  2
Hidden
 70
     6
177
     3
291
     0
 70
    58
 90
        1
176
     1
 90
        2
176
     1
 90
        2
176
     1
 90
        0
176
     1
 40
0.6
176
     1
 40
30.0
176
     1
 62
     7
420
 16777215
176
     1
 90
        2
176
     1
 90
        2
176
     1
 62
     7
176
     1
 62
   257
176
     1
 90
        2
176
     1
 90
        1
176
     1
 40
40.0
176
     1
 90
        0
176
     1
 62
   257
176
     1
 40
1.0
176
     1
 90
        1
176
     1
 90
        6
176
     1
 90
        2
176
     1
 62
     7
176
     1
 90
        3
176
     1
 90
        0
176
     1
 90
        0
176
     1
290
     0
176
     1
 90
        1
176
     1
 40
0.0
176
     1
 90
        0
176
     1
290
     0
176
     1
290
     1
176
     1
290
     1
176
     1
290
     0
176
     1
290
     0
176
     1
290
     0
176
     1
290
     0
176
     1
290
     0
176
     1
290
     0
176
     1
 90
       50
176
     1
 40
0.0
176
     1
 40
1.0
176
     1
 90
        0
176
     1
 62
   178
420
        0
176
     1
 90
       50
176
     1
 90
        3
176
     1
 62
     5
420
      255
176
     1
290
     0
176
     1
 90
       50
176
     1
 90
       50
176
     1
 90
       50
176
     1
290
     0
176
     1
 90
       50
176
     1
 62
   256
176
     0
 40
1.0
176
     0
 90
        2
176
     1
  1
strokes_ogs.tif
176
     1
290
     0
176
     1
 40
1.0
176
     1
 40
1.0
176
     1
  0
VISUALSTYLE
  5
1003A
102
{ACAD_REACTORS
330
10029
102
}
330
10029
100
AcDbVisualStyle
  2
JitterOff
 70
    20
177
     3
291
     1
 70
    58
 90
        2
176
     0
 90
        2
176
     0
 90
        0
176
     0
 90
        0
176
     0
 40
0.6
176
     0
 40
30.0
176
     0
 62
     7
420
 16777215
176
     0
 90
        1
176
     0
 90
        4
176
     0
 62
     7
176
     0
 62
   257
176
     0
 90
        1
176
     0
 90
        1
176
     0
 40
1.0
176
     0
 90
       10
176
     2
 62
     7
176
     0
 40
1.0
176
     0
 90
        1
176
     0
 90
        6
176
     0
 90
        2
176
     0
 62
     7
176
     0
 90
        5
176
     0
 90
        0
176
     0
 90
        0
176
     0
290
     0
176
     0
 90
        1
176
     0
 40
0.0
176
     0
 90
        0
176
     0
290
     0
176
     0
290
     1
176
     0
290
     1
176
     0
290
     0
176
     0
290
     0
176
     0
290
     0
176
     0
290
     0
176
     0
290
     0
176
     0
290
     0
176
     0
 90
       50
176
     0
 40
0.0
176
     0
 40
1.0
176
     0
 90
        0
176
     0
 62
   178
420
        0
176
     0
 90
       50
176
     0
 90
        3
176
     0
 62
     5
420
      255
176
     0
290
     0
176
     0
 90
       50
176
     0
 90
       50
176
     0
 90
       50
176
     0
290
     0
176
     0
 90
       50
176
     0
 62
   256
176
     0
 40
1.0
176
     0
 90
        2
176
     0
  1
strokes_ogs.tif
176
     0
290
     0
176
     0
 40
1.0
176
     0
 40
1.0
176
     0
  0
VISUALSTYLE
  5
10037
102
{ACAD_REACTORS
330
10029
102
}
330
10029
100
AcDbVisualStyle
  2
Linepattern
 70
    14
177
     3
291
     1
 70
    58
 90
        2
176
     1
 90
        2
176
     1
 90
        0
176
     1
 90
        0
176
     1
 40
0.6
176
     1
 40
30.0
176
     1
 62
     7
420
 16777215
176
     1
 90
        1
176
     1
 90
        4
176
     1
 62
     7
176
     1
 62
   257
176
     1
 90
        7
176
     1
 90
        7
176
     1
 40
1.0
176
     1
 90
        8
176
     1
 62
     7
176
     1
 40
1.0
176
     1
 90
        1
176
     1
 90
        6
176
     1
 90
        2
176
     1
 62
     7
176
     1
 90
        5
176
     1
 90
        0
176
     1
 90
        0
176
     1
290
     0
176
     1
 90
        1
176
     1
 40
0.0
176
     1
 90
        0
176
     1
290
     0
176
     1
290
     1
176
     1
290
     1
176
     1
290
     0
176
     1
290
     0
176
     1
290
     0
176
     1
290
     0
176
     1
290
     0
176
     1
290
     0
176
     1
 90
       50
176
     1
 40
0.0
176
     1
 40
1.0
176
     1
 90
        0
176
     1
 62
   178
420
        0
176
     1
 90
       50
176
     1
 90
        3
176
     1
 62
     5
420
      255
176
     1
290
     0
176
     1
 90
       50
176
     1
 90
       50
176
     1
 90
       50
176
     1
290
     0
176
     1
 90
       50
176
     1
 62
   256
176
     0
 40
1.0
176
     0
 90
        2
176
     1
  1
strokes_ogs.tif
176
     1
290
     0
176
     1
 40
1.0
176
     1
 40
1.0
176
     1
  0
VISUALSTYLE
  5
1003B
102
{ACAD_REACTORS
330
10029
102
}
330
10029
100
AcDbVisualStyle
  2
OverhangOff
 70
    21
177
     3
291
     1
 70
    58
 90
        2
176
     0
 90
        2
176
     0
 90
        0
176
     0
 90
        0
176
     0
 40
0.6
176
     0
 40
30.0
176
     0
 62
     7
420
 16777215
176
     0
 90
        1
176
     0
 90
        4
176
     0
 62
     7
176
     0
 62
   257
176
     0
 90
        1
176
     0
 90
        1
176
     0
 40
1.0
176
     0
 90
        9
176
     2
 62
     7
176
     0
 40
1.0
176
     0
 90
        1
176
     0
 90
        6
176
     0
 90
        2
176
     0
 62
     7
176
     0
 90
        5
176
     0
 90
        0
176
     0
 90
        0
176
     0
290
     0
176
     0
 90
        1
176
     0
 40
0.0
176
     0
 90
        0
176
     0
290
     0
176
     0
290
     1
176
     0
290
     1
176
     0
290
     0
176
     0
290
     0
176
     0
290
     0
176
     0
290
     0
176
     0
290
     0
176
     0
290
     0
176
     0
 90
       50
176
     0
 40
0.0
176
     0
 40
1.0
176
     0
 90
        0
176
     0
 62
   178
420
        0
176
     0
 90
       50
176
     0
 90
        3
176
     0
 62
     5
420
      255
176
     0
290
     0
176
     0
 90
       50
176
     0
 90
       50
176
     0
 90
       50
176
     0
290
     0
176
     0
 90
       50
176
     0
 62
   256
176
     0
 40
1.0
176
     0
 90
        2
176
     0
  1
strokes_ogs.tif
176
     0
290
     0
176
     0
 40
1.0
176
     0
 40
1.0
176
     0
  0
VISUALSTYLE
  5
10032
102
{ACAD_REACTORS
330
10029
102
}
330
10029
100
AcDbVisualStyle
  2
Realistic
 70
     8
177
     3
291
     0
 70
    58
 90
        2
176
     1
 90
        3
176
     1
 90
        0
176
     1
 90
        2
176
     1
 40
0.6
176
     1
 40
30.0
176
     1
 62
     7
420
 16777215
176
     1
 90
        0
176
     1
 90
        0
176
     1
 62
     7
176
     1
 62
   257
176
     1
 90
        1
176
     1
 90
        1
176
     1
 40
1.0
176
     1
 90
        8
176
     1
 62
   257
176
     1
 40
1.0
176
     1
 90
        1
176
     1
 90
        6
176
     1
 90
        2
176
     1
 62
     7
176
     1
 90
        3
176
     1
 90
        0
176
     1
 90
        0
176
     1
290
     0
176
     1
 90
       13
176
     1
 40
0.0
176
     1
 90
        0
176
     1
290
     0
176
     1
290
     1
176
     1
290
     1
176
     1
290
     0
176
     1
290
     0
176
     1
290
     0
176
     1
290
     0
176
     1
290
     0
176
     1
290
     0
176
     1
 90
       50
176
     1
 40
0.0
176
     1
 40
1.0
176
     1
 90
        0
176
     1
 62
   178
420
        0
176
     1
 90
       50
176
     1
 90
        3
176
     1
 62
     5
420
      255
176
     1
290
     0
176
     1
 90
       50
176
     1
 90
       50
176
     1
 90
       50
176
     1
290
     0
176
     1
 90
       50
176
     1
 62
   256
176
     0
 40
1.0
176
     0
 90
        2
176
     1
  1
strokes_ogs.tif
176
     1
290
     0
176
     1
 40
1.0
176
     1
 40
1.0
176
     1
  0
VISUALSTYLE
  5
10041
102
{ACAD_REACTORS
330
10029
102
}
330
10029
100
AcDbVisualStyle
  2
Shaded
 70
    27
177
     3
291
     0
 70
    58
 90
        2
176
     1
 90
        2
176
     1
 90
        1
176
     1
 90
        2
176
     1
 40
0.6
176
     1
 40
30.0
176
     1
 62
     7
420
 16777215
176
     1
 90
        0
176
     1
 90
        4
176
     1
 62
     7
176
     1
 62
   257
176
     1
 90
        1
176
     1
 90
        1
176
     1
 40
1.0
176
     1
 90
        8
176
     1
 62
   257
176
     1
 40
1.0
176
     1
 90
        1
176
     1
 90
        6
176
     1
 90
        2
176
     1
 62
     8
420
  7895160
176
     1
 90
        3
176
     1
 90
        0
176
     1
 90
        0
176
     1
290
     0
176
     1
 90
        5
176
     1
 40
0.0
176
     1
 90
        0
176
     1
290
     0
176
     1
290
     1
176
     1
290
     1
176
     1
290
     0
176
     1
290
     0
176
     1
290
     0
176
     1
290
     0
176
     1
290
     0
176
     1
290
     0
176
     1
 90
       50
176
     1
 40
0.0
176
     1
 40
1.0
176
     1
 90
        0
176
     1
 62
   178
420
        0
176
     1
 90
       50
176
     1
 90
        3
176
     1
 62
     5
420
      255
176
     1
290
     0
176
     1
 90
       50
176
     1
 90
       50
176
     1
 90
       50
176
     1
290
     0
176
     1
 90
       50
176
     1
 62
   256
176
     0
 40
1.0
176
     0
 90
        2
176
     1
  1
strokes_ogs.tif
176
     1
290
     0
176
     1
 40
1.0
176
     1
 40
1.0
176
     1
  0
VISUALSTYLE
  5
10040
102
{ACAD_REACTORS
330
10029
102
}
330
10029
100
AcDbVisualStyle
  2
Shaded with edges
 70
    26
177
     3
291
     0
 70
    58
 90
        2
176
     1
 90
        2
176
     1
 90
        1
176
     1
 90
        2
176
     1
 40
0.6
176
     1
 40
30.0
176
     1
 62
     7
420
 16777215
176
     1
 90
        1
176
     1
 90
       10
176
     1
 62
     7
176
     1
 62
   257
176
     1
 90
        2
176
     1
 90
        1
176
     1
 40
1.0
176
     1
 90
        8
176
     1
 62
   257
176
     1
 40
1.0
176
     1
 90
        1
176
     1
 90
        6
176
     1
 90
        2
176
     1
 62
     7
176
     1
 90
        3
176
     1
 90
        0
176
     1
 90
        0
176
     1
290
     0
176
     1
 90
        5
176
     1
 40
0.0
176
     1
 90
        0
176
     1
290
     0
176
     1
290
     1
176
     1
290
     1
176
     1
290
     0
176
     1
290
     0
176
     1
290
     0
176
     1
290
     0
176
     1
290
     0
176
     1
290
     0
176
     1
 90
       50
176
     1
 40
0.0
176
     1
 40
1.0
176
     1
 90
        0
176
     1
 62
   178
420
        0
176
     1
 90
       50
176
     1
 90
        3
176
     1
 62
     5
420
      255
176
     1
290
     0
176
     1
 90
       50
176
     1
 90
       50
176
     1
 90
       50
176
     1
290
     0
176
     1
 90
       50
176
     1
 62
   256
176
     0
 40
1.0
176
     0
 90
        2
176
     1
  1
strokes_ogs.tif
176
     1
290
     0
176
     1
 40
1.0
176
     1
 40
1.0
176
     1
  0
VISUALSTYLE
  5
1003D
102
{ACAD_REACTORS
330
10029
102
}
330
10029
100
AcDbVisualStyle
  2
Shades of Gray
 70
    23
177
     3
291
     0
 70
    58
 90
        2
176
     1
 90
        2
176
     1
 90
        3
176
     1
 90
        0
176
     1
 40
0.6
176
     1
 40
30.0
176
     1
 62
     7
420
 16777215
176
     1
 90
        2
176
     1
 90
        2
176
     1
 62
     7
176
     1
 62
     7
176
     1
 90
        1
176
     1
 90
        1
176
     1
 40
40.0
176
     1
 90
        8
176
     1
 62
     7
176
     1
 40
1.0
176
     1
 90
        1
176
     1
 90
        6
176
     1
 90
        2
176
     1
 62
     7
176
     1
 90
        3
176
     1
 90
        0
176
     1
 90
        0
176
     1
290
     0
176
     1
 90
        1
176
     1
 40
0.0
176
     1
 90
        0
176
     1
290
     0
176
     1
290
     1
176
     1
290
     1
176
     1
290
     0
176
     1
290
     0
176
     1
290
     0
176
     1
290
     0
176
     1
290
     0
176
     1
290
     0
176
     1
 90
       50
176
     1
 40
0.0
176
     1
 40
1.0
176
     1
 90
        0
176
     1
 62
   178
420
        0
176
     1
 90
       50
176
     1
 90
        3
176
     1
 62
     5
420
      255
176
     1
290
     0
176
     1
 90
       50
176
     1
 90
       50
176
     1
 90
       50
176
     1
290
     0
176
     1
 90
       50
176
     1
 62
   256
176
     0
 40
1.0
176
     0
 90
        2
176
     1
  1
strokes_ogs.tif
176
     1
290
     0
176
     1
 40
1.0
176
     1
 40
1.0
176
     1
  0
VISUALSTYLE
  5
1003E
102
{ACAD_REACTORS
330
10029
102
}
330
10029
100
AcDbVisualStyle
  2
Sketchy
 70
    24
177
     3
291
     0
 70
    58
 90
        1
176
     1
 90
        2
176
     1
 90
        2
176
     1
 90
        0
176
     1
 40
0.6
176
     1
 40
30.0
176
     1
 62
     7
420
 16777215
176
     1
 90
        2
176
     1
 90
        2
176
     1
 62
     7
176
     1
 62
     7
176
     1
 90
        1
176
     1
 90
        1
176
     1
 40
40.0
176
     1
 90
       11
176
     1
 62
     7
176
     1
 40
1.0
176
     1
 90
        1
176
     1
 90
        6
176
     1
 90
        2
176
     1
 62
     7
176
     1
 90
        6
176
     1
 90
        0
176
     1
 90
        0
176
     1
290
     0
176
     1
 90
        1
176
     1
 40
0.0
176
     1
 90
        0
176
     1
290
     0
176
     1
290
     1
176
     1
290
     1
176
     1
290
     0
176
     1
290
     0
176
     1
290
     0
176
     1
290
     0
176
     1
290
     0
176
     1
290
     0
176
     1
 90
       50
176
     1
 40
0.0
176
     1
 40
1.0
176
     1
 90
        0
176
     1
 62
   178
420
        0
176
     1
 90
       50
176
     1
 90
        3
176
     1
 62
     5
420
      255
176
     1
290
     0
176
     1
 90
       50
176
     1
 90
       50
176
     1
 90
       50
176
     1
290
     0
176
     1
 90
       50
176
     1
 62
   256
176
     0
 40
1.0
176
     0
 90
        2
176
     1
  1
strokes_ogs.tif
176
     1
290
     0
176
     1
 40
1.0
176
     1
 40
1.0
176
     1
  0
VISUALSTYLE
  5
10036
102
{ACAD_REACTORS
330
10029
102
}
330
10029
100
AcDbVisualStyle
  2
Thicken
 70
    13
177
     3
291
     1
 70
    58
 90
        2
176
     1
 90
        2
176
     1
 90
        0
176
     1
 90
        0
176
     1
 40
0.6
176
     1
 40
30.0
176
     1
 62
     7
420
 16777215
176
     1
 90
        1
176
     1
 90
        4
176
     1
 62
     7
176
     1
 62
   257
176
     1
 90
        1
176
     1
 90
        1
176
     1
 40
1.0
176
     1
 90
       12
176
     1
 62
     7
176
     1
 40
1.0
176
     1
 90
        1
176
     1
 90
        6
176
     1
 90
        2
176
     1
 62
     7
176
     1
 90
        5
176
     1
 90
        0
176
     1
 90
        0
176
     1
290
     0
176
     1
 90
        1
176
     1
 40
0.0
176
     1
 90
        0
176
     1
290
     0
176
     1
290
     1
176
     1
290
     1
176
     1
290
     0
176
     1
290
     0
176
     1
290
     0
176
     1
290
     0
176
     1
290
     0
176
     1
290
     0
176
     1
 90
       50
176
     1
 40
0.0
176
     1
 40
1.0
176
     1
 90
        0
176
     1
 62
   178
420
        0
176
     1
 90
       50
176
     1
 90
        3
176
     1
 62
     5
420
      255
176
     1
290
     0
176
     1
 90
       50
176
     1
 90
       50
176
     1
 90
       50
176
     1
290
     0
176
     1
 90
       50
176
     1
 62
   256
176
     0
 40
1.0
176
     0
 90
        2
176
     1
  1
strokes_ogs.tif
176
     1
290
     0
176
     1
 40
1.0
176
     1
 40
1.0
176
     1
  0
VISUALSTYLE
  5
1002F
102
{ACAD_REACTORS
330
10029
102
}
330
10029
100
AcDbVisualStyle
  2
Wireframe
 70
     5
177
     3
291
     0
 70
    58
 90
        0
176
     1
 90
        2
176
     1
 90
        0
176
     1
 90
        0
176
     1
 40
0.6
176
     1
 40
30.0
176
     1
 62
     7
420
 16777215
176
     1
 90
        1
176
     1
 90
        4
176
     1
 62
     7
176
     1
 62
   257
176
     1
 90
        1
176
     1
 90
        1
176
     1
 40
1.0
176
     1
 90
        0
176
     1
 62
   257
176
     1
 40
1.0
176
     1
 90
        1
176
     1
 90
        6
176
     1
 90
        2
176
     1
 62
     7
176
     1
 90
        3
176
     1
 90
        0
176
     1
 90
        0
176
     1
290
     0
176
     1
 90
        1
176
     1
 40
0.0
176
     1
 90
        0
176
     1
290
     0
176
     1
290
     1
176
     1
290
     1
176
     1
290
     0
176
     1
290
     0
176
     1
290
     0
176
     1
290
     0
176
     1
290
     0
176
     1
290
     0
176
     1
 90
       50
176
     1
 40
0.0
176
     1
 40
1.0
176
     1
 90
        0
176
     1
 62
   178
420
        0
176
     1
 90
       50
176
     1
 90
        3
176
     1
 62
     5
420
      255
176
     1
290
     0
176
     1
 90
       50
176
     1
 90
       50
176
     1
 90
       50
176
     1
290
     0
176
     1
 90
       50
176
     1
 62
   256
176
     0
 40
1.0
176
     0
 90
        2
176
     1
  1
strokes_ogs.tif
176
     1
290
     0
176
     1
 40
1.0
176
     1
 40
1.0
176
     1
  0
VISUALSTYLE
  5
1003F
102
{ACAD_REACTORS
330
10029
102
}
330
10029
100
AcDbVisualStyle
  2
X-Ray
 70
    25
177
     3
291
     0
 70
    58
 90
        2
176
     1
 90
        2
176
     1
 90
        1
176
     1
 90
        1
176
     1
 40
0.5
176
     1
 40
30.0
176
     1
 62
     7
420
 16777215
176
     1
 90
        1
176
     1
 90
        0
176
     1
 62
     7
176
     1
 62
   257
176
     1
 90
        1
176
     1
 90
        1
176
     1
 40
1.0
176
     1
 90
        8
176
     1
 62
     7
176
     1
 40
1.0
176
     1
 90
        1
176
     1
 90
        6
176
     1
 90
        2
176
     1
 62
     7
176
     1
 90
        3
176
     1
 90
        0
176
     1
 90
        0
176
     1
290
     0
176
     1
 90
       13
176
     1
 40
0.0
176
     1
 90
        0
176
     1
290
     0
176
     1
290
     1
176
     1
290
     1
176
     1
290
     0
176
     1
290
     0
176
     1
290
     0
176
     1
290
     0
176
     1
290
     0
176
     1
290
     0
176
     1
 90
       50
176
     1
 40
0.0
176
     1
 40
1.0
176
     1
 90
        0
176
     1
 62
   178
420
        0
176
     1
 90
       50
176
     1
 90
        3
176
     1
 62
     5
420
      255
176
     1
290
     0
176
     1
 90
       50
176
     1
 90
       50
176
     1
 90
       50
176
     1
290
     0
176
     1
 90
       50
176
     1
 62
   256
176
     0
 40
1.0
176
     0
 90
        2
176
     1
  1
strokes_ogs.tif
176
     1
290
     0
176
     1
 40
1.0
176
     1
 40
1.0
176
     1
  0
DICTIONARYVAR
  5
104CE
102
{ACAD_REACTORS
330
104CD
102
}
330
104CD
100
DictionaryVariables
280
     0
  1
1:1
  0
DICTIONARYVAR
  5
104D0
102
{ACAD_REACTORS
330
104CD
102
}
330
104CD
100
DictionaryVariables
280
     0
  1
Standard
  0
DICTIONARYVAR
  5
104CF
102
{ACAD_REACTORS
330
104CD
102
}
330
104CD
100
DictionaryVariables
280
     0
  1
Standard
  0
DICTIONARYVAR
  5
104D1
102
{ACAD_REACTORS
330
104CD
102
}
330
104CD
100
DictionaryVariables
280
     0
  1
0
  0
DICTIONARY
  5
10836
330
10047
100
AcDbDictionary
280
     1
281
     1
  3
ACAD_ROUNDTRIP_2008_TABLESTYLE_CELLSTYLEMAP
360
10837
  0
CELLSTYLEMAP
  5
10837
102
{ACAD_REACTORS
330
10836
102
}
330
10836
100
AcDbCellStyleMap
 90
        3
300
CELLSTYLE
  1
TABLEFORMAT_BEGIN
 90
        5
170
     1
 91
        0
 92
    32768
 62
   257
 93
        1
300
CONTENTFORMAT
  1
CONTENTFORMAT_BEGIN
 90
        0
 91
        0
 92
        4
 93
        0
300

 40
0.0
140
1.0
 94
        5
 62
     0
340
71
144
0.25
309
CONTENTFORMAT_END
171
     1
301
MARGIN
  1
CELLMARGIN_BEGIN
 40
0.06
 40
0.06
 40
0.06
 40
0.06
 40
0.06
 40
0.06
309
CELLMARGIN_END
 94
        6
 95
        1
302
GRIDFORMAT
  1
GRIDFORMAT_BEGIN
 90
        0
 91
        1
 62
     0
 92
       -2
340
23
 93
        0
 40
0.045
309
GRIDFORMAT_END
 95
        2
302
GRIDFORMAT
  1
GRIDFORMAT_BEGIN
 90
        0
 91
        1
 62
     0
 92
       -2
340
23
 93
        0
 40
0.045
309
GRIDFORMAT_END
 95
        4
302
GRIDFORMAT
  1
GRIDFORMAT_BEGIN
 90
        0
 91
        1
 62
     0
 92
       -2
340
23
 93
        0
 40
0.045
309
GRIDFORMAT_END
 95
        8
302
GRIDFORMAT
  1
GRIDFORMAT_BEGIN
 90
        0
 91
        1
 62
     0
 92
       -2
340
23
 93
        0
 40
0.045
309
GRIDFORMAT_END
 95
       16
302
GRIDFORMAT
  1
GRIDFORMAT_BEGIN
 90
        0
 91
        1
 62
     0
 92
       -2
340
23
 93
        0
 40
0.045
309
GRIDFORMAT_END
 95
       32
302
GRIDFORMAT
  1
GRIDFORMAT_BEGIN
 90
        0
 91
        1
 62
     0
 92
       -2
340
23
 93
        0
 40
0.045
309
GRIDFORMAT_END
309
TABLEFORMAT_END
  1
CELLSTYLE_BEGIN
 90
        1
 91
        1
300
_TITLE
309
CELLSTYLE_END
300
CELLSTYLE
  1
TABLEFORMAT_BEGIN
 90
        5
170
     1
 91
        0
 92
        0
 62
   257
 93
        1
300
CONTENTFORMAT
  1
CONTENTFORMAT_BEGIN
 90
        0
 91
        0
 92
        4
 93
        0
300

 40
0.0
140
1.0
 94
        5
 62
     0
340
71
144
0.18
309
CONTENTFORMAT_END
171
     1
301
MARGIN
  1
CELLMARGIN_BEGIN
 40
0.06
 40
0.06
 40
0.06
 40
0.06
 40
0.06
 40
0.06
309
CELLMARGIN_END
 94
        6
 95
        1
302
GRIDFORMAT
  1
GRIDFORMAT_BEGIN
 90
        0
 91
        1
 62
     0
 92
       -2
340
23
 93
        0
 40
0.045
309
GRIDFORMAT_END
 95
        2
302
GRIDFORMAT
  1
GRIDFORMAT_BEGIN
 90
        0
 91
        1
 62
     0
 92
       -2
340
23
 93
        0
 40
0.045
309
GRIDFORMAT_END
 95
        4
302
GRIDFORMAT
  1
GRIDFORMAT_BEGIN
 90
        0
 91
        1
 62
     0
 92
       -2
340
23
 93
        0
 40
0.045
309
GRIDFORMAT_END
 95
        8
302
GRIDFORMAT
  1
GRIDFORMAT_BEGIN
 90
        0
 91
        1
 62
     0
 92
       -2
340
23
 93
        0
 40
0.045
309
GRIDFORMAT_END
 95
       16
302
GRIDFORMAT
  1
GRIDFORMAT_BEGIN
 90
        0
 91
        1
 62
     0
 92
       -2
340
23
 93
        0
 40
0.045
309
GRIDFORMAT_END
 95
       32
302
GRIDFORMAT
  1
GRIDFORMAT_BEGIN
 90
        0
 91
        1
 62
     0
 92
       -2
340
23
 93
        0
 40
0.045
309
GRIDFORMAT_END
309
TABLEFORMAT_END
  1
CELLSTYLE_BEGIN
 90
        2
 91
        1
300
_HEADER
309
CELLSTYLE_END
300
CELLSTYLE
  1
TABLEFORMAT_BEGIN
 90
        5
170
     1
 91
        0
 92
        0
 62
   257
 93
        1
300
CONTENTFORMAT
  1
CONTENTFORMAT_BEGIN
 90
        0
 91
        0
 92
        4
 93
        0
300

 40
0.0
140
1.0
 94
        2
 62
     0
340
71
144
0.18
309
CONTENTFORMAT_END
171
     1
301
MARGIN
  1
CELLMARGIN_BEGIN
 40
0.06
 40
0.06
 40
0.06
 40
0.06
 40
0.06
 40
0.06
309
CELLMARGIN_END
 94
        6
 95
        1
302
GRIDFORMAT
  1
GRIDFORMAT_BEGIN
 90
        0
 91
        1
 62
     0
 92
       -2
340
23
 93
        0
 40
0.045
309
GRIDFORMAT_END
 95
        2
302
GRIDFORMAT
  1
GRIDFORMAT_BEGIN
 90
        0
 91
        1
 62
     0
 92
       -2
340
23
 93
        0
 40
0.045
309
GRIDFORMAT_END
 95
        4
302
GRIDFORMAT
  1
GRIDFORMAT_BEGIN
 90
        0
 91
        1
 62
     0
 92
       -2
340
23
 93
        0
 40
0.045
309
GRIDFORMAT_END
 95
        8
302
GRIDFORMAT
  1
GRIDFORMAT_BEGIN
 90
        0
 91
        1
 62
     0
 92
       -2
340
23
 93
        0
 40
0.045
309
GRIDFORMAT_END
 95
       16
302
GRIDFORMAT
  1
GRIDFORMAT_BEGIN
 90
        0
 91
        1
 62
     0
 92
       -2
340
23
 93
        0
 40
0.045
309
GRIDFORMAT_END
 95
       32
302
GRIDFORMAT
  1
GRIDFORMAT_BEGIN
 90
        0
 91
        1
 62
     0
 92
       -2
340
23
 93
        0
 40
0.045
309
GRIDFORMAT_END
309
TABLEFORMAT_END
  1
CELLSTYLE_BEGIN
 90
        3
 91
        2
300
_DATA
309
CELLSTYLE_END
  0
ENDSEC
  0
EOF
